<?xml version="1.0" standalone="no"?>
<!DOCTYPE svg PUBLIC "-//W3C//DTD SVG 1.1//EN" "http://www.w3.org/Graphics/SVG/1.1/DTD/svg11.dtd" >
<svg>
<metadata>
Created by FontForge 20090622 at Fri Dec 27 18:55:36 2019
 By deploy user
&#194;&#169; Sanir Karmacharya, Suyash Shrestha (conversion to OTF and mac fonts)
</metadata>
<defs>
<font id="Kalimati" horiz-adv-x="0" >
  <font-face 
    font-family="Kalimati"
    font-weight="400"
    font-stretch="normal"
    units-per-em="2048"
    panose-1="0 0 4 0 0 0 0 0 0 0"
    ascent="1638"
    descent="-410"
    x-height="1202"
    cap-height="1575"
    bbox="-1236 -848 2919 2542"
    underline-thickness="120"
    underline-position="-73"
    unicode-range="U+0020-U+25CC"
  />
<missing-glyph horiz-adv-x="1024" 
d="M128 0v2542h768v-2542h-768zM256 128h512v2286h-512v-2286z" />
    <glyph glyph-name=".notdef" horiz-adv-x="1024" 
d="M128 0v2542h768v-2542h-768zM256 128h512v2286h-512v-2286z" />
    <glyph glyph-name=".null" 
 />
    <glyph glyph-name="nonmarkingreturn" horiz-adv-x="682" 
 />
    <glyph glyph-name="space" unicode=" " horiz-adv-x="1024" 
 />
    <glyph glyph-name="exclam" unicode="!" horiz-adv-x="640" 
d="M309 336h203v-254h-203v254zM309 1575h203v-655l-20 -357h-162l-21 357v655z" />
    <glyph glyph-name="quotedbl" unicode="&#x22;" horiz-adv-x="1014" 
d="M367 1575v-555h-170v555h170zM745 1575v-555h-170v555h170z" />
    <glyph glyph-name="numbersign" unicode="#" horiz-adv-x="1602" 
d="M1047 983h-291l-84 -334h293zM897 1552l-104 -415h292l105 415h160l-103 -415h312v-154h-351l-82 -334h318v-153h-357l-104 -414h-160l103 414h-293l-103 -414h-161l104 414h-315v153h352l84 334h-322v154h361l102 415h162z" />
    <glyph glyph-name="dollar" unicode="$" horiz-adv-x="1118" 
d="M692 -219h-100l-1 301q-105 2 -210 24.5t-211 67.5v180q102 -64 206.5 -96.5t215.5 -33.5v456q-221 36 -321.5 122t-100.5 236q0 163 109 257t313 108v235h100v-232q93 -4 180 -19.5t170 -42.5v-175q-83 42 -170.5 65t-179.5 27v-427q227 -35 334 -125t107 -246
q0 -169 -113.5 -266.5t-327.5 -112.5v-303zM592 852v410q-116 -13 -177 -66t-61 -141q0 -86 56.5 -134t181.5 -69zM692 660v-433q127 17 191.5 72t64.5 145q0 88 -61.5 140t-194.5 76z" />
    <glyph glyph-name="percent" unicode="%" horiz-adv-x="2000" 
d="M1489 739q-87 0 -136.5 -74t-49.5 -206q0 -130 49.5 -204.5t136.5 -74.5q85 0 134.5 74.5t49.5 204.5q0 131 -49.5 205.5t-134.5 74.5zM1489 866q158 0 251 -110t93 -297t-93.5 -296.5t-250.5 -109.5q-160 0 -253 109.5t-93 296.5q0 188 93.5 297.5t252.5 109.5z
M457 1475q-86 0 -135.5 -74.5t-49.5 -204.5q0 -132 49 -206t136 -74t136.5 74t49.5 206q0 129 -50 204t-136 75zM1360 1602h160l-934 -1549h-160zM457 1602q158 0 252 -109.5t94 -296.5q0 -189 -93.5 -298t-252.5 -109t-251.5 109.5t-92.5 297.5q0 186 93 296t251 110z" />
    <glyph glyph-name="ampersand" unicode="&#x26;" horiz-adv-x="1496" 
d="M498 885q-91 -81 -133.5 -161.5t-42.5 -168.5q0 -146 106 -243t266 -97q95 0 178 31.5t156 95.5zM639 997l508 -520q59 89 92 190.5t39 215.5h186q-12 -132 -64 -261t-145 -255l279 -285h-252l-143 147q-104 -89 -218 -132.5t-245 -43.5q-241 0 -394 137.5t-153 352.5
q0 128 67 240.5t201 211.5q-48 63 -73 125.5t-25 122.5q0 162 111 260.5t295 98.5q83 0 165.5 -18t167.5 -54v-182q-87 47 -166 71.5t-147 24.5q-105 0 -170.5 -55.5t-65.5 -143.5q0 -51 29.5 -102.5t120.5 -145.5z" />
    <glyph glyph-name="quotesingle" unicode="'" horiz-adv-x="436" 
d="M367 1575v-555h-170v555h170z" />
    <glyph glyph-name="parenleft" unicode="(" horiz-adv-x="854" 
d="M635 1636q-134 -230 -199 -455t-65 -456t65.5 -457.5t198.5 -455.5h-160q-150 235 -224.5 462t-74.5 451q0 223 74 449t225 462h160z" />
    <glyph glyph-name="parenright" unicode=")" horiz-adv-x="854" 
d="M164 1636h160q150 -236 224.5 -462t74.5 -449q0 -224 -74.5 -451t-224.5 -462h-160q133 229 198.5 455.5t65.5 457.5t-65.5 456t-198.5 455z" />
    <glyph glyph-name="asterisk" unicode="*" horiz-adv-x="1076" 
d="M963 1329l-359 -194l359 -195l-58 -98l-336 203v-377h-114v377l-336 -203l-58 98l359 195l-359 194l58 99l336 -203v377h114v-377l336 203z" />
    <glyph glyph-name="plus" unicode="+" horiz-adv-x="1282" 
d="M942 1366v-557h557v-170h-557v-557h-168v557h-557v170h557v557h168z" />
    <glyph glyph-name="comma" unicode="," horiz-adv-x="560" 
d="M240 336h211v-172l-164 -320h-129l82 320v172z" />
    <glyph glyph-name="hyphen" unicode="-" horiz-adv-x="840" 
d="M100 725h539v-164h-539v164z" />
    <glyph glyph-name="period" unicode="." horiz-adv-x="640" 
d="M219 336h211v-254h-211v254z" />
    <glyph glyph-name="slash" unicode="/" horiz-adv-x="1282" 
d="M520 1575h170l-520 -1683h-170z" />
    <glyph glyph-name="zero" unicode="0" horiz-adv-x="1118" 
d="M651 1442q-156 0 -234.5 -153.5t-78.5 -461.5q0 -307 78.5 -460.5t234.5 -153.5q157 0 235.5 153.5t78.5 460.5q0 308 -78.5 461.5t-235.5 153.5zM651 1602q251 0 383.5 -198.5t132.5 -576.5q0 -377 -132.5 -575.5t-383.5 -198.5t-383.5 198.5t-132.5 575.5
q0 378 132.5 576.5t383.5 198.5z" />
    <glyph glyph-name="one" unicode="1" horiz-adv-x="1118" 
d="M254 252h330v1139l-359 -72v184l357 72h202v-1323h330v-170h-860v170z" />
    <glyph glyph-name="two" unicode="2" horiz-adv-x="1118" 
d="M393 252h705v-170h-948v170l314 320l249 258q97 109 135.5 184.5t38.5 148.5q0 119 -83.5 194t-217.5 75q-95 0 -200.5 -33t-225.5 -100v204q122 49 228 74t194 25q232 0 370 -116t138 -310q0 -92 -34.5 -174.5t-125.5 -194.5q-25 -29 -159 -167z" />
    <glyph glyph-name="three" unicode="3" horiz-adv-x="1118" 
d="M831 887q145 -31 226.5 -129t81.5 -242q0 -221 -152 -342t-432 -121q-94 0 -193.5 18.5t-205.5 55.5v195q84 -49 184 -74t209 -25q190 0 289.5 75t99.5 218q0 132 -92.5 206.5t-257.5 74.5h-174v166h182q149 0 228 59.5t79 171.5q0 115 -81.5 176.5t-233.5 61.5
q-83 0 -178 -18t-209 -56v180q115 32 215.5 48t189.5 16q230 0 364 -104.5t134 -282.5q0 -124 -71 -209.5t-202 -118.5z" />
    <glyph glyph-name="four" unicode="4" horiz-adv-x="1118" 
d="M774 1399l-510 -797h510v797zM721 1575h254v-973h213v-168h-213v-352h-201v352h-674v195z" />
    <glyph glyph-name="five" unicode="5" horiz-adv-x="1118" 
d="M221 1575h793v-170h-608v-366q44 15 88 22.5t88 7.5q250 0 396 -137t146 -371q0 -241 -150 -374.5t-423 -133.5q-94 0 -191.5 16t-201.5 48v203q90 -49 186 -73t203 -24q173 0 274 91t101 247t-101 247t-274 91q-81 0 -161.5 -18t-164.5 -56v750z" />
    <glyph glyph-name="six" unicode="6" horiz-adv-x="1118" 
d="M676 909q-136 0 -215.5 -93t-79.5 -255q0 -161 79.5 -254.5t215.5 -93.5t215.5 93.5t79.5 254.5q0 162 -79.5 255t-215.5 93zM1077 1542v-184q-76 36 -153.5 55t-153.5 19q-200 0 -305.5 -135t-120.5 -408q59 87 148 133.5t196 46.5q225 0 355.5 -136.5t130.5 -371.5
q0 -230 -136 -369t-362 -139q-259 0 -396 198.5t-137 575.5q0 354 168 564.5t451 210.5q76 0 153.5 -15t161.5 -45z" />
    <glyph glyph-name="seven" unicode="7" horiz-adv-x="1118" 
d="M168 1575h960v-86l-542 -1407h-211l510 1323h-717v170z" />
    <glyph glyph-name="eight" unicode="8" horiz-adv-x="1118" 
d="M651 791q-144 0 -226.5 -77t-82.5 -212t82.5 -212t226.5 -77t227 77.5t83 211.5q0 135 -82.5 212t-227.5 77zM449 877q-130 32 -202.5 121t-72.5 217q0 179 127.5 283t349.5 104q223 0 350 -104t127 -283q0 -128 -72.5 -217t-201.5 -121q146 -34 227.5 -133t81.5 -242
q0 -217 -132.5 -333t-379.5 -116t-379.5 116t-132.5 333q0 143 82 242t228 133zM375 1196q0 -116 72.5 -181t203.5 -65q130 0 203.5 65t73.5 181t-73.5 181t-203.5 65q-131 0 -203.5 -65t-72.5 -181z" />
    <glyph glyph-name="nine" unicode="9" horiz-adv-x="1118" 
d="M225 113v184q76 -36 154 -55t153 -19q200 0 305.5 134.5t120.5 408.5q-58 -86 -147 -132t-197 -46q-224 0 -354.5 135.5t-130.5 370.5q0 230 136 369t362 139q259 0 395.5 -198.5t136.5 -576.5q0 -353 -167.5 -563.5t-450.5 -210.5q-76 0 -154 15t-162 45zM627 746
q136 0 215.5 93t79.5 255q0 161 -79.5 254.5t-215.5 93.5t-215.5 -93.5t-79.5 -254.5q0 -162 79.5 -255t215.5 -93z" />
    <glyph glyph-name="colon" unicode=":" horiz-adv-x="640" 
d="M240 336h211v-254h-211v254zM240 1141h211v-254h-211v254z" />
    <glyph glyph-name="semicolon" unicode=";" horiz-adv-x="640" 
d="M240 1141h211v-254h-211v254zM240 336h211v-172l-164 -320h-129l82 320v172z" />
    <glyph glyph-name="less" unicode="&#x3c;" horiz-adv-x="1496" 
d="M1499 1090l-1032 -367l1032 -365v-182l-1282 465v166l1282 465v-182z" />
    <glyph glyph-name="equal" unicode="=" horiz-adv-x="1282" 
d="M217 1012h1282v-168h-1282v168zM217 604h1282v-170h-1282v170z" />
    <glyph glyph-name="greater" unicode="&#x3e;" horiz-adv-x="1496" 
d="M217 1090v182l1282 -465v-166l-1282 -465v182l1030 365z" />
    <glyph glyph-name="question" unicode="?" horiz-adv-x="1209" 
d="M391 336h203v-254h-203v254zM588 483h-191v154q0 101 28 166t118 151l90 89q57 53 82.5 100t25.5 96q0 89 -65.5 144t-173.5 55q-79 0 -168.5 -35t-186.5 -102v188q94 57 190.5 85t199.5 28q184 0 295.5 -97t111.5 -256q0 -76 -36 -144.5t-126 -154.5l-88 -86
q-47 -47 -66.5 -73.5t-27.5 -51.5q-6 -21 -9 -51t-3 -82v-123z" />
    <glyph glyph-name="at" unicode="@" horiz-adv-x="2028" 
d="M762 619q0 -143 71 -224.5t195 -81.5q123 0 193.5 82t70.5 224q0 140 -72 222.5t-194 82.5q-121 0 -192.5 -82t-71.5 -223zM1307 320q-60 -77 -137.5 -113.5t-180.5 -36.5q-172 0 -279.5 124.5t-107.5 324.5t108 325t279 125q103 0 181 -37.5t137 -113.5v131h143v-736
q146 22 228.5 133.5t82.5 288.5q0 107 -31.5 201t-95.5 174q-104 131 -253.5 200.5t-325.5 69.5q-123 0 -236 -32.5t-209 -96.5q-157 -102 -245.5 -267.5t-88.5 -358.5q0 -159 57.5 -298t166.5 -245q105 -104 243 -158.5t295 -54.5q129 0 253.5 43.5t228.5 124.5l90 -111
q-125 -97 -272.5 -148.5t-299.5 -51.5q-185 0 -349 65.5t-292 190.5t-195 289.5t-67 353.5q0 182 68 347t194 290q129 127 298 194.5t358 67.5q212 0 393.5 -87t304.5 -247q75 -98 114.5 -213t39.5 -238q0 -263 -159 -415t-439 -158v154z" />
    <glyph glyph-name="A" unicode="A" horiz-adv-x="1228" 
d="M700 1376l-274 -743h549zM586 1575h229l569 -1493h-210l-136 383h-673l-136 -383h-213z" />
    <glyph glyph-name="B" unicode="B" horiz-adv-x="1207" 
d="M403 795v-547h324q163 0 241.5 67.5t78.5 206.5q0 140 -78.5 206.5t-241.5 66.5h-324zM403 1409v-450h299q148 0 220.5 55.5t72.5 169.5q0 113 -72.5 169t-220.5 56h-299zM201 1575h516q231 0 356 -96t125 -273q0 -137 -64 -218t-188 -101q149 -32 231.5 -133.5
t82.5 -253.5q0 -200 -136 -309t-387 -109h-536v1493z" />
    <glyph glyph-name="C" unicode="C" horiz-adv-x="1230" 
d="M1319 1460v-213q-102 95 -217.5 142t-245.5 47q-256 0 -392 -156.5t-136 -452.5q0 -295 136 -451.5t392 -156.5q130 0 245.5 47t217.5 142v-211q-106 -72 -224.5 -108t-250.5 -36q-339 0 -534 207.5t-195 566.5q0 360 195 567.5t534 207.5q134 0 252.5 -35.5
t222.5 -106.5z" />
    <glyph glyph-name="D" unicode="D" horiz-adv-x="1389" 
d="M403 1409v-1161h244q309 0 452.5 140t143.5 442q0 300 -143.5 439.5t-452.5 139.5h-244zM201 1575h415q434 0 637 -180.5t203 -564.5q0 -386 -204 -567t-636 -181h-415v1493z" />
    <glyph glyph-name="E" unicode="E" horiz-adv-x="1149" 
d="M201 1575h944v-170h-742v-442h711v-170h-711v-541h760v-170h-962v1493z" />
    <glyph glyph-name="F" unicode="F" horiz-adv-x="1068" 
d="M201 1575h858v-170h-656v-440h592v-170h-592v-713h-202v1493z" />
    <glyph glyph-name="G" unicode="G" horiz-adv-x="1367" 
d="M1219 295v401h-330v166h530v-641q-117 -83 -258 -125.5t-301 -42.5q-350 0 -547.5 204.5t-197.5 569.5q0 366 197.5 570.5t547.5 204.5q146 0 277.5 -36t242.5 -106v-215q-112 95 -238 143t-265 48q-274 0 -411.5 -153t-137.5 -456q0 -302 137.5 -455t411.5 -153
q107 0 191 18.5t151 57.5z" />
    <glyph glyph-name="H" unicode="H" horiz-adv-x="1383" 
d="M201 1575h202v-612h734v612h202v-1493h-202v711h-734v-711h-202v1493z" />
    <glyph glyph-name="I" unicode="I" horiz-adv-x="764" 
d="M201 1575h202v-1493h-202v1493z" />
    <glyph glyph-name="J" unicode="J" horiz-adv-x="853" 
d="M201 1575h202v-1389q0 -270 -102.5 -392t-329.5 -122h-77v170h63q134 0 189 75t55 269v1389z" />
    <glyph glyph-name="K" unicode="K" horiz-adv-x="1204" 
d="M201 1575h202v-631l670 631h260l-741 -696l794 -797h-266l-717 719v-719h-202v1493z" />
    <glyph glyph-name="L" unicode="L" horiz-adv-x="1019" 
d="M201 1575h202v-1323h727v-170h-929v1493z" />
    <glyph glyph-name="M" unicode="M" horiz-adv-x="1578" 
d="M201 1575h301l381 -1016l383 1016h301v-1493h-197v1311l-385 -1024h-203l-385 1024v-1311h-196v1493z" />
    <glyph glyph-name="N" unicode="N" horiz-adv-x="1367" 
d="M201 1575h272l662 -1249v1249h196v-1493h-272l-662 1249v-1249h-196v1493z" />
    <glyph glyph-name="O" unicode="O" horiz-adv-x="1449" 
d="M807 1438q-220 0 -349.5 -164t-129.5 -447q0 -282 129.5 -446t349.5 -164t348.5 164t128.5 446q0 283 -128.5 447t-348.5 164zM807 1602q314 0 502 -210.5t188 -564.5q0 -353 -188 -563.5t-502 -210.5q-315 0 -503.5 210t-188.5 564t188.5 564.5t503.5 210.5z" />
    <glyph glyph-name="P" unicode="P" horiz-adv-x="1129" 
d="M403 1409v-561h254q141 0 218 73t77 208q0 134 -77 207t-218 73h-254zM201 1575h456q251 0 379.5 -113.5t128.5 -332.5q0 -221 -128.5 -334t-379.5 -113h-254v-600h-202v1493z" />
    <glyph glyph-name="Q" unicode="Q" horiz-adv-x="1449" 
d="M807 1438q-220 0 -349.5 -164t-129.5 -447q0 -282 129.5 -446t349.5 -164t348.5 164t128.5 446q0 283 -128.5 447t-348.5 164zM1090 109l266 -291h-244l-221 239l-51 -3l-33 -1q-315 0 -503.5 210.5t-188.5 563.5q0 354 188.5 564.5t503.5 210.5q314 0 502 -210.5
t188 -564.5q0 -260 -104.5 -445t-302.5 -273z" />
    <glyph glyph-name="R" unicode="R" horiz-adv-x="1271" 
d="M909 782q65 -22 126.5 -94t123.5 -198l205 -408h-217l-191 383q-74 150 -143.5 199t-189.5 49h-220v-631h-202v1493h456q256 0 382 -107t126 -323q0 -141 -65.5 -234t-190.5 -129zM403 1409v-530h254q146 0 220.5 67.5t74.5 198.5t-74.5 197.5t-220.5 66.5h-254z" />
    <glyph glyph-name="S" unicode="S" horiz-adv-x="1141" 
d="M1096 1526v-197q-115 55 -217 82t-197 27q-165 0 -254.5 -64t-89.5 -182q0 -99 59.5 -149.5t225.5 -81.5l122 -25q226 -43 333.5 -151.5t107.5 -290.5q0 -217 -145.5 -329t-426.5 -112q-106 0 -225.5 24t-247.5 71v208q123 -69 241 -104t232 -35q173 0 267 68t94 194
q0 110 -67.5 172t-221.5 93l-123 24q-226 45 -327 141t-101 267q0 198 139.5 312t384.5 114q105 0 214 -19t223 -57z" />
    <glyph glyph-name="T" unicode="T" horiz-adv-x="1196" 
d="M-6 1575h1263v-170h-530v-1323h-203v1323h-530v170z" />
    <glyph glyph-name="U" unicode="U" horiz-adv-x="1343" 
d="M178 1575h203v-907q0 -240 87 -345.5t282 -105.5q194 0 281 105.5t87 345.5v907h203v-932q0 -292 -144.5 -441t-426.5 -149q-283 0 -427.5 149t-144.5 441v932z" />
    <glyph glyph-name="V" unicode="V" horiz-adv-x="1222" 
d="M586 82l-570 1493h211l473 -1257l474 1257h210l-569 -1493h-229z" />
    <glyph glyph-name="W" unicode="W" horiz-adv-x="1847" 
d="M68 1575h204l314 -1262l313 1262h227l314 -1262l313 1262h205l-375 -1493h-254l-315 1296l-318 -1296h-254z" />
    <glyph glyph-name="X" unicode="X" horiz-adv-x="1189" 
d="M129 1575h217l371 -555l373 555h217l-480 -717l512 -776h-217l-420 635l-423 -635h-218l533 797z" />
    <glyph glyph-name="Y" unicode="Y" horiz-adv-x="1180" 
d="M-4 1575h217l414 -614l411 614h217l-528 -782v-711h-203v711z" />
    <glyph glyph-name="Z" unicode="Z" horiz-adv-x="1145" 
d="M115 1575h1173v-154l-944 -1169h967v-170h-1219v154l944 1169h-921v170z" />
    <glyph glyph-name="bracketleft" unicode="[" horiz-adv-x="960" 
d="M176 1638h424v-143h-240v-1540h240v-143h-424v1826z" />
    <glyph glyph-name="backslash" unicode="\" horiz-adv-x="1282" 
d="M170 1575l520 -1683h-170l-520 1683h170z" />
    <glyph glyph-name="bracketright" unicode="]" horiz-adv-x="960" 
d="M623 1638v-1826h-424v143h239v1540h-239v143h424z" />
    <glyph glyph-name="asciicircum" unicode="^" horiz-adv-x="1176" 
d="M956 1575l543 -557h-201l-440 395l-440 -395h-201l543 557h196z" />
    <glyph glyph-name="underscore" unicode="_" horiz-adv-x="1112" 
d="M1044 -258v-143h-1064v143h1064z" />
    <glyph glyph-name="grave" unicode="`" horiz-adv-x="1118" 
d="M367 1720l282 -374h-153l-326 374h197z" />
    <glyph glyph-name="a" unicode="a" horiz-adv-x="1075" 
d="M702 645q-223 0 -309 -51t-86 -174q0 -98 64.5 -155.5t175.5 -57.5q153 0 245.5 108.5t92.5 288.5v41h-183zM1069 721v-639h-184v170q-63 -102 -157 -150.5t-230 -48.5q-172 0 -273.5 96.5t-101.5 258.5q0 189 126.5 285t377.5 96h258v18q0 127 -83.5 196.5t-234.5 69.5
q-96 0 -187 -23t-175 -69v170q101 39 196 58.5t185 19.5q243 0 363 -126t120 -382z" />
    <glyph glyph-name="b" unicode="b" horiz-adv-x="1132" 
d="M997 641q0 203 -83.5 318.5t-229.5 115.5t-229.5 -115.5t-83.5 -318.5t83.5 -318.5t229.5 -115.5t229.5 115.5t83.5 318.5zM371 1032q58 100 146.5 148.5t211.5 48.5q204 0 331.5 -162t127.5 -426t-127.5 -426t-331.5 -162q-123 0 -211.5 48.5t-146.5 148.5v-168h-185
v1556h185v-606z" />
    <glyph glyph-name="c" unicode="c" horiz-adv-x="945" 
d="M999 1159v-172q-78 43 -156.5 64.5t-158.5 21.5q-179 0 -278 -113.5t-99 -318.5t99 -318.5t278 -113.5q80 0 158.5 21.5t156.5 64.5v-170q-77 -36 -159.5 -54t-175.5 -18q-253 0 -402 159t-149 429q0 274 150.5 431t412.5 157q85 0 166 -17.5t157 -52.5z" />
    <glyph glyph-name="d" unicode="d" horiz-adv-x="1132" 
d="M930 1032v606h184v-1556h-184v168q-58 -100 -146.5 -148.5t-212.5 -48.5q-203 0 -330.5 162t-127.5 426t127.5 426t330.5 162q124 0 212.5 -48.5t146.5 -148.5zM303 641q0 -203 83.5 -318.5t229.5 -115.5t230 115.5t84 318.5t-84 318.5t-230 115.5t-229.5 -115.5
t-83.5 -318.5z" />
    <glyph glyph-name="e" unicode="e" horiz-adv-x="1078" 
d="M1151 688v-90h-846q12 -190 114.5 -289.5t285.5 -99.5q106 0 205.5 26t197.5 78v-174q-99 -42 -203 -64t-211 -22q-268 0 -424.5 156t-156.5 422q0 275 148.5 436.5t400.5 161.5q226 0 357.5 -145.5t131.5 -395.5zM967 742q-2 151 -84.5 241t-218.5 90q-154 0 -246.5 -87
t-106.5 -245z" />
    <glyph glyph-name="f" unicode="f" horiz-adv-x="652" 
d="M760 1638v-153h-176q-99 0 -137.5 -40t-38.5 -144v-99h303v-143h-303v-977h-185v977h-176v143h176v78q0 187 87 272.5t276 85.5h174z" />
    <glyph glyph-name="g" unicode="g" horiz-adv-x="1132" 
d="M930 655q0 200 -82.5 310t-231.5 110q-148 0 -230.5 -110t-82.5 -310q0 -199 82.5 -309t230.5 -110q149 0 231.5 110t82.5 309zM1114 221q0 -286 -127 -425.5t-389 -139.5q-97 0 -183 14.5t-167 44.5v179q81 -44 160 -65t161 -21q181 0 271 94.5t90 285.5v91
q-57 -99 -146 -148t-213 -49q-206 0 -332 157t-126 416q0 260 126 417t332 157q124 0 213 -49t146 -148v170h184v-981z" />
    <glyph glyph-name="h" unicode="h" horiz-adv-x="1142" 
d="M1124 758v-676h-184v670q0 159 -62 238t-186 79q-149 0 -235 -95t-86 -259v-633h-185v1556h185v-610q66 101 155.5 151t206.5 50q193 0 292 -119.5t99 -351.5z" />
    <glyph glyph-name="i" unicode="i" horiz-adv-x="468" 
d="M193 1202h184v-1120h-184v1120zM193 1638h184v-233h-184v233z" />
    <glyph glyph-name="j" unicode="j" horiz-adv-x="577" 
d="M193 1202h184v-1140q0 -214 -81.5 -310t-262.5 -96h-70v156h49q105 0 143 48.5t38 201.5v1140zM193 1638h184v-233h-184v233z" />
    <glyph glyph-name="k" unicode="k" horiz-adv-x="1020" 
d="M186 1638h185v-919l549 483h235l-594 -524l619 -596h-240l-569 547v-547h-185v1556z" />
    <glyph glyph-name="l" unicode="l" horiz-adv-x="468" 
d="M193 1638h184v-1556h-184v1556z" />
    <glyph glyph-name="m" unicode="m" horiz-adv-x="1720" 
d="M1065 987q69 124 165 183t226 59q175 0 270 -122.5t95 -348.5v-676h-185v670q0 161 -57 239t-174 78q-143 0 -226 -95t-83 -259v-633h-185v670q0 162 -57 239.5t-176 77.5q-141 0 -224 -95.5t-83 -258.5v-633h-185v1120h185v-174q63 103 151 152t209 49q122 0 207.5 -62
t126.5 -180z" />
    <glyph glyph-name="n" unicode="n" horiz-adv-x="1142" 
d="M1124 758v-676h-184v670q0 159 -62 238t-186 79q-149 0 -235 -95t-86 -259v-633h-185v1120h185v-174q66 101 155.5 151t206.5 50q193 0 292 -119.5t99 -351.5z" />
    <glyph glyph-name="o" unicode="o" horiz-adv-x="1112" 
d="M627 1073q-148 0 -234 -115.5t-86 -316.5t85.5 -316.5t234.5 -115.5q147 0 233 116t86 316q0 199 -86 315.5t-233 116.5zM627 1229q240 0 377 -156t137 -432q0 -275 -137 -431.5t-377 -156.5q-241 0 -377.5 156.5t-136.5 431.5q0 276 136.5 432t377.5 156z" />
    <glyph glyph-name="p" unicode="p" horiz-adv-x="1132" 
d="M371 250v-594h-185v1546h185v-170q58 100 146.5 148.5t211.5 48.5q204 0 331.5 -162t127.5 -426t-127.5 -426t-331.5 -162q-123 0 -211.5 48.5t-146.5 148.5zM997 641q0 203 -83.5 318.5t-229.5 115.5t-229.5 -115.5t-83.5 -318.5t83.5 -318.5t229.5 -115.5t229.5 115.5
t83.5 318.5z" />
    <glyph glyph-name="q" unicode="q" horiz-adv-x="1132" 
d="M303 641q0 -203 83.5 -318.5t229.5 -115.5t230 115.5t84 318.5t-84 318.5t-230 115.5t-229.5 -115.5t-83.5 -318.5zM930 250q-58 -100 -146.5 -148.5t-212.5 -48.5q-203 0 -330.5 162t-127.5 426t127.5 426t330.5 162q124 0 212.5 -48.5t146.5 -148.5v170h184v-1546h-184
v594z" />
    <glyph glyph-name="r" unicode="r" horiz-adv-x="738" 
d="M842 1030q-31 18 -67.5 26.5t-80.5 8.5q-156 0 -239.5 -101.5t-83.5 -291.5v-590h-185v1120h185v-174q58 102 151 151.5t226 49.5q19 0 42 -2.5t51 -7.5z" />
    <glyph glyph-name="s" unicode="s" horiz-adv-x="914" 
d="M907 1169v-174q-78 40 -162 60t-174 20q-137 0 -205.5 -42t-68.5 -126q0 -64 49 -100.5t197 -69.5l63 -14q196 -42 278.5 -118.5t82.5 -213.5q0 -156 -123.5 -247t-339.5 -91q-90 0 -187.5 17.5t-205.5 52.5v190q102 -53 201 -79.5t196 -26.5q130 0 200 44.5t70 125.5
q0 75 -50.5 115t-221.5 77l-64 15q-171 36 -247 110.5t-76 204.5q0 158 112 244t318 86q102 0 192 -15t166 -45z" />
    <glyph glyph-name="t" unicode="t" horiz-adv-x="685" 
d="M375 1520v-318h379v-143h-379v-608q0 -137 37.5 -176t152.5 -39h189v-154h-189q-213 0 -294 79.5t-81 289.5v608h-135v143h135v318h185z" />
    <glyph glyph-name="u" unicode="u" horiz-adv-x="1142" 
d="M174 524v678h184v-671q0 -159 62 -238.5t186 -79.5q149 0 235.5 95t86.5 259v635h184v-1120h-184v172q-67 -102 -155.5 -151.5t-205.5 -49.5q-193 0 -293 120t-100 351z" />
    <glyph glyph-name="v" unicode="v" horiz-adv-x="1020" 
d="M61 1202h195l350 -940l350 940h195l-420 -1120h-250z" />
    <glyph glyph-name="w" unicode="w" horiz-adv-x="1520" 
d="M86 1202h184l230 -874l229 874h217l230 -874l229 874h184l-293 -1120h-217l-241 918l-242 -918h-217z" />
    <glyph glyph-name="x" unicode="x" horiz-adv-x="1014" 
d="M1124 1202l-405 -545l426 -575h-217l-326 440l-326 -440h-217l435 586l-398 534h217l297 -399l297 399h217z" />
    <glyph glyph-name="y" unicode="y" horiz-adv-x="1020" 
d="M659 -22q-78 -200 -152 -261t-198 -61h-147v154h108q76 0 118 36t93 170l33 84l-453 1102h195l350 -876l350 876h195z" />
    <glyph glyph-name="z" unicode="z" horiz-adv-x="910" 
d="M113 1202h874v-168l-692 -805h692v-147h-899v168l692 805h-667v147z" />
    <glyph glyph-name="braceleft" unicode="{" horiz-adv-x="1176" 
d="M1047 -108v-144h-62q-249 0 -333.5 74t-84.5 295v239q0 151 -54 209t-196 58h-61v143h61q143 0 196.5 57.5t53.5 206.5v240q0 221 84.5 294.5t333.5 73.5h62v-143h-68q-141 0 -184 -44t-43 -185v-248q0 -157 -45.5 -228t-155.5 -96q111 -27 156 -98t45 -227v-248
q0 -141 43 -185t184 -44h68z" />
    <glyph glyph-name="bar" unicode="|" horiz-adv-x="783" 
d="M430 1647v-2048h-170v2048h170z" />
    <glyph glyph-name="braceright" unicode="}" horiz-adv-x="1176" 
d="M256 -108h70q140 0 182.5 43t42.5 186v248q0 156 45 227t156 98q-111 25 -156 96t-45 228v248q0 142 -42.5 185.5t-182.5 43.5h-70v143h63q249 0 332.5 -73.5t83.5 -294.5v-240q0 -149 54 -206.5t196 -57.5h62v-143h-62q-142 0 -196 -58t-54 -209v-239q0 -221 -83.5 -295
t-332.5 -74h-63v144z" />
    <glyph glyph-name="asciitilde" unicode="~" horiz-adv-x="1496" 
d="M1499 899v-178q-105 -79 -194.5 -113t-186.5 -34q-110 0 -256 59q-11 4 -16 6q-7 3 -22 8q-155 62 -249 62q-88 0 -174 -38.5t-184 -121.5v178q105 79 194.5 113.5t186.5 34.5q110 0 257 -60l15 -6l22 -8q155 -62 249 -62q86 0 170.5 38t187.5 122z" />
    <glyph glyph-name="glyph561" unicode="&#x901;" 
d="M-125 1847l157 -160q-78 -201 -255 -234q-60 -11 -143 0q-55 8 -128 46q-56 29 -98 75q-102 110 -131 258q148 -219 369 -219q99 0 161 69q55 62 68 165zM-518 1842q0 54 38 92t92 38q55 0 93 -37.5t38 -92.5q0 -54 -38.5 -92t-92.5 -38t-92 38t-38 92z" />
    <glyph glyph-name="glyph562" unicode="&#x902;" 
d="M-184 1809l-139 -137l-138 137l138 139zM-323 1247z" />
    <glyph glyph-name="glyph556" unicode="&#x903;" horiz-adv-x="640" 
d="M492 1055l-145 -145l-145 145l145 145zM493 328l-146 -146l-145 146l145 145z" />
    <glyph glyph-name="glyph92" unicode="&#x905;" horiz-adv-x="1494" 
d="M1109 1296h-145l-137 138h671l139 -138h-345v-1296l-183 185v505q-59 -38 -107 -47q-32 -6 -116 -6q6 -39 6 -57q0 -123 -86 -212t-209 -89q-187 0 -295 169q-68 106 -126 338l40 15q39 -145 114 -246q97 -131 222 -131q94 0 155.5 58t61.5 151q0 57 -43 127.5t-94 87.5
q-83 -45 -178 -45l-145 145q118 0 259 66q171 80 171 174q0 147 -135 147q-171 0 -323 -102l-129 129q119 78 292 78q131 0 249 -75q134 -85 134 -206q0 -86 -42 -164q-44 -81 -116 -123q72 -86 258 -86q67 0 124.5 64t57.5 131v315z" />
    <glyph glyph-name="glyph93" unicode="&#x906;" horiz-adv-x="2103" 
d="M1292 1296v-1296l-178 178v512q-57 -36 -109 -46q-36 -7 -119 -7q6 -39 6 -57q0 -123 -86 -212t-209 -89q-187 0 -295 169q-68 106 -126 338l40 15q39 -145 114 -246q97 -131 222 -131q95 0 156 58t61 152q0 57 -42.5 126.5t-94.5 87.5q-83 -45 -178 -45l-145 145
q144 7 261 66q169 85 169 174q0 147 -135 147q-170 0 -323 -102l-129 129q119 78 304 78q123 0 240 -77q131 -86 131 -204q0 -86 -42 -164q-44 -81 -116 -123q72 -86 258 -86q66 0 126.5 64t60.5 131v315h-144l-138 138l1273 -1l138 -137h-340v-1296l-184 187v1109h-427z
" />
    <glyph glyph-name="glyph94" unicode="&#x907;" horiz-adv-x="1214" 
d="M0 1296l-138 138h1359l138 -138h-476v-350l-350 2q-114 1 -162 -29q-64 -39 -64 -145q0 -36 34 -71t69 -35q53 0 156.5 27.5t156.5 27.5q283 0 283 -336q0 -65 -82 -165q-77 -96 -142 -124l230 -229l-60 -62l-233 238q-72 -45 -143 -45q-115 0 -195 55q-92 62 -92 172
q0 61 37 100.5t98 39.5q73 0 147 -39q78 -40 113 -101q73 30 191 148q24 24 24 100q0 113 -100 113q-47 0 -136.5 -25.5t-136.5 -25.5q-138 0 -224 75q-69 60 -136 203q-14 30 -14 80q0 105 45 147q43 39 149 39h367v215h-713z" />
    <glyph glyph-name="glyph95" unicode="&#x908;" horiz-adv-x="1207" 
d="M0 1296l-138 138h889q-230 271 -230 376q0 253 276 253q69 0 142 -41.5t104 -101.5v-72q-18 37 -101 66q-72 24 -123 24q-161 0 -161 -172q0 -84 46 -175l93 -157h409l138 -138h-468l1 -348h-349q-111 0 -160 -28q-66 -39 -66 -146q0 -36 33.5 -71t69.5 -35
q53 0 156.5 27.5t156.5 27.5q283 0 283 -336q0 -65 -82 -165q-77 -96 -142 -124l230 -229l-60 -62l-233 238q-72 -45 -143 -45q-115 0 -195 55q-92 62 -92 172q0 61 37.5 100.5t97.5 39.5q73 0 147 -39q78 -40 113 -101q82 34 191 148q24 25 24 100q0 113 -100 113
q-47 0 -136.5 -25.5t-136.5 -25.5q-137 0 -225 77q-72 63 -135 201q-14 31 -14 80q0 105 44 145.5t150 40.5h367v215h-708z" />
    <glyph glyph-name="glyph96" unicode="&#x909;" horiz-adv-x="1420" 
d="M0 1296l-140 138h1564l137 -137l-475 -1q121 -152 118 -350q-1 -88 -60.5 -159t-145.5 -95q101 -61 154 -143q69 -106 69 -205q0 -119 -66 -209q-96 -132 -270 -133q-122 -1 -287 111q-81 55 -194 231q-33 52 -72 123l-37 68q-7 11 -27 47l-118 219l43 30
q49 -124 211 -342q64 -86 73 -100q47 -57 88 -88q151 -117 287 -117q206 35 205 275q-1 130 -117 211q-128 -35 -205 -35l-190 196q29 -8 149 -8q139 0 254 39q48 16 90 62q62 67 74 135q0 100 -114 237h-998z" />
    <glyph glyph-name="glyph97" unicode="&#x90a;" horiz-adv-x="1901" 
d="M1036 677l-5 16q104 92 227 92q185 0 312 -129.5t127 -314.5q0 -206 -181 -469l-154 153q66 53 137 184.5t71 211.5q0 208 -218 208q-86 0 -178 -47q-14 -8 -32 -16q79 -113 79 -222q0 -147 -94.5 -244.5t-241.5 -97.5q-170 0 -323 146q-126 120 -238 323l-174 330l43 30
q49 -123 211 -342q105 -141 189 -208q123 -97 259 -97q99 0 157 93q48 77 48 182q0 139 -117 221q-93 -35 -179 -35h-26l-190 186q30 -8 149 -8q250 0 344 101q74 80 74 135q0 100 -114 237h-998l-138 138h2044l139 -137l-959 -1q118 -148 118 -350q0 -88 -60 -158.5
t-146 -85.5z" />
    <glyph glyph-name="glyph98" unicode="&#x90b;" horiz-adv-x="2084" 
d="M1354 150q-113 92 -113 183q0 276 311 352l-71 135q-154 -121 -273 -124q-84 -2 -139 11v-707l-155 158v465l-418 -312l-127 129l516 351q-34 63 -115 124q-87 66 -151 66q-88 0 -178 -62q-18 -12 -156 -115l-137 138q254 172 411 172q106 0 214.5 -73.5t140.5 -172.5
v428h-914l-138 138h2223l137 -138h-1153v-468q39 -12 88 -12q102 0 144 22q37 19 68 46l30 27q-63 55 -63 141q0 53 45 97q41 41 99 41q68 0 108 -39q52 -48 52 -111q0 -90 -68 -154l190 -321q-151 0 -251 -43q-169 -73 -169 -211t258 -136q150 2 284 103l132 -149l-96 -48
q-57 -27 -138 -41q-118 -22 -228 7.5t-200 102.5z" />
    <glyph glyph-name="glyph99" unicode="&#x90c;" horiz-adv-x="1626" 
d="M1087 1010v286h-1087l-138 138h1765l137 -137l-509 -1v-315q72 -25 122 -109q41 -68 41 -155q0 -109 -109 -236q-8 -9 -202 -202q-109 -108 -109 -168q0 -51 36 -81t88 -30q84 0 183 140q47 66 123 214l92 -129q-201 -297 -389 -297q-98 0 -162 81q-58 75 -58 176
q0 110 105 221l194 193q104 107 104 193q0 132 -116 132q-106 0 -258 -140q-83 -76 -172 -246l-144 144l82 92q-41 117 -174 117q-80 0 -139 -39q-74 -49 -74 -150q0 -91 53 -183q36 -62 129 -144l165 -139l-46 -46q-51 34 -221 170q-248 214 -248 435q0 100 77 170
q74 69 175 69q108 0 202.5 -62t137.5 -161q24 27 98 98q50 44 125 74q39 19 121 27z" />
    <glyph glyph-name="glyph100" unicode="&#x90d;" horiz-adv-x="1147" 
d="M634 555q13 10 97 88q44 49 44 215v438h-465v-651q0 -141 84 -201l516 -366l122 -90q62 -60 62 -133q0 -58 -64 -129q-28 -41 -79 -64l-101 96q48 11 85 52.5t36 89.5q-1 25 -27 55q-6 7 -59 45l-511 367q-35 23 -129 90q-51 38 -72 90q-25 61 -25 164v585h-148l-138 138
h1284l137 -137l-342 -1v-471q-1 -105 -12 -144q-19 -68 -85 -124l-159 -135l-95 96q11 10 44 37zM940 1868l123 -127q-80 -215 -295 -215q-130 0 -241 101q-130 120 -143 338q167 -285 332 -285q103 0 151 44q59 54 73 144z" />
    <glyph glyph-name="glyph101" unicode="&#x90e;" horiz-adv-x="1142" 
d="M634 555q13 10 97 88q44 49 44 215v438h-465v-651q0 -141 84 -201l516 -366l122 -90q62 -60 62 -133q0 -58 -64 -129q-28 -41 -79 -64l-101 96q48 11 85 52.5t36 89.5q-1 25 -27 55q-6 7 -59 45l-511 367q-35 23 -129 90q-51 38 -72 90q-25 61 -25 164v585h-148l-138 138
h1284l137 -137l-342 -1v-471q-1 -105 -12 -144q-19 -68 -85 -124l-159 -135l-95 96q11 10 44 37zM863 1435v123q-1 173 -100 221q-58 28 -252 29l-202 1q-139 1 -192 79q-23 33 -68 192h-17q-2 -197 5 -249q12 -97 111 -132q74 -26 239 -26q26 0 112 1q72 1 118 0
q90 -1 152.5 -68t72.5 -171h21z" />
    <glyph glyph-name="glyph102" unicode="&#x90f;" horiz-adv-x="1141" 
d="M634 555q13 10 97 88q44 49 44 215v438h-465v-651q0 -141 84 -201l516 -366l122 -90q62 -60 62 -133q0 -58 -64 -129q-28 -41 -79 -64l-101 96q48 11 85 52.5t36 89.5q-1 25 -27 55q-6 7 -59 45l-511 367q-35 23 -129 90q-51 38 -72 90q-25 61 -25 164v585h-148l-138 138
h1284l137 -137l-342 -1v-471q-1 -105 -12 -144q-19 -68 -85 -124l-159 -135l-95 96q11 10 44 37z" />
    <glyph glyph-name="glyph103" unicode="&#x910;" horiz-adv-x="1142" 
d="M634 555q13 10 97 88q44 49 44 215v438h-465v-651q0 -141 84 -201l516 -366l122 -90q62 -60 62 -133q0 -58 -64 -129q-28 -41 -79 -64l-101 96q48 11 85 52.5t36 89.5q-1 25 -27 55q-6 7 -59 45l-511 367q-35 23 -129 90q-51 38 -72 90q-25 61 -25 164v585h-148l-138 138
h1284l137 -137l-342 -1v-471q-1 -105 -12 -144q-19 -68 -85 -124l-159 -135l-95 96q11 10 44 37zM882 1434q-79 122 -127 186q-199 267 -230 301q-177 196 -324 196q-106 0 -247 -42l182 -185q95 14 138 14q139 0 316 -172q142 -138 232 -298h60z" />
    <glyph glyph-name="glyph104" unicode="&#x911;" horiz-adv-x="2104" 
d="M1292 1296v-1296l-178 178v512q-57 -36 -109 -46q-36 -7 -119 -7q6 -39 6 -57q0 -123 -86 -212t-209 -89q-187 0 -295 169q-68 106 -126 338l40 15q39 -145 114 -246q97 -131 222 -131q95 0 156 58t61 152q0 57 -42.5 126.5t-94.5 87.5q-83 -45 -178 -45l-145 145
q144 7 261 66q169 85 169 174q0 147 -135 147q-170 0 -323 -102l-129 129q119 78 304 78q123 0 240 -77q131 -86 131 -204q0 -86 -42 -164q-44 -81 -116 -123q72 -86 258 -86q66 0 126.5 64t60.5 131v315h-144l-138 138l1273 -1l138 -137h-340v-1296l-184 187v1109h-427z
M1704 1868l123 -127q-80 -215 -295 -215q-130 0 -241 101q-130 120 -143 338q167 -285 332 -285q103 0 151 44q59 54 73 144z" />
    <glyph glyph-name="glyph105" unicode="&#x912;" horiz-adv-x="2104" 
d="M1292 1296v-1296l-178 178v512q-57 -36 -109 -46q-36 -7 -119 -7q6 -39 6 -57q0 -123 -86 -212t-209 -89q-187 0 -295 169q-68 106 -126 338l40 15q39 -145 114 -246q97 -131 222 -131q95 0 156 58t61 152q0 57 -42.5 126.5t-94.5 87.5q-83 -45 -178 -45l-145 145
q144 7 261 66q169 85 169 174q0 147 -135 147q-170 0 -323 -102l-129 129q119 78 304 78q123 0 240 -77q131 -86 131 -204q0 -86 -42 -164q-44 -81 -116 -123q72 -86 258 -86q66 0 126.5 64t60.5 131v315h-144l-138 138l1273 -1l138 -137h-340v-1296l-184 187v1109h-427z
M1814 1435v123q-1 173 -100 221q-58 28 -252 29l-202 1q-139 1 -192 79q-23 33 -68 192h-17q-2 -197 5 -249q12 -97 111 -132q74 -26 239 -26q26 0 112 1q72 1 118 0q90 -1 152.5 -68t72.5 -171h21z" />
    <glyph glyph-name="glyph106" unicode="&#x913;" horiz-adv-x="2100" 
d="M1292 1296v-1296l-178 178v512q-57 -36 -109 -46q-36 -7 -119 -7q6 -39 6 -57q0 -123 -86 -212t-209 -89q-187 0 -295 169q-68 106 -126 338l40 15q39 -145 114 -246q97 -131 222 -131q95 0 156 58t61 152q0 57 -42.5 126.5t-94.5 87.5q-83 -45 -178 -45l-145 145
q144 7 261 66q169 85 169 174q0 147 -135 147q-170 0 -323 -102l-129 129q119 78 304 78q123 0 240 -77q131 -86 131 -204q0 -86 -42 -164q-44 -81 -116 -123q72 -86 258 -86q66 0 126.5 64t60.5 131v315h-144l-138 138l1273 -1l138 -137h-340v-1296l-184 187v1109h-427z
M1822 1434q-79 122 -127 186q-199 267 -230 301q-177 196 -324 196q-106 0 -247 -42l182 -185q95 14 138 14q139 0 316 -172q142 -138 232 -298h60z" />
    <glyph glyph-name="glyph107" unicode="&#x914;" horiz-adv-x="2100" 
d="M1292 1296v-1296l-178 178v512q-57 -36 -109 -46q-36 -7 -119 -7q6 -39 6 -57q0 -123 -86 -212t-209 -89q-187 0 -295 169q-68 106 -126 338l40 15q39 -145 114 -246q97 -131 222 -131q95 0 156 58t61 152q0 57 -42.5 126.5t-94.5 87.5q-83 -45 -178 -45l-145 145
q144 7 261 66q169 85 169 174q0 147 -135 147q-170 0 -323 -102l-129 129q119 78 304 78q123 0 240 -77q131 -86 131 -204q0 -86 -42 -164q-44 -81 -116 -123q72 -86 258 -86q66 0 126.5 64t60.5 131v315h-144l-138 138l1273 -1l138 -137h-340v-1296l-184 187v1109h-427z
M1141 2117q-106 0 -247 -42l182 -185q95 14 138 14q139 0 316 -172q142 -138 232 -298h80v32q0 128 -22 261l-46 260q-39 223 -181 347q-31 27 -92 45q-82 24 -97 31l-2 -229q101 -34 137 -54q66 -36 107 -100q66 -103 112 -272q43 -157 48 -292l-168 244q-122 173 -235 277
q-145 133 -262 133z" />
    <glyph glyph-name="glyph128" unicode="&#x915;" horiz-adv-x="1735" 
d="M0 1296l-137 138h1869l137 -138h-925v-385q30 27 44 37q34 25 67 34q68 19 127 19q153 0 253 -106.5t100 -261.5q0 -124 -88 -234q-66 -85 -207 -142l-73 142q142 66 190 104q106 83 106 182q0 89 -83 161q-53 45 -165 34q-53 -5 -129.5 -69.5t-141.5 -157.5v-653
l-166 168v291q-43 -48 -127 -82.5t-151 -34.5q-145 0 -247.5 99t-102.5 244q0 148 97 244.5t245 96.5q188 0 286 -160v-61q-88 78 -202 78q-146 0 -226 -57q-110 -78 -120 -208q-6 -82 45 -132q42 -40 116 -40q106 0 243 108q144 114 144 218v524h-778z" />
    <glyph glyph-name="glyph129" unicode="&#x916;" horiz-adv-x="1659" 
d="M1044 930q-110 0 -177 -68.5t-67 -179.5q0 -117 172 -117q106 0 199 75q98 79 98 183q0 41 -95 77q-78 30 -130 30zM0 1296l-137 138h1804l137 -138h-344v-1297l-162 159v13q-47 -49 -136 -78q-77 -25 -145 -25q-142 0 -266 52q-173 73 -395 308q-206 218 -206 377
q0 30 24 73q22 39 53 47.5t60 5.5q13 -1 32.5 -7t25.5 -6q38 0 64 77q20 60 20 111q0 121 -93 190h-336zM561 1030q0 -185 -45 -289l-22 -46q-17 -32 -53 -63.5t-58 -37.5q40 -76 151 -186q96 -94 178 -152q126 -89 293 -87q70 1 157 47t125 103v224q-160 -107 -272 -107
q-132 0 -225.5 95.5t-93.5 228.5q0 293 299 293q121 0 297 -119v362h-800q69 -148 69 -266z" />
    <glyph glyph-name="glyph130" unicode="&#x917;" horiz-adv-x="1320" 
d="M393 427l-207 270q-32 42 -39 82v47q10 29 57 29h185v441h-389l-138 138h1457l140 -138h-340v-1296l-187 188v1108h-394v-806q2 -14 2 -36q0 -71 -49 -86q-10 -3 -15 -3q-19 0 -42 22zM1021 196z" />
    <glyph glyph-name="glyph131" unicode="&#x918;" horiz-adv-x="1384" 
d="M385 1296q-31 -41 -34 -110q-6 -123 111 -163q67 -23 218 -22l151 -149q-176 0 -298 -55q-163 -73 -163 -230q0 -95 76 -128q48 -21 158 -21q142 0 416 287v591h-635zM1020 485q-224 -213 -416 -213q-138 0 -241 116q-99 111 -99 251q0 186 131 295q-100 20 -168 93
q-72 76 -72 175q0 45 17 94h-172l-138 138h1522l140 -138h-341v-1296l-163 163v322z" />
    <glyph glyph-name="glyph132" unicode="&#x919;" horiz-adv-x="1333" 
d="M1024 694l109 109l108 -109l-108 -108zM0 1296l-138 138h1476l140 -138h-524v-465h-417q-85 0 -123 -23q-49 -31 -49 -114q0 -31 42 -50q33 -15 69 -15q31 0 91.5 11t91.5 11q165 0 268 -91q107 -96 107 -259q0 -142 -96 -224q-90 -78 -234 -78q-184 0 -386 197
q-161 158 -267 363l41 41q56 -151 207 -275q159 -132 311 -132q90 0 181 52q104 59 104 142q0 50 -28 84.5t-76 34.5q-41 0 -128 -27.5t-133 -27.5q-74 0 -112 59l-176 272q-33 51 -33 111q0 123 223 123h356v280h-788z" />
    <glyph glyph-name="glyph133" unicode="&#x91a;" horiz-adv-x="1370" 
d="M0 1296l-138 138h1512l140 -138h-345v-1294l-162 164v1130h-1007zM0 1055h779l160 -160h-199q-160 0 -195 -29q-121 -100 -121 -180q0 -67 40 -114q42 -50 107 -50q115 0 249 94q123 86 187 195v-215q-138 -188 -357 -188q-22 0 -44 2q-90 8 -174 103.5t-84 186.5
q0 131 37 201h-233z" />
    <glyph glyph-name="glyph134" unicode="&#x91b;" horiz-adv-x="1645" 
d="M1043 717q-1 -72 44 -143q50 -80 118 -80q66 8 106 114q33 87 33 164q-18 166 -110 186q-67 0 -154 -133q-36 -55 -37 -108zM1158 1083v213h-1158l-137 138h1790l137 -138h-495v-219q152 -145 152 -383q0 -184 -99 -350q176 -149 176 -358q0 -95 -46 -186
q-47 -95 -124 -146l-126 125q155 143 155 377q0 56 -17 83q-7 11 -57 60q-75 -117 -242 -207t-307 -90q-182 0 -307 83q-145 96 -145 271q0 125 98 211q-117 0 -189 83q-69 79 -69 198q0 88 79 159q76 70 165 70h197l164 -162q-29 0 -88 2.5t-89 2.5q-157 0 -219 -39
q-92 -58 -92 -121q0 -135 141 -135q124 0 267 49l160 -160q-190 0 -335 -84q-53 -31 -53 -123q0 -209 272 -209q99 0 246 120q120 98 195 204q-101 47 -187 141q-98 107 -98 203q0 125 79 218q83 97 206 99z" />
    <glyph glyph-name="glyph135" unicode="&#x91c;" horiz-adv-x="1443" 
d="M0 1296l-138 138h1586l140 -138h-343v-1294l-166 167v679h-295q108 -119 108 -283q0 -106 -69 -184q-71 -82 -176 -82q-309 0 -500 659h61q0 -18 19 -57q10 -18 27 -56q55 -134 94 -192q61 -91 155 -141q43 -23 94 -23q43 0 82 40.5t39 84.5q0 99 -68 221
q-67 119 -151 175h580v286h-1079z" />
    <glyph glyph-name="glyph136" unicode="&#x91d;" horiz-adv-x="1581" 
d="M1219 957v339h-420v-295h-312q-212 0 -212 -157q0 -29 37.5 -62.5t66.5 -33.5q38 0 110.5 23.5t110.5 23.5q92 0 182 -40l86 -40l153 -1q144 -1 197 113q1 2 1 130zM621 172l142 -256l-84 -86l-140 305q-29 -8 -156 -8q-90 0 -158 60q-71 62 -71 151q0 68 46 109t115 41
q98 0 152 -48q37 -34 88 -135q133 40 189 75q101 63 101 165q0 76 -39 106q-34 25 -112 25q-32 0 -93 -22.5t-93 -22.5q-106 0 -154 20q-70 29 -138.5 127.5t-68.5 173.5q0 171 324 171q39 0 100.5 -2.5t77.5 -2.5v178h-649l-138 138h1718l140 -138h-341v-1296l-160 160v466
q-49 -27 -147 -31q30 1 -163 1v-25q4 -235 -161 -342z" />
    <glyph glyph-name="glyph137" unicode="&#x91e;" horiz-adv-x="1475" 
d="M1275 1296v-1294l-152 150l-1 631q-16 -25 -36 -33q-27 -11 -30 -13q-28 -25 -96 -25q-11 0 -23 1q5 -53 5 -124q0 -124 -69 -216q-77 -101 -197 -101q-134 0 -298 165q-79 80 -227 279l39 36q127 -153 187 -207q124 -110 241 -110q104 0 166 80q56 72 56 206
q0 87 -72 190q-79 114 -192 114q-107 0 -206 -114l-99 95q144 144 264 144q127 0 231 -105q58 -58 78 -85q38 -47 60 -107q29 -8 52 -8q4 0 35 -3q21 -1 35 2q19 4 36 18q53 47 53 79v355h-1115l-137 138h1612l137 -138h-337z" />
    <glyph glyph-name="glyph138" unicode="&#x91f;" horiz-adv-x="1274" 
d="M775 1296h-775l-138 138h1419l138 -138h-468v-503h-240q-193 0 -235 -7q-147 -24 -205 -138q-44 -87 -36 -180q10 -112 93 -182q101 -86 213 -112q60 -14 94 -14q222 0 439 147l146 -147q-148 -110 -394 -152q-47 -8 -80 -8q-173 0 -291 57q-150 72 -219 175
q-40 59 -65 147q-23 81 -23 138q1 115 13 188q24 140 163 207q77 37 161 49q41 0 142 10h148v325z" />
    <glyph glyph-name="glyph139" unicode="&#x920;" horiz-adv-x="1347" 
d="M1074 465q0 141 -116 230q-107 82 -252 82q-143 0 -251 -83q-118 -91 -118 -229q0 -139 118 -229q109 -83 251 -83q145 0 252 82q116 89 116 230zM599 1296h-593l-138 138h1482l137 -138h-747v-424q26 -1 109 -41q299 -145 299 -395q0 -208 -145 -326
q-135 -110 -347 -110t-359 146t-147 358q0 206 215 313q47 8 133 41q101 66 101 131v307z" />
    <glyph glyph-name="glyph140" unicode="&#x921;" horiz-adv-x="1283" 
d="M881 1296h-881l-137 138h1421l139 -138h-393v-436l-468 2q-189 1 -189 -90q0 -54 30 -92q32 -41 85 -41q42 0 125 13.5t125 13.5q144 0 247 -122q99 -116 99 -263q0 -117 -117 -203q-107 -79 -229 -79q-227 0 -430 206q-137 139 -285 403l61 35q96 -182 233 -313
q173 -166 338 -166q109 0 197 71q95 75 95 181q0 44 -30 75t-73 31q-45 0 -128.5 -34.5t-127.5 -34.5q-114 0 -201 118q-27 35 -120 215q-37 71 -37 115q0 85 91 113q51 16 161 16h399v266z" />
    <glyph glyph-name="glyph141" unicode="&#x922;" horiz-adv-x="1297" 
d="M686 178q133 0 216 49q101 59 101 183q0 64 -42 105.5t-107 41.5q-205 0 -205 -253q0 -53 37 -126zM780 1296h-780l-137 138h1434l140 -138h-485v-424q-28 0 -100 1q-66 1 -100 1q-486 0 -486 -284q0 -147 96 -268q103 -129 246 -129q-58 141 -58 286q0 94 52 169
q59 83 149 83q160 0 258 -154q86 -134 86 -303q0 -116 -105 -198q-97 -76 -216 -76q-234 0 -432 221q-193 216 -193 453q0 108 59 202q65 104 202 138q81 20 253 20q59 0 117 -8v270z" />
    <glyph glyph-name="glyph142" unicode="&#x923;" horiz-adv-x="1434" 
d="M1574 1297h-342v-1297l-177 178v1119h-349v-564q0 -129 1 -105q-2 -46 -24 -81q-48 -78 -156 -88q-55 0 -120 43q-85 56 -115 86q-142 138 -142 270v439h-150l-137 137h1574zM568 905v392h-276v-482q0 -144 43 -170l55 -37q31 -20 51 -20q28 3 76 25q48 45 51 83v209z
M637 196z" />
    <glyph glyph-name="glyph143" unicode="&#x924;" horiz-adv-x="1242" 
d="M0 1296l-137 138h1387l137 -138h-347v-1296l-166 168v713h-285q-190 0 -260 -86q-47 -57 -49 -179q-2 -105 75 -212l257 -359l-35 -39l-277 346q-73 91 -107 187q-42 118 -42 184q0 49 6 88q16 102 103 164q82 59 188 59h426v262h-874z" />
    <glyph glyph-name="glyph144" unicode="&#x925;" horiz-adv-x="1361" 
d="M997 1296h-219l-137 138h724l140 -138h-342v-1296l-166 169v353q-57 -65 -155 -102q-85 -33 -165 -33q-175 0 -325 147q-128 126 -192 281q118 0 251 70q154 81 154 190q0 256 -161 256q-66 0 -109 -38t-43 -103t45.5 -114.5t110.5 -49.5v-45q-118 0 -189 79
q-67 75 -67 195q0 172 194 172q126 0 239 -147q107 -139 105 -268q-2 -109 -125 -208q-110 -89 -225 -108q44 -86 131 -133q84 -45 184 -41q95 4 159 44q53 33 130 124q53 62 53 184v422z" />
    <glyph glyph-name="glyph145" unicode="&#x926;" horiz-adv-x="1191" 
d="M10 1301l-138 138h1325l139 -138h-445v-377h-358q-218 0 -264 -166q-13 -47 -13 -72q0 -15 6 -57q11 -77 71 -137t136 -62q74 -2 131 29q-20 28 -20 116q8 44 43 72q47 38 98 39q68 1 134 -52q61 -49 61 -122q0 -13 -2 -25q-5 -34 -10 -49q-8 -21 -31 -59
q-14 -23 -58 -55l178 -267l-76 -77l-194 301q-51 -11 -94 -11q-35 0 -68 4q-157 37 -278 191q-142 180 -133 346q6 107 72 183q72 81 176 81h331v226h-719z" />
    <glyph glyph-name="glyph146" unicode="&#x927;" horiz-adv-x="1338" 
d="M536 1238q0 41 -39 79q-32 31 -103 31q-63 0 -96 -30q-45 -41 -45 -103q12 -98 154 -95q63 2 96 33.5t33 84.5zM653 382q127 56 224 168q91 105 91 213v533h-192l-137 138h706l137 -138h-346v-1296l-168 169v230q-118 -98 -181 -129q-91 -45 -218 -45q-130 0 -213 95
q-80 92 -80 223q0 213 153 311q-114 49 -191 134q-90 99 -87 208q2 87 59 159q50 63 131 72q22 2 42 2q104 0 158 -61q51 -59 46 -162q-3 -69 -64.5 -109t-121.5 -40q-87 0 -125 10q7 -13 72 -79q75 -79 146 -87q30 11 69 18q6 1 111 1l138 -140q-20 0 -61 1t-61 1
q-191 0 -287 -100q-42 -44 -49 -102q-9 -78 45 -145q58 -71 127 -70q72 -7 127 17z" />
    <glyph glyph-name="glyph147" unicode="&#x928;" horiz-adv-x="1223" 
d="M221 689q-70 88 -70 149q0 105 81 116h633v342h-865l-137 138h1365l137 -138h-340v-1296l-160 158v639h-421v-224q-6 -57 -34 -70q-44 4 -71 38z" />
    <glyph glyph-name="glyph183" unicode="&#x929;" horiz-adv-x="1228" 
d="M221 689q-70 88 -70 149q0 105 81 116h633v342h-865l-137 138h1365l137 -138h-340v-1296l-160 158v639h-421v-224q-6 -57 -34 -70q-44 4 -71 38zM441 221l-113 -112l-113 112l113 113z" />
    <glyph glyph-name="glyph148" unicode="&#x92a;" horiz-adv-x="1141" 
d="M0 1296l-137 138h1279l139 -138h-339v-1296l-172 173v413q-82 -49 -244 -49q-159 16 -268 144q-108 125 -108 286v329h-150zM301 881q0 -86 47 -156q54 -80 135 -80q87 0 152 48q22 14 80 70q23 26 55 89v444h-469v-415z" />
    <glyph glyph-name="glyph149" unicode="&#x92b;" horiz-adv-x="1755" 
d="M298 881q0 -86 47 -156q54 -80 135 -80q71 0 155 62q81 59 112 127v462h-449v-415zM898 0l-151 154v432q-82 -49 -224 -49t-266 144q-110 127 -110 248v367h-147l-138 138h1895l138 -138h-993v-399q104 92 215 92q186 0 312.5 -129t126.5 -315q0 -164 -140 -367l-152 153
q24 19 80 76q85 110 85 246q0 86 -68 136q-60 45 -149 45q-157 0 -315 -146z" />
    <glyph glyph-name="glyph150" unicode="&#x92c;" horiz-adv-x="1278" 
d="M1417 1296h-337v-1296l-158 160l-2 336q0 106 2 111q-178 -217 -411 -212q-129 3 -232 90q-135 114 -129 287q7 188 169 277q88 48 163 48q125 0 162 -17q126 -57 211 -162l-39 -31q-112 71 -227 76q-64 3 -119 -15l241 -346q124 78 211 234v460h-922l-137 138h1417z
M672 570l-257 360q-76 -28 -129 -93q-57 -69 -57 -147q0 -89 66 -138q76 -56 163 -54q119 3 214 72zM714 166z" />
    <glyph glyph-name="glyph151" unicode="&#x92d;" horiz-adv-x="1288" 
d="M567 588q-7 -62 -40 -187q-8 -30 -16 -41q-12 -20 -35 -24q-61 0 -94 43l-184 237q-39 50 -39 80q2 6 4 23q18 33 96 33h152v235q-106 0 -166 17q-226 64 -226 270q0 111 82 160q33 20 66 20q79 0 131 -35q207 -139 251 -376q25 -135 25 -291h332v544h-193l-140 138h714
l139 -138h-340v-1296l-180 178v410h-339zM210 1065q51 -29 102 -29q64 0 99 23l-1 67q0 97 -49 152q-78 88 -149 88q-48 0 -77.5 -35t-29.5 -84q0 -123 105 -182z" />
    <glyph glyph-name="glyph152" unicode="&#x92e;" horiz-adv-x="1356" 
d="M527 336q-8 -6 -61 -6q-23 0 -225 239l-61 68q-31 36 -31 71q0 68 87 68q53 0 148 -2v522h-384l-137 138h1499l137 -138h-345v-1296l-183 183v419h-426q0 -114 2 -202q1 -48 -20 -64zM971 1296h-426v-522h426v522z" />
    <glyph glyph-name="glyph153" unicode="&#x92f;" horiz-adv-x="1260" 
d="M0 1296l-137 138h1397l139 -138h-341v-1296l-163 165v363q-121 -139 -310 -139q-233 0 -356 178q-80 116 -80 264q90 0 161 46q79 51 93 135q6 20 6 69q0 146 -110 215h-299zM454 805q-57 -60 -102 -84q-32 -17 -92 -33q47 -147 200 -192q56 -11 72 -11q190 0 313 234
q46 88 46 201v376h-410q76 -100 76 -241t-103 -250z" />
    <glyph glyph-name="glyph154" unicode="&#x930;" horiz-adv-x="986" 
d="M435 1301h-435l-138 138h1125l139 -138h-503q39 -163 39 -248q-1 -207 -139 -386q-27 -35 -106 -110l68 -96q10 -14 18 -29q15 -14 57 -61q22 -25 90 -94q151 -146 374 -301l-40 -46q-196 125 -401 302q-36 31 -215 227q-215 235 -215 358q14 107 121 107h170
q65 77 66 163q1 96 -75 214z" />
    <glyph glyph-name="glyph190" unicode="&#x931;" horiz-adv-x="986" 
d="M435 1301h-435l-138 138h1125l139 -138h-503q39 -163 39 -248q-1 -207 -139 -386q-27 -35 -106 -110l68 -96q10 -14 18 -29q15 -14 57 -61q22 -25 90 -94q151 -146 374 -301l-40 -46q-196 125 -401 302q-36 31 -215 227q-215 235 -215 358q14 107 121 107h170
q65 77 66 163q1 96 -75 214zM613 -3l-113 -112l-113 112l113 113z" />
    <glyph glyph-name="glyph155" unicode="&#x932;" horiz-adv-x="1526" 
d="M1157 169v721q-22 3 -44 3q-155 0 -240 -133q-54 -86 -115 -207l-134 129l82 92q-50 68 -70 84q-41 33 -104 33q-213 0 -213 -190q0 -25 4 -54q4 -32 35 -90q43 -80 60 -108q39 -62 77 -97l278 -277l-43 -42l-331 297q-249 215 -249 441q0 114 70 188.5t183 74.5
q108 0 203 -62q50 -33 137 -161q55 70 163 115q99 42 189 42q36 0 62 -8v336h-1157l-137 138h1667l140 -138h-345v-1296z" />
    <glyph glyph-name="glyph156" unicode="&#x933;" horiz-adv-x="1442" 
 />
    <glyph glyph-name="glyph192" unicode="&#x934;" horiz-adv-x="1442" 
 />
    <glyph glyph-name="glyph157" unicode="&#x935;" horiz-adv-x="1237" 
d="M0 1296l-136 138h1375l135 -138h-337v-1296l-178 178v359q-75 -50 -172 -88q-111 -43 -186 -39q-152 8 -263 147q-88 111 -88 262q17 78 58 125q159 150 352 143q192 -6 299 -184v393h-859zM838 858q-32 68 -198 68q-178 0 -316 -140q-67 -68 -67 -139q0 -94 153 -94
q192 0 349 162q79 81 79 143z" />
    <glyph glyph-name="glyph158" unicode="&#x936;" horiz-adv-x="1535" 
d="M0 1296l-137 138h352q-63 -68 -87 -138h-128zM625 891q-76 -62 -207 -62q-112 11 -181 103q-65 85 -65 201q0 124 70 217q76 102 196 104q161 2 287 -227q50 -92 55 -230q0 -11 -4 -77q-19 -281 -248 -467l268 -418l-44 -35l-293 424q-64 -31 -144 -14q-165 36 -165 151
q0 123 102 145q86 0 75 2q43 -6 87 -50q9 -9 29.5 -41t20.5 -40q161 75 161 314zM418 1378q-105 -2 -105 -174q0 -76 29 -151q53 -138 180 -138q82 17 82 152q0 116 -37 201q-49 112 -149 110zM764 1296q-41 80 -110 138h885l139 -138h-345v-1296l-164 168v1128h-405z" />
    <glyph glyph-name="glyph159" unicode="&#x937;" horiz-adv-x="1109" 
d="M298 791q0 -82 63 -130q44 -34 132 -36q80 -2 203 118l-398 547v-499zM360 1296l387 -536v-129q-84 -94 -211 -94q-114 0 -213 67q-174 117 -174 262v430h-149l-137 138h1251l140 -138h-343v-1296l-164 165v1131h-387z" />
    <glyph glyph-name="glyph160" unicode="&#x938;" horiz-adv-x="1375" 
d="M1008 1296h-465q34 -41 45 -79l24 -86q13 -82 7 -130q-12 -94 -62 -164q68 -62 209 -62q157 0 242 89v432zM0 1296l-137 138h1516l137 -138h-343v-1296l-165 168v527q-94 -51 -217 -51q-171 0 -290 68q-58 -88 -152 -80q128 -252 451 -636l-41 -43q-223 221 -392 443
q-219 288 -219 423q0 57 35.5 97t91.5 40q78 0 137 -40q70 65 70 153q0 124 -59 177q-13 13 -25 27q-16 14 -51 24z" />
    <glyph glyph-name="glyph161" unicode="&#x939;" horiz-adv-x="1168" 
d="M0 1301l-137 138h1310l139 -138h-399v-357h-432q-90 0 -114 -6q-37 -9 -70 -31q-43 -28 -43 -59q0 -135 90 -211q165 100 304 100q119 0 216 -72q105 -79 105 -194q0 -205 -133 -299l-103 117q58 21 100.5 79.5t42.5 118.5q0 53 -41 94.5t-94 41.5q-141 0 -273 -95
q-144 -104 -144 -239q0 -158 192 -260q180 -95 313 -141l-26 -50q-151 49 -306 128q-209 107 -259 192q-58 99 -58 221q0 125 103 217q-132 119 -132 285q0 206 265 206h331v214h-747z" />
    <glyph glyph-name="glyph80" unicode="&#x93c;" 
d="M-743 -148l-113 -112l-113 112l113 113z" />
    <glyph glyph-name="glyph77" unicode="&#x93d;" horiz-adv-x="1010" 
d="M714 444q0 102 -149 179l-278 141q-149 101 -149 258q0 150 121 223q64 39 130 47q21 2 130 2l291 1v-130q-14 1 -277 0q-97 0 -157 -22q-99 -36 -99 -129q0 -99 147 -171l273 -133q147 -99 147 -262t-112 -259q-81 -69 -262 -59q-75 12 -129 40l-131 72v141
q32 -30 110 -73t116 -52q59 -15 94 -15q47 0 88 26q96 60 96 175z" />
    <glyph glyph-name="glyph545" unicode="&#x93e;" horiz-adv-x="515" 
d="M149 1296h-149l-138 138h656l137 -138h-342v-1296l-164 166v1130z" />
    <glyph glyph-name="glyph468" unicode="&#x93f;" horiz-adv-x="465" 
d="M150 1296h-151l-140 138h293q-108 159 -100 358q6 160 146 248q119 75 287 75q291 0 557 -137q141 -73 216 -127q92 -68 222 -203q63 -65 103 -129q21 -33 56 -98h-51q-227 277 -436 395q-253 142 -573 142q-192 0 -290 -58q-125 -74 -125 -253q0 -82 99 -213h207
l140 -138h-295v-1296l-165 168v1128z" />
    <glyph glyph-name="glyph546" unicode="&#x940;" horiz-adv-x="515" 
d="M148 1296h-149l-137 138h313q-48 141 -138 273q-118 173 -225 173q-105 0 -167 -86q-56 -77 -56 -186q0 -68 43 -160h-162q-34 90 -34 186q0 179 74 283q86 119 258 119q184 0 322 -219q71 -113 171 -383h258l137 -138h-342v-1294l-166 166v1128z" />
    <glyph glyph-name="glyph469" unicode="&#x941;" 
d="M-517 -293l-118 123q111 86 239 80q108 -5 182 -104q68 -92 68 -204q0 -134 -111 -205q-94 -61 -235 -61q-200 0 -428 195q-182 156 -316 368h63q87 -149 301 -292q225 -150 388 -150q269 0 269 156q0 52 -53 100.5t-105 48.5q-85 0 -144 -55z" />
    <glyph glyph-name="glyph471" unicode="&#x942;" 
d="M-322 -391l126 -133q-73 -47 -219 -47q-92 0 -170 87q-75 84 -75 177q0 118 123 176q95 45 227 45q191 0 433 -185q183 -140 343 -340h-53q-432 423 -760 423q-244 0 -244 -129q0 -47 54 -88t102 -41q41 0 113 55z" />
    <glyph glyph-name="glyph473" unicode="&#x943;" 
d="M-414 -526q72 0 119 35l76 71l168 -176q-197 -78 -298 -78q-133 0 -229 81q-100 85 -100 216q0 111 83 185q74 67 189 83q14 2 149 3l-3 -139q-22 0 -66.5 1t-66.5 1q-83 0 -141 -45q-64 -49 -64 -129q0 -109 184 -109z" />
    <glyph glyph-name="glyph475" unicode="&#x944;" 
d="M-217 -724q100 0 191 56q54 33 155 125l-108 107q-84 -91 -109 -111q-91 -72 -193 -71q-110 1 -110 116q0 69 46 116l19 -1q93 -5 223 99l-94 93q-92 -84 -151 -84q-43 0 -91 25q-55 29 -55 68q0 62 83 96q67 27 137 22v115l-36 2q-85 5 -158 -43q-82 -53 -82 -138
q0 -145 132 -224q-39 -75 -39 -148q0 -97 72 -160q69 -60 168 -60z" />
    <glyph glyph-name="glyph557" unicode="&#x945;" 
d="M-180 1868l123 -127q-80 -215 -295 -215q-130 0 -241 101q-130 120 -143 338q167 -285 332 -285q103 0 151 44q59 54 73 144z" />
    <glyph glyph-name="glyph558" unicode="&#x946;" 
d="M-296 1435v123q-1 173 -100 221q-58 28 -252 29l-202 1q-139 1 -192 79q-23 33 -68 192h-17q-2 -197 5 -249q12 -97 111 -132q74 -26 239 -26q26 0 112 1q72 1 118 0q90 -1 152.5 -68t72.5 -171h21z" />
    <glyph glyph-name="glyph559" unicode="&#x947;" 
d="M-268 1434q-79 122 -127 186q-199 267 -230 301q-177 196 -324 196q-106 0 -247 -42l182 -185q95 14 138 14q139 0 316 -172q142 -138 232 -298h60z" />
    <glyph glyph-name="glyph560" unicode="&#x948;" 
d="M-949 2117q-106 0 -247 -42l182 -185q95 14 138 14q139 0 316 -172q142 -138 232 -298h80v32q0 128 -22 261l-46 260q-39 223 -181 347q-31 27 -92 45q-82 24 -97 31l-2 -229q101 -34 137 -54q66 -36 107 -100q66 -103 112 -272q43 -157 48 -292l-168 244
q-122 173 -235 277q-145 133 -262 133z" />
    <glyph glyph-name="glyph552" unicode="&#x949;" horiz-adv-x="516" 
d="M149 1296h-149l-138 138h656l137 -138h-342v-1296l-164 166v1130zM324 1868l123 -127q-80 -215 -295 -215q-130 0 -241 101q-130 120 -143 338q167 -285 332 -285q103 0 151 44q59 54 73 144z" />
    <glyph glyph-name="glyph553" unicode="&#x94a;" horiz-adv-x="516" 
d="M149 1296h-149l-138 138h656l137 -138h-342v-1296l-164 166v1130zM248 1435v123q-1 173 -100 221q-58 28 -252 29l-202 1q-139 1 -192 79q-23 33 -68 192h-17q-2 -197 5 -249q12 -97 111 -132q74 -26 239 -26q26 0 112 1q72 1 118 0q90 -1 152.5 -68t72.5 -171h21z" />
    <glyph glyph-name="glyph554" unicode="&#x94b;" horiz-adv-x="519" 
d="M149 1296h-149l-138 138h656l137 -138h-342v-1296l-164 166v1130zM262 1434q-79 122 -127 186q-199 267 -230 301q-177 196 -324 196q-106 0 -247 -42l182 -185q95 14 138 14q139 0 316 -172q142 -138 232 -298h60z" />
    <glyph glyph-name="glyph555" unicode="&#x94c;" horiz-adv-x="516" 
d="M149 1296h-149l-138 138h656l137 -138h-342v-1296l-164 166v1130zM-423 2117q-106 0 -247 -42l182 -185q95 14 138 14q139 0 316 -172q142 -138 232 -298h80v32q0 128 -22 261l-46 260q-39 223 -181 347q-31 27 -92 45q-82 24 -97 31l-2 -229q101 -34 137 -54
q66 -36 107 -100q66 -103 112 -272q43 -157 48 -292l-168 244q-122 173 -235 277q-145 133 -262 133z" />
    <glyph glyph-name="glyph81" unicode="&#x94d;" 
d="M-324 -231l-157 153q198 1 177 2q77 -4 159 -43q61 -33 201 -159q127 -114 219 -213l-45 -41q-58 69 -152 149q-104 89 -151 102q-105 53 -213 53q-20 0 -38 -3z" />
    <glyph glyph-name="glyph78" unicode="&#x950;" horiz-adv-x="2377" 
d="M1055 75q100 127 100 312q0 86 -47 191q-42 93 -119 162q206 -71 272 -71q189 0 282 158l118 295q66 158 198 158q151 0 228 -248q54 -174 54 -372q0 -195 -46 -355q-52 -179 -227 -195q-12 -1 -25 -1q-175 0 -270 168q-66 117 -94 370l-208 -46q53 -250 185 -404
q141 -165 392 -165q175 0 326 125q84 69 140 207q61 149 61 316q0 276 -137 460q-160 215 -419 215q-116 0 -199 -42q-54 -27 -150 -133q-55 -61 -77 -151q-7 -35 -24 -106q-14 -52 -60 -89q-76 -61 -116 -61q-80 0 -302 91q96 111 100 215q6 167 -121 279
q-116 102 -292 102q-85 0 -202 -38q-61 -20 -195 -118l155 -154q16 20 76.5 67t92.5 63q83 43 191 43q78 0 127 -38q54 -42 54 -118q0 -55 -50 -118q-53 -67 -141 -112q-126 -65 -277 -99l154 -154q143 48 238 113q103 -60 149 -138q51 -87 51 -227q0 -105 -83 -192
q-94 -98 -211 -98t-222 34q-92 30 -186 104q-34 30 -91 114q-96 142 -155 390l-43 -30q35 -282 194 -528q197 -305 564 -292q179 4 287 141zM1057 1768q0 78 48.5 126.5t119.5 48.5t121 -50t50 -121t-50 -121.5t-121 -50.5t-121 50q-47 47 -47 118zM1255 1470q155 4 262 157
l103 -177q-79 -72 -136 -102q-104 -55 -240 -55q-260 0 -359 214q-28 63 -28 155q0 150 64 269l-2 -128q-3 -133 82 -229q95 -109 254 -104z" />
    <glyph glyph-name="glyph563" unicode="&#x951;" 
d="M-290 1560h-96v688h96v-688zM-338 1247z" />
    <glyph glyph-name="glyph479" unicode="&#x952;" 
d="M10 -448h-960v88h960v-88zM-482 505z" />
    <glyph glyph-name="glyph564" unicode="&#x953;" 
d="M-486 1789l-58 -100l-534 253l100 178zM-802 772z" />
    <glyph glyph-name="glyph565" unicode="&#x954;" 
d="M-435 1942l-534 -253l-57 100l491 331zM-711 747z" />
    <glyph glyph-name="glyph164" unicode="&#x958;" horiz-adv-x="1729" 
d="M0 1296l-137 138h1869l137 -138h-925v-385q30 27 44 37q34 25 67 34q68 19 127 19q153 0 253 -106.5t100 -261.5q0 -124 -88 -234q-66 -85 -207 -142l-73 142q142 66 190 104q106 83 106 182q0 89 -83 161q-53 45 -165 34q-53 -5 -129.5 -69.5t-141.5 -157.5v-653
l-166 168v291q-43 -48 -127 -82.5t-151 -34.5q-145 0 -247.5 99t-102.5 244q0 148 97 244.5t245 96.5q188 0 286 -160v-61q-88 78 -202 78q-146 0 -226 -57q-110 -78 -120 -208q-6 -82 45 -132q42 -40 116 -40q106 0 243 108q144 114 144 218v524h-778zM569 90l-113 -112
l-113 112l113 113z" />
    <glyph glyph-name="glyph165" unicode="&#x959;" horiz-adv-x="1663" 
d="M1044 930q-110 0 -177 -68.5t-67 -179.5q0 -117 172 -117q106 0 199 75q98 79 98 183q0 41 -95 77q-78 30 -130 30zM0 1296l-137 138h1804l137 -138h-344v-1297l-162 159v13q-47 -49 -136 -78q-77 -25 -145 -25q-142 0 -266 52q-173 73 -395 308q-206 218 -206 377
q0 30 24 73q22 39 53 47.5t60 5.5q13 -1 32.5 -7t25.5 -6q38 0 64 77q20 60 20 111q0 121 -93 190h-336zM561 1030q0 -185 -45 -289l-22 -46q-17 -32 -53 -63.5t-58 -37.5q40 -76 151 -186q96 -94 178 -152q126 -89 293 -87q70 1 157 47t125 103v224q-160 -107 -272 -107
q-132 0 -225.5 95.5t-93.5 228.5q0 293 299 293q121 0 297 -119v362h-800q69 -148 69 -266zM866 -50l-113 -112l-113 112l113 113z" />
    <glyph glyph-name="glyph166" unicode="&#x95a;" horiz-adv-x="1322" 
d="M393 427l-207 270q-32 42 -39 82v47q10 29 57 29h185v441h-389l-138 138h1457l140 -138h-340v-1296l-187 188v1108h-394v-806q2 -14 2 -36q0 -71 -49 -86q-10 -3 -15 -3q-19 0 -42 22zM569 90l-113 -112l-113 112l113 113z" />
    <glyph glyph-name="glyph171" unicode="&#x95b;" horiz-adv-x="1448" 
d="M0 1296l-138 138h1586l140 -138h-343v-1294l-166 167v679h-295q108 -119 108 -283q0 -106 -69 -184q-71 -82 -176 -82q-309 0 -500 659h61q0 -18 19 -57q10 -18 27 -56q55 -134 94 -192q61 -91 155 -141q43 -23 94 -23q43 0 82 40.5t39 84.5q0 99 -68 221
q-67 119 -151 175h580v286h-1079zM630 80l-113 -112l-113 112l113 113z" />
    <glyph glyph-name="glyph176" unicode="&#x95c;" horiz-adv-x="1284" 
d="M881 1296h-881l-137 138h1421l139 -138h-393v-436l-468 2q-189 1 -189 -90q0 -54 30 -92q32 -41 85 -41q42 0 125 13.5t125 13.5q144 0 247 -122q99 -116 99 -263q0 -117 -117 -203q-107 -79 -229 -79q-227 0 -430 206q-137 139 -285 403l61 35q96 -182 233 -313
q173 -166 338 -166q109 0 197 71q95 75 95 181q0 44 -30 75t-73 31q-45 0 -128.5 -34.5t-127.5 -34.5q-114 0 -201 118q-27 35 -120 215q-37 71 -37 115q0 85 91 113q51 16 161 16h399v266zM939 -156l-113 -112l-113 112l113 113z" />
    <glyph glyph-name="glyph177" unicode="&#x95d;" horiz-adv-x="1294" 
d="M686 178q133 0 216 49q101 59 101 183q0 64 -42 105.5t-107 41.5q-205 0 -205 -253q0 -53 37 -126zM780 1296h-780l-137 138h1434l140 -138h-485v-424q-28 0 -100 1q-66 1 -100 1q-486 0 -486 -284q0 -147 96 -268q103 -129 246 -129q-58 141 -58 286q0 94 52 169
q59 83 149 83q160 0 258 -154q86 -134 86 -303q0 -116 -105 -198q-97 -76 -216 -76q-234 0 -432 221q-193 216 -193 453q0 108 59 202q65 104 202 138q81 20 253 20q59 0 117 -8v270zM864 -193l-113 -112l-113 112l113 113z" />
    <glyph glyph-name="glyph185" unicode="&#x95e;" horiz-adv-x="1754" 
d="M298 881q0 -86 47 -156q54 -80 135 -80q71 0 155 62q81 59 112 127v462h-449v-415zM898 0l-151 154v432q-82 -49 -224 -49t-266 144q-110 127 -110 248v367h-147l-138 138h1895l138 -138h-993v-399q104 92 215 92q186 0 312.5 -129t126.5 -315q0 -164 -140 -367l-152 153
q24 19 80 76q85 110 85 246q0 86 -68 136q-60 45 -149 45q-157 0 -315 -146zM533 275l-113 -112l-113 112l113 113z" />
    <glyph glyph-name="glyph189" unicode="&#x95f;" horiz-adv-x="1262" 
d="M0 1296l-137 138h1397l139 -138h-341v-1296l-163 165v363q-121 -139 -310 -139q-233 0 -356 178q-80 116 -80 264q90 0 161 46q79 51 93 135q6 20 6 69q0 146 -110 215h-299zM454 805q-57 -60 -102 -84q-32 -17 -92 -33q47 -147 200 -192q56 -11 72 -11q190 0 313 234
q46 88 46 201v376h-410q76 -100 76 -241t-103 -250zM575 151l-113 -112l-113 112l113 113z" />
    <glyph glyph-name="glyph108" unicode="&#x960;" horiz-adv-x="2021" 
d="M1227 480q0 208 234 265l-51 82q-127 -141 -252 -141q-46 0 -89 21v-707l-155 158v465l-418 -312l-127 129l516 351q-34 63 -115 124q-87 66 -151 66q-88 0 -178 -62q-18 -12 -156 -115l-137 138q254 172 411 172q106 0 214.5 -73.5t140.5 -172.5v428h-914l-137 138h2161
l137 -138h-1092v-468q52 -16 88 -16q51 0 99 44q70 64 84 72q-59 50 -59 110q0 52 38 88.5t90 36.5q58 0 99.5 -39.5t41.5 -96.5q0 -65 -57 -140l153 -225q-121 0 -216 -40q-127 -54 -127 -158q0 -102 194 -102q93 0 250 86l63 -121q-97 -12 -206 -67q-130 -66 -130 -133
q0 -43 37.5 -76t81.5 -33q144 0 316 92l63 -121q-173 -71 -241 -71q-123 0 -181 27q-67 31 -127 129q-16 26 -16 50q0 96 55 142q-74 15 -150 77q-85 69 -85 137z" />
    <glyph glyph-name="glyph109" unicode="&#x961;" horiz-adv-x="1614" 
d="M0 1296l-138 138h1760l140 -138h-507v-323q74 -32 117 -93q39 -55 39 -111q0 -87 -88 -187l-164 -177q-132 -146 -132 -222q0 -67 90 -67q25 0 55 7q130 31 266 221l52 -159q-296 -266 -296 -361q0 -59 67 -59q29 0 97 38.5t109 77.5q63 60 106 129l40 -195
q-105 -94 -132 -113q-81 -57 -159 -57q-96 0 -154.5 55t-58.5 150q0 105 78 188q-25 -5 -48 -5q-93 0 -151 71q-55 66 -55 161q0 90 74 188q22 31 134 153q93 93 97 98q57 68 51 117q-4 33 -36 59q-35 28 -85 28q-20 0 -41 -5q-96 -11 -213 -152q-74 -89 -136 -230l-161 163
l87 98q-38 109 -172 109q-92 0 -154 -49q-65 -51 -65 -132q0 -31 10 -63q6 -24 35 -90q54 -100 137 -175l166 -146l-41 -52q-43 22 -221 176q-248 214 -248 435q0 100 77 170q74 69 175 69q108 0 203.5 -62.5t134.5 -152.5q16 17 106 94q54 46 119 74q38 16 121 23v286
h-1087z" />
    <glyph glyph-name="glyph477" unicode="&#x962;" 
d="M-312 164q0 -87 -77 -180l-145 -145q-77 -78 -77 -128q0 -72 89 -72q59 0 103 65q4 7 59 117l82 -85q-101 -149 -224 -149q-75 0 -123.5 54t-48.5 131q0 86 147 234t147 198q0 40 -31.5 69t-72.5 29q-78 0 -180 -101q-86 -85 -129 -173l-93 93l65 72q-28 84 -124 84
q-53 0 -100 -31q-52 -35 -52 -85q0 -109 80 -202q5 -6 164 -151l-28 -37q-33 16 -159 126q-177 154 -177 311q0 71 54 121t126 50q77 0 144.5 -44.5t99.5 -115.5q75 80 111 105q65 45 144 45q100 0 161 -52q65 -55 65 -153z" />
    <glyph glyph-name="glyph478" unicode="&#x963;" 
d="M-672 -238q0 88 146.5 242.5t146.5 198.5q0 40 -31.5 69t-72.5 29q-76 0 -178 -102q-79 -80 -131 -172l-93 93l65 72q-28 84 -124 84q-53 0 -100 -31q-52 -35 -52 -85q0 -109 80 -202q5 -6 164 -151l-28 -37q-33 17 -159 126q-177 155 -177 311q0 71 54 121t126 50
q77 0 144.5 -44t99.5 -116q75 80 111 105q65 45 144 45q107 0 166.5 -59t59.5 -165q0 -74 -76 -162l-141 -140q-77 -76 -77 -124q0 -49 67 -49q100 0 171 167l74 -77q-37 -62 -67 -89q-35 -30 -99 -51q-51 -65 -51 -113q0 -56 59 -56q83 0 137 123l61 -64q-22 -43 -76 -81
q-57 -39 -103 -39q-52 0 -89 32q-40 34 -40 85q0 58 44 115q-79 8 -113 34q-42 32 -42 107z" />
    <glyph glyph-name="glyph64" unicode="&#x964;" horiz-adv-x="1596" 
d="M767 1546l175 -174v-1472l-175 173v1473z" />
    <glyph glyph-name="glyph65" unicode="&#x965;" horiz-adv-x="2021" 
d="M745 1546l175 -174v-1472l-175 173v1473zM1229 1546l175 -174v-1472l-175 173v1473z" />
    <glyph glyph-name="glyph66" unicode="&#x966;" horiz-adv-x="1486" 
d="M1295 840q0 -231 -155.5 -382t-387.5 -151q-237 0 -397 162t-160 399q0 228 157.5 385.5t385.5 157.5q159 0 295 -82t211 -223q51 -96 51 -266zM646 403q207 0 356 179q140 169 140 379q0 149 -79 244q-84 100 -231 100q-197 0 -351 -190q-146 -180 -146 -382
q0 -140 85 -233q87 -97 226 -97z" />
    <glyph glyph-name="glyph67" unicode="&#x967;" horiz-adv-x="1486" 
d="M873 819q-59 -14 -106 -14q-179 0 -323 143t-144 322q0 138 92 229.5t230 91.5q165 0 292 -113q131 -117 131 -280v-1112q0 -87 5 -105q13 -47 69 -67v-72q-137 0 -190 49q-56 51 -56 187v741zM728 1483q-106 0 -185 -90t-79 -197q0 -105 58 -191q66 -96 166 -96
q209 0 209 315q0 97 -36 169q-45 90 -133 90z" />
    <glyph glyph-name="glyph68" unicode="&#x968;" horiz-adv-x="1486" 
d="M352 1293l-179 180q184 104 425 104q232 0 379 -125q156 -133 156 -362q0 -157 -100 -292q-94 -126 -244 -194l401 -704l-72 -43l-401 723q-45 -7 -64 -7q-109 0 -181 58q-77 63 -77 170q0 55 31.5 93t85.5 38q67 0 135 -53.5t80 -118.5q119 40 220 150q110 120 110 237
q0 123 -81.5 200.5t-205.5 77.5q-169 0 -418 -132z" />
    <glyph glyph-name="glyph69" unicode="&#x969;" horiz-adv-x="1485" 
d="M412 1397l-215 180h403q197 0 352 -86q175 -97 175 -274q0 -165 -145 -261q206 -147 206 -355q0 -121 -81 -207q-75 -81 -197 -108l250 -392l-76 -31l-278 400q-60 -10 -159 -10q-97 0 -172 49q-86 56 -86 148q0 67 55 104q47 33 117 33q167 0 249 -133q90 2 178 40
q106 45 106 113q0 163 -94 220q-70 43 -243 43q-32 0 -97 -1t-98 -1l-213 180h430q92 0 163 49q88 60 88 136q0 66 -67 113q-72 51 -189 51h-362z" />
    <glyph glyph-name="glyph70" unicode="&#x96a;" horiz-adv-x="1486" 
d="M610 207q48 -53 126 -53q184 0 192 147q1 21 -8 64q-21 65 -62 121q-15 21 -77 92q-13 24 -56 79l-101 -120q-16 -20 -52 -107q-19 -46 -19 -88q0 -71 57 -135zM660 727l-567 775l80 65l552 -783l545 657l114 -127l-593 -604l160 -197q93 -110 93 -226q0 -287 -311 -287
q-120 0 -213 106q-81 92 -81 224q0 189 221 397z" />
    <glyph glyph-name="glyph71" unicode="&#x96b;" horiz-adv-x="1486" 
d="M838 1494l182 -166q-48 -388 -293 -863q325 -232 584 -496l-151 -112q-86 135 -221 291q-153 177 -262 251q-30 -72 -102 -130q-76 -62 -150 -62q-73 0 -124 45q-54 47 -54 119q0 70 50 138q55 77 128 77q99 0 151 -27q56 129 95 266q-37 -8 -79 -8q-161 0 -270 109.5
t-109 269.5v431l152 -136v-410q0 -72 34 -116q38 -50 108 -50q192 0 275 215q56 145 56 364z" />
    <glyph glyph-name="glyph72" unicode="&#x96c;" horiz-adv-x="1486" 
d="M875 1397l177 180h-303q-195 0 -311 -96q-124 -104 -124 -294q0 -86 53 -175q63 -104 159 -120q-165 -110 -165 -246q0 -18 2 -37q21 -185 150 -290q125 -102 319 -102q36 0 72 4l230 -366l85 69l-216 318q77 40 97 61q36 37 36 107q0 82 -55 134.5t-137 52.5
q-116 0 -140 -126q-3 -14 -3 -25q0 -21 11 -38q14 -24 16 -31q-16 -3 -39 -3q-131 0 -166 7q-75 15 -134 80q-45 49 -47 106q-6 159 90 211q73 40 279 40l175 180h-364q-87 0 -154 64.5t-67 152.5q0 188 296 188q36 0 97 -3t81 -3z" />
    <glyph glyph-name="glyph73" unicode="&#x96d;" horiz-adv-x="1486" 
d="M667 1112q0 109 50 175q56 75 161 75q222 0 339 -206q95 -168 95 -407q0 -648 -550 -648q-348 0 -511 364q-120 268 -120 664q0 191 30 448h56q0 -77 -9 -230.5t-9 -230.5q0 -322 133 -540q159 -261 459 -261q452 0 452 443v14q-92 -64 -249 -64q-165 0 -252 124
q-75 108 -75 280zM1041 1202q-85 0 -175 -67q-97 -72 -97 -154q0 -133 215 -133q86 0 139 54.5t53 141.5q0 59 -37 107q-40 51 -98 51z" />
    <glyph glyph-name="glyph74" unicode="&#x96e;" horiz-adv-x="1485" 
d="M438 1188h-345l184 184h1102l-186 -184h-507q-151 -105 -224 -164q-159 -130 -175 -207q-20 -30 -20 -87q0 -115 80 -159q58 -32 183 -32q63 0 202.5 37.5t213.5 37.5q118 0 204 -78q89 -81 89 -198q0 -43 -42 -129q-9 -19 -65 -127l-100 86q99 117 99 178q0 84 -122 84
q-56 0 -234.5 -55.5t-275.5 -55.5q-336 0 -336 341q0 150 84 289q52 86 191 239z" />
    <glyph glyph-name="glyph75" unicode="&#x96f;" horiz-adv-x="1485" 
d="M525 834l625 -619q94 -93 94 -170q0 -108 -125 -203l-178 121q35 0 90 58t55 94q0 55 -88 143l-707 705q-88 88 -88 225q0 188 146 303q106 84 235 84q158 0 262.5 -103.5t104.5 -261.5q0 -254 -240 -336q-117 -40 -186 -40zM685 1098q151 133 151 241q0 95 -102 95
q-60 0 -129 -35q-152 -77 -230 -209q-45 -76 -45 -123q0 -27 11 -41q28 -29 84 -29q61 0 137 30t123 71z" />
    <glyph glyph-name="glyph76" unicode="&#x970;" horiz-adv-x="640" 
d="M537 306q0 -79 -54 -133t-133 -54t-133 54t-54 133t54 133t133 54t133 -54t54 -133z" />
    <glyph glyph-name="glyph666" unicode="&#x200c;" 
d="M36 -275h-72v1859h72v-1859z" />
    <glyph glyph-name="glyph667" unicode="&#x200d;" 
d="M219 1369l-49 -49l-134 136v-1731h-72v1731l-134 -136l-49 49l171 169l-171 168l49 49l170 -171l170 171l49 -49l-171 -168z" />
    <glyph glyph-name="Ntilde" unicode="&#x2013;" horiz-adv-x="1816" 
d="M1820 717h-1824v160h1824v-160z" />
    <glyph glyph-name="Ocircumflex" unicode="&#x2014;" horiz-adv-x="640" 
d="M435 1194h-261v197q0 25 22 58l180 268l80 -45l-176 -270h155v-208z" />
    <glyph glyph-name="Otilde" unicode="&#x2018;" horiz-adv-x="638" 
d="M435 1306q0 -10 -8 -24l-176 -305l-77 46l149 259h-147v208h259v-184z" />
    <glyph glyph-name="quotedblleft" unicode="&#x201c;" horiz-adv-x="995" 
d="M705 1118l-109 -106l-129 108q0 29 8 62q39 158 76 245q57 138 158 238l49 -47q-127 -121 -127 -250q0 -29 20 -119q11 -45 54 -131zM360 1118l-108 -106l-129 108q0 154 100 342q68 127 142 203l49 -47q-48 -41 -86 -114q-41 -78 -41 -136q0 -21 20 -119q11 -53 53 -131
z" />
    <glyph glyph-name="quotedblright" unicode="&#x201d;" horiz-adv-x="1047" 
d="M319 1583l127 107l132 -111l-17 -45q-16 -45 -18 -57l-4 -13q-28 -144 -45 -190q-44 -114 -158 -240l-49 49q127 125 127 250q0 25 -21 117q-22 37 -74 133zM662 1583l129 107l110 -111q-4 -18 -10 -57q0 -9 -6 -45l-2 -13q-21 -123 -45 -190q-41 -113 -158 -240l-49 49
q46 45 84 115q43 81 43 135q0 23 -21 117q-4 18 -28 57q-40 62 -47 76z" />
    <glyph glyph-name="Eth" unicode="&#x2026;" horiz-adv-x="1112" 
d="M1116 720h-1120v160h1120v-160z" />
    <glyph glyph-name="oneeighth" unicode="&#x215b;" horiz-adv-x="2048" 
d="M545 565h-165v681h-209v117q102 0 165 22t72 108h137v-928zM1410 1489l-780 -1489h-165l780 1489h165zM1923 251q0 -121 -101.5 -201.5t-256.5 -80.5q-167 0 -262.5 79.5t-95.5 199.5q0 79 47 139t136 98v4q-82 41 -117 91t-35 121q0 106 92.5 176.5t236.5 70.5
q149 0 239.5 -67.5t90.5 -171.5q0 -63 -40 -125.5t-122 -97.5v-4q97 -39 142.5 -92.5t45.5 -138.5zM1733 692q0 51 -43.5 87t-122.5 36q-70 0 -116.5 -31.5t-46.5 -85.5q0 -38 24 -68.5t69 -50.5q23 -12 59 -26.5t82 -25.5q57 37 76 76.5t19 88.5zM1757 252q0 50 -27.5 79.5
t-93.5 59.5q-23 12 -67 25t-86 28q-58 -32 -86 -78.5t-28 -94.5q0 -74 59 -121.5t139 -47.5q81 0 135.5 39t54.5 111z" />
    <glyph glyph-name="threeeighths" unicode="&#x215c;" horiz-adv-x="2048" 
d="M793 826q0 -71 -30 -127.5t-78 -89.5q-53 -37 -114.5 -53t-140.5 -16q-82 0 -153.5 15t-136.5 43v175h17q37 -35 114 -64.5t156 -29.5q84 0 139 36.5t55 108.5q0 83 -50 112.5t-141 29.5h-140v139h125q87 0 134.5 38t47.5 104q0 60 -41 95.5t-128 35.5q-66 0 -142.5 -31
t-113.5 -66h-17v175q64 27 139 44t154 17q152 0 237 -70t85 -168q0 -87 -48.5 -143.5t-125.5 -82.5v-8q80 -16 138.5 -70.5t58.5 -148.5zM1500 1489l-780 -1489h-165l780 1489h165zM1956 251q0 -121 -101.5 -201.5t-256.5 -80.5q-167 0 -262.5 79.5t-95.5 199.5q0 79 47 139
t136 98v4q-82 41 -117 91t-35 121q0 106 92.5 176.5t236.5 70.5q149 0 239.5 -67.5t90.5 -171.5q0 -63 -40 -125.5t-122 -97.5v-4q97 -39 142.5 -92.5t45.5 -138.5zM1766 692q0 51 -43.5 87t-122.5 36q-70 0 -116.5 -31.5t-46.5 -85.5q0 -38 24 -68.5t69 -50.5
q23 -12 59 -26.5t82 -25.5q57 37 76 76.5t19 88.5zM1790 252q0 50 -27.5 79.5t-93.5 59.5q-23 12 -67 25t-86 28q-58 -32 -86 -78.5t-28 -94.5q0 -74 59 -121.5t139 -47.5q81 0 135.5 39t54.5 111z" />
    <glyph glyph-name="fiveeighths" unicode="&#x215d;" horiz-adv-x="2048" 
d="M793 867q0 -69 -25.5 -129t-71.5 -104q-48 -43 -116 -68.5t-155 -25.5q-78 0 -152.5 14t-134.5 40v159h16q37 -20 110 -47t151 -27q44 0 84 12t70 39q29 29 40.5 62.5t11.5 72.5q0 42 -15 71t-45 48q-30 21 -74.5 29.5t-97.5 8.5q-59 0 -113 -7t-92 -13v496h597v-139
h-440v-207q20 2 44.5 3t38.5 1q84 0 143 -11t111 -46q55 -36 85 -91.5t30 -140.5zM1500 1489l-780 -1489h-165l780 1489h165zM1956 251q0 -121 -101.5 -201.5t-256.5 -80.5q-167 0 -262.5 79.5t-95.5 199.5q0 79 47 139t136 98v4q-82 41 -117 91t-35 121q0 106 92.5 176.5
t236.5 70.5q149 0 239.5 -67.5t90.5 -171.5q0 -63 -40 -125.5t-122 -97.5v-4q97 -39 142.5 -92.5t45.5 -138.5zM1766 692q0 51 -43.5 87t-122.5 36q-70 0 -116.5 -31.5t-46.5 -85.5q0 -38 24 -68.5t69 -50.5q23 -12 59 -26.5t82 -25.5q57 37 76 76.5t19 88.5zM1790 252
q0 50 -27.5 79.5t-93.5 59.5q-23 12 -67 25t-86 28q-58 -32 -86 -78.5t-28 -94.5q0 -74 59 -121.5t139 -47.5q81 0 135.5 39t54.5 111z" />
    <glyph glyph-name="seveneighths" unicode="&#x215e;" horiz-adv-x="2048" 
d="M843 1358l-470 -793h-185l496 794h-531v139h690v-140zM1404 1489l-780 -1489h-165l780 1489h165zM1903 251q0 -121 -101.5 -201.5t-256.5 -80.5q-167 0 -262.5 79.5t-95.5 199.5q0 79 47 139t136 98v4q-82 41 -117 91t-35 121q0 106 92.5 176.5t236.5 70.5
q149 0 239.5 -67.5t90.5 -171.5q0 -63 -40 -125.5t-122 -97.5v-4q97 -39 142.5 -92.5t45.5 -138.5zM1713 692q0 51 -43.5 87t-122.5 36q-70 0 -116.5 -31.5t-46.5 -85.5q0 -38 24 -68.5t69 -50.5q23 -12 59 -26.5t82 -25.5q57 37 76 76.5t19 88.5zM1737 252q0 50 -27.5 79.5
t-93.5 59.5q-23 12 -67 25t-86 28q-58 -32 -86 -78.5t-28 -94.5q0 -74 59 -121.5t139 -47.5q81 0 135.5 39t54.5 111z" />
    <glyph glyph-name="glyph668" unicode="&#x25cc;" horiz-adv-x="1287" 
d="M1113 959l-108 -76q-52 86 -137 138l75 106q105 -66 170 -168zM762 1207l-22 -128q-47 11 -96 11q-51 0 -98 -11l-22 128q61 14 119 14q59 0 119 -14zM1173 796q14 -61 14 -119t-14 -119l-128 22q11 47 11 96q0 51 -11 98zM1113 395q-66 -103 -170 -169l-75 107
q85 52 137 138zM419 1021q-85 -52 -137 -138l-108 76q65 102 170 168zM242 580l-129 -22q-13 57 -13 119t13 119l129 -22q-11 -47 -11 -98q0 -49 11 -96zM762 147q-60 -14 -119 -14q-58 0 -119 14l22 128q47 -11 98 -11q49 0 96 11zM419 333l-75 -107q-104 66 -170 169
l108 76q52 -86 137 -138z" />
    <glyph glyph-name="ch245" horiz-adv-x="1214" 
d="M397 1297l351 -285l1 284zM670 964l-406 334v-152q0 -185 211 -185q-40 0 99 -5q60 -2 96 8zM147 1296h-143l-137 138h1347l138 -138h-467q4 -53 4 -114q0 -211 -40 -277q-55 -91 -247 -91q-32 0 -94.5 9t-93.5 9q-54 0 -108 -42q-57 -45 -57 -97q0 -76 103 -132
q87 -47 170 -47q179 0 374 119l116 -119q-193 -129 -391 -129q-152 0 -300 97q-166 109 -166 251q0 135 155 182q-114 27 -148 153q-17 63 -15 228z" />
    <glyph glyph-name="glyph54" horiz-adv-x="1191" 
d="M761 992l-476 304v-152q0 -165 231 -165q202 0 245 13zM212 674q0 -96 104 -142q77 -34 187 -34q134 0 256 58q151 71 151 189q0 77 -80 115q-61 29 -147 29q-202 0 -292 -24q-179 -46 -179 -191zM828 1039v258h-393zM836 911q91 -45 121 -91t30 -146q0 -139 -140 -221
q-118 -69 -268 -69q-149 0 -276 62q-159 77 -159 209q0 105 54 168q44 49 149 96q-135 22 -174 123q-21 56 -23 223v31h-149l-138 138h1335l137 -138h-386v-211q0 -151 -113 -174z" />
    <glyph glyph-name="glyph55" horiz-adv-x="1233" 
d="M936 966l98 87l98 -87l-98 -88zM1 1296l-138 138h1373l137 -138h-499v-220h-376q-76 0 -108 -17q-47 -25 -47 -93q21 -53 92 -53q29 0 86.5 9t86.5 9q142 0 234 -68q103 -77 103 -214q0 -119 -92 -185q-81 -59 -204 -59q-164 0 -343 154q-151 130 -245 298l37 33
q53 -127 190 -226q142 -103 276 -103q76 0 159 41q97 48 97 116q0 104 -75 104q-29 0 -117 -26.5t-136 -26.5q-66 0 -101 48l-159 220q-29 40 -29 90q0 98 201 98h320v71h-723z" />
    <glyph glyph-name="glyph56" horiz-adv-x="1384" 
d="M824 916q-1 -54 33 -104q37 -56 88 -56q50 6 80 82q25 60 25 118q-15 120 -83 134q-50 0 -115 -96q-27 -39 -28 -78zM910 1180v116h-909l-138 138h1525l137 -137h-512v-121q114 -105 114 -275q0 -133 -74 -252q132 -108 132 -258q0 -157 -128 -239l-91 90
q113 145 113 271q0 56 -56 103q-38 -57 -182 -150q-97 -63 -229 -63q-137 0 -229 57q-110 69 -110 198q0 89 74 152q-87 0 -140.5 56.5t-53.5 144.5q0 116 124 150q57 15 209 15l91 -117q-15 0 -43 1.5t-42 1.5q-252 0 -252 -115q0 -37 15 -55q6 -6 46 -36q19 -6 46 -6
q108 0 214 36l101 -115q-100 0 -179 -28q-108 -40 -108 -120q0 -151 205 -151q71 0 182 86q95 72 148 146q-74 34 -139 101q-75 78 -75 147q0 91 62 159t152 69z" />
    <glyph glyph-name="glyph57" horiz-adv-x="1233" 
d="M663 1296h-663l-138 138h1374l138 -138h-552v-328h-24q-22 1 -37 1h-69q-188 0 -283 -39q-108 -44 -127 -59q-55 -44 -55 -141q0 -45 45 -98q40 -47 85 -68q106 -50 181 -50q179 0 374 119l116 -119q-193 -129 -391 -129q-172 0 -313 109q-173 134 -173 285
q0 341 409 341h103v176z" />
    <glyph glyph-name="glyph58" horiz-adv-x="1246" 
d="M981 772q0 120 -109 194q-97 66 -222 66q-126 0 -223 -66q-109 -74 -109 -194t109 -194q97 -66 223 -66q125 0 222 66q109 74 109 194zM551 1296h-553l-137 138h1391l137 -137l-708 -1v-185q23 0 98 -34q269 -121 269 -329q0 -178 -137 -276q-122 -87 -306 -87
q-185 0 -317 116q-138 121 -138 303q0 137 105 209q26 18 194 86q107 44 105 109z" />
    <glyph glyph-name="glyph59" horiz-adv-x="1113" 
d="M749 1296h-749l-138 138h1256l138 -138h-386v-215l-380 1q-153 0 -153 -73q0 -108 93 -108q34 0 101.5 10.5t101.5 10.5q113 0 198 -96q82 -92 82 -207q0 -100 -91 -171q-85 -66 -188 -66q-307 0 -580 494l49 28q77 -147 189 -254q141 -135 274 -135q87 0 159 57
q77 62 77 147q0 36 -23.5 61.5t-59.5 25.5q-34 0 -104 -28.5t-103 -28.5q-93 0 -164 95q-27 37 -97 176q-30 60 -30 93q0 105 204 105h324v78z" />
    <glyph glyph-name="glyph60" horiz-adv-x="1219" 
d="M727 1296h-727l-138 138h1360l137 -138h-475v-190q-30 0 -90 2t-90 2q-450 0 -450 -240q0 -84 56 -179q57 -98 131 -132q46 -21 127 -21q-52 118 -52 240q0 83 50 144q53 66 134 66q146 0 235 -120q81 -109 81 -261q0 -103 -104 -170q-92 -59 -200 -59q-201 0 -383 181
t-182 381q0 183 157 253q107 48 315 48q55 0 107 -7zM630 526q301 0 301 194q0 56 -41 91q-39 32 -96 32q-188 0 -188 -211q0 -46 24 -106z" />
    <glyph glyph-name="glyph61" horiz-adv-x="1558" 
d="M0 1296l-138 138h1696l137 -138h-824v-217q65 58 197 58q112 0 208 -84q83 -75 83 -240q0 -110 -72.5 -199t-170.5 -113l-59 114q114 52 155 83q81 61 81 156q0 98 -62 144q-43 32 -136 18q-130 -20 -224 -164v-547l-151 150v225q-40 -43 -115 -72.5t-136 -29.5
q-132 0 -224 84q-95 87 -95 218q0 132 90 217q87 83 220 83q173 0 262 -140v-55q-79 69 -185 69q-109 0 -196 -75q-91 -78 -91 -185q0 -124 119 -124q102 0 224 92q129 97 129 195q-1 129 0 339h-722z" />
    <glyph glyph-name="glyph62" horiz-adv-x="1059" 
d="M0 1296l-138 138h1198l138 -138h-338v-992l-154 155v346q-74 -42 -220 -42q-138 0 -242 118q-97 110 -97 250v165h-147zM284 1058q0 -82 41 -139q46 -63 123 -63q161 0 258 161v279h-422v-238z" />
    <glyph glyph-name="glyph63" horiz-adv-x="244" 
d="M-142 1296h-109l-136 138h631l137 -138h-336v-1296l-187 187v1109z" />
    <glyph glyph-name="glyph79" horiz-adv-x="1024" 
d="M128 0v1320h768v-1320h-768zM256 128h512v1064h-512v-1064z" />
    <glyph glyph-name="glyph82" 
d="M40 439l-457 -427l-100 94l474 437z" />
    <glyph glyph-name="glyph83" horiz-adv-x="1024" 
d="M128 0v1320h768v-1320h-768zM256 128h512v1064h-512v-1064z" />
    <glyph glyph-name="glyph84" horiz-adv-x="1024" 
d="M128 0v1320h768v-1320h-768zM256 128h512v1064h-512v-1064z" />
    <glyph glyph-name="glyph85" 
d="M-103 1706l93 -95q-61 -162 -222 -162q-99 0 -182 76q-79 73 -100 172q111 -140 243 -140q145 0 168 149zM-380 1716q0 43 30 72.5t73 29.5q42 0 72 -30t30 -72t-30 -72t-72 -30q-43 0 -73 29.5t-30 72.5z" />
    <glyph glyph-name="glyph86" 
d="M-204 1701l-80 -80l-80 80l80 80zM-102 1924v-72q-23 45 -99 74q-67 26 -125 26q-161 0 -161 -182q0 -89 43 -178q24 -49 98 -158h-45q-233 274 -233 381q0 113 62 183t174 70q187 0 286 -144z" />
    <glyph glyph-name="glyph87" 
d="M-109 727v-186l-490 -487l-92 91z" />
    <glyph glyph-name="glyph88" 
d="M-294 69l-427 -320l-61 71l432 322z" />
    <glyph glyph-name="glyph89" 
d="M-840 -601l-82 80l447 449l412 -411l-76 -77l-329 327z" />
    <glyph glyph-name="glyph90" 
d="M-74 1847q-95 107 -223 107q-152 0 -152 -201q0 -92 135 -320l-44 1q-223 271 -223 407q0 88 96 174q17 4 67 33q31 18 104 18q109 0 240 -143v-76z" />
    <glyph glyph-name="glyph91" 
d="M0 1776q-19 73 -94 136q-78 65 -152 65q-89 0 -146.5 -63.5t-57.5 -152.5q0 -42 42 -170q28 -84 79 -158h-65q-42 61 -120 186q-68 123 -68 191q0 114 79.5 198t192.5 84q236 0 327 -236z" />
    <glyph glyph-name="glyph110" horiz-adv-x="1848" 
d="M1354 150q-113 92 -113 183q0 276 311 352l-71 135q-154 -121 -273 -124q-84 -2 -139 11v-707l-155 158v465l-418 -312l-127 129l516 351q-34 63 -115 124q-87 66 -151 66q-88 0 -178 -62q-18 -12 -156 -115l-137 138q254 172 411 172q106 0 214.5 -73.5t140.5 -172.5
v428h-914l-138 138h2223l137 -138h-1153v-468q39 -12 88 -12q102 0 144 22q37 19 68 46l30 27q-63 55 -63 141q0 53 45 97q41 41 99 41q68 0 108 -39q52 -48 52 -111q0 -90 -68 -154l190 -321q-151 0 -251 -43q-169 -73 -169 -211t258 -136q150 2 284 103l132 -149l-96 -48
q-57 -27 -138 -41q-118 -22 -228 7.5t-200 102.5zM1360 1776q-19 73 -94 136q-78 65 -152 65q-89 0 -146.5 -63.5t-57.5 -152.5q0 -42 42 -170q28 -84 79 -158h-65q-42 61 -120 186q-68 123 -68 191q0 114 79.5 198t192.5 84q236 0 327 -236z" />
    <glyph glyph-name="glyph111" horiz-adv-x="2017" 
d="M1227 480q0 208 234 265l-51 82q-127 -141 -252 -141q-46 0 -89 21v-707l-155 158v465l-418 -312l-127 129l516 351q-34 63 -115 124q-87 66 -151 66q-88 0 -178 -62q-18 -12 -156 -115l-137 138q254 172 411 172q106 0 214.5 -73.5t140.5 -172.5v428h-914l-137 138h2161
l137 -138h-1092v-468q52 -16 88 -16q51 0 99 44q70 64 84 72q-59 50 -59 110q0 52 38 88.5t90 36.5q58 0 99.5 -39.5t41.5 -96.5q0 -65 -57 -140l153 -225q-121 0 -216 -40q-127 -54 -127 -158q0 -102 194 -102q93 0 250 86l63 -121q-97 -12 -206 -67q-130 -66 -130 -133
q0 -43 37.5 -76t81.5 -33q144 0 316 92l63 -121q-173 -71 -241 -71q-123 0 -181 27q-67 31 -127 129q-16 26 -16 50q0 96 55 142q-74 15 -150 77q-85 69 -85 137zM1360 1779q-19 73 -94 136q-78 65 -152 65q-89 0 -146.5 -63.5t-57.5 -152.5q0 -42 42 -170q28 -84 79 -158
h-65q-42 61 -120 186q-68 123 -68 191q0 114 79.5 198t192.5 84q236 0 327 -236z" />
    <glyph glyph-name="glyph112" horiz-adv-x="1495" 
d="M1109 1296h-145l-137 138h671l139 -138h-345v-1296l-183 185v505q-59 -38 -107 -47q-32 -6 -116 -6q6 -39 6 -57q0 -123 -86 -212t-209 -89q-187 0 -295 169q-68 106 -126 338l40 15q39 -145 114 -246q97 -131 222 -131q94 0 155.5 58t61.5 151q0 57 -43 127.5t-94 87.5
q-83 -45 -178 -45l-145 145q118 0 259 66q171 80 171 174q0 147 -135 147q-171 0 -323 -102l-129 129q119 78 292 78q131 0 249 -75q134 -85 134 -206q0 -86 -42 -164q-44 -81 -116 -123q72 -86 258 -86q67 0 124.5 64t57.5 131v315zM745 -212l-113 -112l-113 112l113 113z
" />
    <glyph glyph-name="glyph113" horiz-adv-x="2100" 
d="M1292 1296v-1296l-178 178v512q-57 -36 -109 -46q-36 -7 -119 -7q6 -39 6 -57q0 -123 -86 -212t-209 -89q-187 0 -295 169q-68 106 -126 338l40 15q39 -145 114 -246q97 -131 222 -131q95 0 156 58t61 152q0 57 -42.5 126.5t-94.5 87.5q-83 -45 -178 -45l-145 145
q144 7 261 66q169 85 169 174q0 147 -135 147q-170 0 -323 -102l-129 129q119 78 304 78q123 0 240 -77q131 -86 131 -204q0 -86 -42 -164q-44 -81 -116 -123q72 -86 258 -86q66 0 126.5 64t60.5 131v315h-144l-138 138l1273 -1l138 -137h-340v-1296l-184 187v1109h-427z
M745 -212l-113 -112l-113 112l113 113z" />
    <glyph glyph-name="glyph114" horiz-adv-x="1220" 
d="M0 1296l-138 138h1359l138 -138h-476v-350l-350 2q-114 1 -162 -29q-64 -39 -64 -145q0 -36 34 -71t69 -35q53 0 156.5 27.5t156.5 27.5q283 0 283 -336q0 -65 -82 -165q-77 -96 -142 -124l230 -229l-60 -62l-233 238q-72 -45 -143 -45q-115 0 -195 55q-92 62 -92 172
q0 61 37 100.5t98 39.5q73 0 147 -39q78 -40 113 -101q73 30 191 148q24 24 24 100q0 113 -100 113q-47 0 -136.5 -25.5t-136.5 -25.5q-138 0 -224 75q-69 60 -136 203q-14 30 -14 80q0 105 45 147q43 39 149 39h367v215h-713zM445 -212l-113 -112l-113 112l113 113z" />
    <glyph glyph-name="glyph115" horiz-adv-x="1202" 
d="M0 1296l-138 138h889q-230 271 -230 376q0 253 276 253q69 0 142 -41.5t104 -101.5v-72q-18 37 -101 66q-72 24 -123 24q-161 0 -161 -172q0 -84 46 -175l93 -157h409l138 -138h-468l1 -348h-349q-111 0 -160 -28q-66 -39 -66 -146q0 -36 33.5 -71t69.5 -35
q53 0 156.5 27.5t156.5 27.5q283 0 283 -336q0 -65 -82 -165q-77 -96 -142 -124l230 -229l-60 -62l-233 238q-72 -45 -143 -45q-115 0 -195 55q-92 62 -92 172q0 61 37.5 100.5t97.5 39.5q73 0 147 -39q78 -40 113 -101q82 34 191 148q24 25 24 100q0 113 -100 113
q-47 0 -136.5 -25.5t-136.5 -25.5q-137 0 -225 77q-72 63 -135 201q-14 31 -14 80q0 105 44 145.5t150 40.5h367v215h-708zM445 -212l-113 -112l-113 112l113 113z" />
    <glyph glyph-name="glyph116" horiz-adv-x="1420" 
d="M0 1296l-140 138h1564l137 -137l-475 -1q121 -152 118 -350q-1 -88 -60.5 -159t-145.5 -95q101 -61 154 -143q69 -106 69 -205q0 -119 -66 -209q-96 -132 -270 -133q-122 -1 -287 111q-81 55 -194 231q-33 52 -72 123l-37 68q-7 11 -27 47l-118 219l43 30
q49 -124 211 -342q64 -86 73 -100q47 -57 88 -88q151 -117 287 -117q206 35 205 275q-1 130 -117 211q-128 -35 -205 -35l-190 196q29 -8 149 -8q139 0 254 39q48 16 90 62q62 67 74 135q0 100 -114 237h-998zM757 -212l-113 -112l-113 112l113 113z" />
    <glyph glyph-name="glyph117" horiz-adv-x="1905" 
d="M1036 677l-5 16q104 92 227 92q185 0 312 -129.5t127 -314.5q0 -206 -181 -469l-154 153q66 53 137 184.5t71 211.5q0 208 -218 208q-86 0 -178 -47q-14 -8 -32 -16q79 -113 79 -222q0 -147 -94.5 -244.5t-241.5 -97.5q-170 0 -323 146q-126 120 -238 323l-174 330l43 30
q49 -123 211 -342q105 -141 189 -208q123 -97 259 -97q99 0 157 93q48 77 48 182q0 139 -117 221q-93 -35 -179 -35h-26l-190 186q30 -8 149 -8q250 0 344 101q74 80 74 135q0 100 -114 237h-998l-138 138h2044l139 -137l-959 -1q118 -148 118 -350q0 -88 -60 -158.5
t-146 -85.5zM757 -212l-113 -112l-113 112l113 113z" />
    <glyph glyph-name="glyph118" horiz-adv-x="1147" 
d="M634 555q13 10 97 88q44 49 44 215v438h-465v-651q0 -141 84 -201l516 -366l122 -90q62 -60 62 -133q0 -58 -64 -129q-28 -41 -79 -64l-101 96q48 11 85 52.5t36 89.5q-1 25 -27 55q-6 7 -59 45l-511 367q-35 23 -129 90q-51 38 -72 90q-25 61 -25 164v585h-148l-138 138
h1284l137 -137l-342 -1v-471q-1 -105 -12 -144q-19 -68 -85 -124l-159 -135l-95 96q11 10 44 37zM854 1868l123 -127q-80 -215 -295 -215q-130 0 -241 101q-130 120 -143 338q167 -285 332 -285q103 0 151 44q59 54 73 144zM557 -212l-113 -112l-113 112l113 113z" />
    <glyph glyph-name="glyph119" horiz-adv-x="1145" 
d="M634 555q13 10 97 88q44 49 44 215v438h-465v-651q0 -141 84 -201l516 -366l122 -90q62 -60 62 -133q0 -58 -64 -129q-28 -41 -79 -64l-101 96q48 11 85 52.5t36 89.5q-1 25 -27 55q-6 7 -59 45l-511 367q-35 23 -129 90q-51 38 -72 90q-25 61 -25 164v585h-148l-138 138
h1284l137 -137l-342 -1v-471q-1 -105 -12 -144q-19 -68 -85 -124l-159 -135l-95 96q11 10 44 37zM863 1435v123q-1 173 -100 221q-58 28 -252 29l-202 1q-139 1 -192 79q-23 33 -68 192h-17q-2 -197 5 -249q12 -97 111 -132q74 -26 239 -26q26 0 112 1q72 1 118 0
q90 -1 152.5 -68t72.5 -171h21zM557 -212l-113 -112l-113 112l113 113z" />
    <glyph glyph-name="glyph120" horiz-adv-x="1147" 
d="M634 555q13 10 97 88q44 49 44 215v438h-465v-651q0 -141 84 -201l516 -366l122 -90q62 -60 62 -133q0 -58 -64 -129q-28 -41 -79 -64l-101 96q48 11 85 52.5t36 89.5q-1 25 -27 55q-6 7 -59 45l-511 367q-35 23 -129 90q-51 38 -72 90q-25 61 -25 164v585h-148l-138 138
h1284l137 -137l-342 -1v-471q-1 -105 -12 -144q-19 -68 -85 -124l-159 -135l-95 96q11 10 44 37zM557 -212l-113 -112l-113 112l113 113z" />
    <glyph glyph-name="glyph121" horiz-adv-x="1147" 
d="M634 555q13 10 97 88q44 49 44 215v438h-465v-651q0 -141 84 -201l516 -366l122 -90q62 -60 62 -133q0 -58 -64 -129q-28 -41 -79 -64l-101 96q48 11 85 52.5t36 89.5q-1 25 -27 55q-6 7 -59 45l-511 367q-35 23 -129 90q-51 38 -72 90q-25 61 -25 164v585h-148l-138 138
h1284l137 -137l-342 -1v-471q-1 -105 -12 -144q-19 -68 -85 -124l-159 -135l-95 96q11 10 44 37zM882 1434q-79 122 -127 186q-199 267 -230 301q-177 196 -324 196q-106 0 -247 -42l182 -185q95 14 138 14q139 0 316 -172q142 -138 232 -298h60zM557 -212l-113 -112
l-113 112l113 113z" />
    <glyph glyph-name="glyph122" horiz-adv-x="2104" 
d="M1292 1296v-1296l-178 178v512q-57 -36 -109 -46q-36 -7 -119 -7q6 -39 6 -57q0 -123 -86 -212t-209 -89q-187 0 -295 169q-68 106 -126 338l40 15q39 -145 114 -246q97 -131 222 -131q95 0 156 58t61 152q0 57 -42.5 126.5t-94.5 87.5q-83 -45 -178 -45l-145 145
q144 7 261 66q169 85 169 174q0 147 -135 147q-170 0 -323 -102l-129 129q119 78 304 78q123 0 240 -77q131 -86 131 -204q0 -86 -42 -164q-44 -81 -116 -123q72 -86 258 -86q66 0 126.5 64t60.5 131v315h-144l-138 138l1273 -1l138 -137h-340v-1296l-184 187v1109h-427z
M1704 1868l123 -127q-80 -215 -295 -215q-130 0 -241 101q-130 120 -143 338q167 -285 332 -285q103 0 151 44q59 54 73 144zM745 -212l-113 -112l-113 112l113 113z" />
    <glyph glyph-name="glyph123" horiz-adv-x="2100" 
d="M1291 1296v-1296l-178 178v512q-57 -36 -109 -46q-36 -7 -119 -7q6 -39 6 -57q0 -123 -86 -212t-209 -89q-187 0 -295 169q-68 106 -126 338l40 15q39 -145 114 -246q97 -131 222 -131q95 0 156 58t61 152q0 57 -42.5 126.5t-94.5 87.5q-83 -45 -178 -45l-145 145
q144 7 261 66q169 85 169 174q0 147 -135 147q-170 0 -323 -102l-129 129q119 78 304 78q123 0 240 -77q131 -86 131 -204q0 -86 -42 -164q-44 -81 -116 -123q72 -86 258 -86q66 0 126.5 64t60.5 131v315h-144l-138 138l1273 -1l138 -137h-340v-1296l-184 187v1109h-427z
M1813 1435v123q-1 173 -100 221q-58 28 -252 29l-202 1q-139 1 -192 79q-23 33 -68 192h-17q-2 -197 5 -249q12 -97 111 -132q74 -26 239 -26q26 0 112 1q72 1 118 0q90 -1 152.5 -68t72.5 -171h21zM735 -212l-113 -112l-113 112l113 113z" />
    <glyph glyph-name="glyph124" horiz-adv-x="2100" 
d="M1292 1296v-1296l-178 178v512q-57 -36 -109 -46q-36 -7 -119 -7q6 -39 6 -57q0 -123 -86 -212t-209 -89q-187 0 -295 169q-68 106 -126 338l40 15q39 -145 114 -246q97 -131 222 -131q95 0 156 58t61 152q0 57 -42.5 126.5t-94.5 87.5q-83 -45 -178 -45l-145 145
q144 7 261 66q169 85 169 174q0 147 -135 147q-170 0 -323 -102l-129 129q119 78 304 78q123 0 240 -77q131 -86 131 -204q0 -86 -42 -164q-44 -81 -116 -123q72 -86 258 -86q66 0 126.5 64t60.5 131v315h-144l-138 138l1273 -1l138 -137h-340v-1296l-184 187v1109h-427z
M1822 1434q-79 122 -127 186q-199 267 -230 301q-177 196 -324 196q-106 0 -247 -42l182 -185q95 14 138 14q139 0 316 -172q142 -138 232 -298h60zM745 -212l-113 -112l-113 112l113 113z" />
    <glyph glyph-name="glyph125" horiz-adv-x="2104" 
d="M1292 1296v-1296l-178 178v512q-57 -36 -109 -46q-36 -7 -119 -7q6 -39 6 -57q0 -123 -86 -212t-209 -89q-187 0 -295 169q-68 106 -126 338l40 15q39 -145 114 -246q97 -131 222 -131q95 0 156 58t61 152q0 57 -42.5 126.5t-94.5 87.5q-83 -45 -178 -45l-145 145
q144 7 261 66q169 85 169 174q0 147 -135 147q-170 0 -323 -102l-129 129q119 78 304 78q123 0 240 -77q131 -86 131 -204q0 -86 -42 -164q-44 -81 -116 -123q72 -86 258 -86q66 0 126.5 64t60.5 131v315h-144l-138 138l1273 -1l138 -137h-340v-1296l-184 187v1109h-427z
M1141 2117q-106 0 -247 -42l182 -185q95 14 138 14q139 0 316 -172q142 -138 232 -298h80v32q0 128 -22 261l-46 260q-39 223 -181 347q-31 27 -92 45q-82 24 -97 31l-2 -229q101 -34 137 -54q66 -36 107 -100q66 -103 112 -272q43 -157 48 -292l-168 244q-122 173 -235 277
q-145 133 -262 133zM745 -212l-113 -112l-113 112l113 113z" />
    <glyph glyph-name="glyph126" horiz-adv-x="1024" 
d="M128 0v1320h768v-1320h-768zM256 128h512v1064h-512v-1064z" />
    <glyph glyph-name="glyph127" horiz-adv-x="1024" 
d="M128 0v1320h768v-1320h-768zM256 128h512v1064h-512v-1064z" />
    <glyph glyph-name="glyph162" horiz-adv-x="1629" 
d="M421 975l-105 84q-57 46 -73 94q-25 76 -25 115q0 80 65 129q59 45 142 45q40 0 106 -15q144 -33 217 -174q47 -92 44 -170q-5 -119 -115 -186q104 -68 221 -68q199 0 349 143v-143q-146 -98 -292 -100q-210 -2 -338 133q-128 0 -224 -81q-103 -85 -103 -210
q0 -43 12 -71q39 -130 186 -135q75 -3 138 30q0 106 90 148q34 16 71 16q62 0 103 -39.5t41 -101.5q0 -53 -33 -109q-49 -84 -143 -92l69 -190l-61 -27l-94 213q-209 0 -338 127t-129 336q22 211 219 299zM601 1346q-31 18 -82 18q-106 0 -153 -82q-21 -37 -21 -80
q0 -119 102 -168q45 -10 62 -10q97 0 151 88q23 38 23 84q0 103 -82 150zM742 1434h508l137 -138h-538q-28 64 -52 90q-8 8 -55 48zM1247 1296h-109l-136 138h631l137 -138h-336v-1296l-187 187v1109z" />
    <glyph glyph-name="glyph163" horiz-adv-x="1359" 
d="M1115 1296h-1115l-138 138h1115zM975 901h-494q46 -17 153 -100q121 -93 146 -148q19 -41 19 -94q0 -102 -80 -186t-182 -99l104 -251l-61 -63l-121 290q-39 -12 -90 -12q-88 0 -150 50q-67 54 -67 140q0 149 143 152q71 2 121 -49q37 -38 49 -87q58 0 101.5 46t43.5 104
q0 100 -59 137l-385 244v80h809v-154zM975 1296h-109l-136 138h631l137 -138h-336v-1296l-187 187v1109z" />
    <glyph glyph-name="glyph167" horiz-adv-x="1384" 
d="M385 1296q-31 -41 -34 -110q-6 -123 111 -163q67 -23 218 -22l151 -149q-176 0 -298 -55q-163 -73 -163 -230q0 -95 76 -128q48 -21 158 -21q142 0 416 287v591h-635zM1020 485q-224 -213 -416 -213q-138 0 -241 116q-99 111 -99 251q0 186 131 295q-100 20 -168 93
q-72 76 -72 175q0 45 17 94h-172l-138 138h1522l140 -138h-341v-1296l-163 163v322zM673 102l-113 -112l-113 112l113 113z" />
    <glyph glyph-name="glyph168" horiz-adv-x="1331" 
d="M1019 694l109 109l108 -109l-108 -108zM-5 1296l-138 138h1476l140 -138h-524v-465h-417q-85 0 -123 -23q-49 -31 -49 -114q0 -31 42 -50q33 -15 69 -15q31 0 91.5 11t91.5 11q165 0 268 -91q107 -96 107 -259q0 -142 -96 -224q-90 -78 -234 -78q-184 0 -386 197
q-161 158 -267 363l41 41q56 -151 207 -275q159 -132 311 -132q90 0 181 52q104 59 104 142q0 50 -28 84.5t-76 34.5q-41 0 -128 -27.5t-133 -27.5q-74 0 -112 59l-176 272q-33 51 -33 111q0 123 223 123h356v280h-788zM802 -186l-113 -112l-113 112l113 113z" />
    <glyph glyph-name="glyph169" horiz-adv-x="1374" 
d="M0 1296l-138 138h1512l140 -138h-345v-1294l-162 164v1130h-1007zM0 1055h779l160 -160h-199q-160 0 -195 -29q-121 -100 -121 -180q0 -67 40 -114q42 -50 107 -50q115 0 249 94q123 86 187 195v-215q-138 -188 -357 -188q-22 0 -44 2q-90 8 -174 103.5t-84 186.5
q0 131 37 201h-233zM772 8l-113 -112l-113 112l113 113z" />
    <glyph glyph-name="glyph170" horiz-adv-x="1653" 
d="M1043 717q-1 -72 44 -143q50 -80 118 -80q66 8 106 114q33 87 33 164q-18 166 -110 186q-67 0 -154 -133q-36 -55 -37 -108zM1158 1083v213h-1158l-137 138h1790l137 -138h-495v-219q152 -145 152 -383q0 -184 -99 -350q176 -149 176 -358q0 -95 -46 -186
q-47 -95 -124 -146l-126 125q155 143 155 377q0 56 -17 83q-7 11 -57 60q-75 -117 -242 -207t-307 -90q-182 0 -307 83q-145 96 -145 271q0 125 98 211q-117 0 -189 83q-69 79 -69 198q0 88 79 159q76 70 165 70h197l164 -162q-29 0 -88 2.5t-89 2.5q-157 0 -219 -39
q-92 -58 -92 -121q0 -135 141 -135q124 0 267 49l160 -160q-190 0 -335 -84q-53 -31 -53 -123q0 -209 272 -209q99 0 246 120q120 98 195 204q-101 47 -187 141q-98 107 -98 203q0 125 79 218q83 97 206 99zM744 -142l-113 -112l-113 112l113 113z" />
    <glyph glyph-name="glyph172" horiz-adv-x="1582" 
d="M1219 957v339h-420v-295h-312q-212 0 -212 -157q0 -29 37.5 -62.5t66.5 -33.5q38 0 110.5 23.5t110.5 23.5q92 0 182 -40l86 -40l153 -1q144 -1 197 113q1 2 1 130zM621 172l142 -256l-84 -86l-140 305q-29 -8 -156 -8q-90 0 -158 60q-71 62 -71 151q0 68 46 109t115 41
q98 0 152 -48q37 -34 88 -135q133 40 189 75q101 63 101 165q0 76 -39 106q-34 25 -112 25q-32 0 -93 -22.5t-93 -22.5q-106 0 -154 20q-70 29 -138.5 127.5t-68.5 173.5q0 171 324 171q39 0 100.5 -2.5t77.5 -2.5v178h-649l-138 138h1718l140 -138h-341v-1296l-160 160v466
q-49 -27 -147 -31q30 1 -163 1v-25q4 -235 -161 -342zM458 -45l-113 -112l-113 112l113 113z" />
    <glyph glyph-name="glyph173" horiz-adv-x="1477" 
d="M1275 1296v-1294l-152 150l-1 631q-16 -25 -36 -33q-27 -11 -30 -13q-28 -25 -96 -25q-11 0 -23 1q5 -53 5 -124q0 -124 -69 -216q-77 -101 -197 -101q-134 0 -298 165q-79 80 -227 279l39 36q127 -153 187 -207q124 -110 241 -110q104 0 166 80q56 72 56 206
q0 87 -72 190q-79 114 -192 114q-107 0 -206 -114l-99 95q144 144 264 144q127 0 231 -105q58 -58 78 -85q38 -47 60 -107q29 -8 52 -8q4 0 35 -3q21 -1 35 2q19 4 36 18q53 47 53 79v355h-1115l-137 138h1612l137 -138h-337zM577 121l-113 -112l-113 112l113 113z" />
    <glyph glyph-name="glyph174" horiz-adv-x="1277" 
d="M775 1296h-775l-138 138h1419l138 -138h-468v-503h-240q-193 0 -235 -7q-147 -24 -205 -138q-44 -87 -36 -180q10 -112 93 -182q101 -86 213 -112q60 -14 94 -14q222 0 439 147l146 -147q-148 -110 -394 -152q-47 -8 -80 -8q-173 0 -291 57q-150 72 -219 175
q-40 59 -65 147q-23 81 -23 138q1 115 13 188q24 140 163 207q77 37 161 49q41 0 142 10h148v325zM802 -154l-113 -112l-113 112l113 113z" />
    <glyph glyph-name="glyph175" horiz-adv-x="1345" 
d="M1074 465q0 141 -116 230q-107 82 -252 82q-143 0 -251 -83q-118 -91 -118 -229q0 -139 118 -229q109 -83 251 -83q145 0 252 82q116 89 116 230zM599 1296h-593l-138 138h1482l137 -138h-747v-424q26 -1 109 -41q299 -145 299 -395q0 -208 -145 -326
q-135 -110 -347 -110t-359 146t-147 358q0 206 215 313q47 8 133 41q101 66 101 131v307zM750 -142l-113 -112l-113 112l113 113z" />
    <glyph glyph-name="glyph178" horiz-adv-x="1436" 
d="M1574 1297h-342v-1297l-177 178v1119h-349v-564q0 -129 1 -105q-2 -46 -24 -81q-48 -78 -156 -88q-55 0 -120 43q-85 56 -115 86q-142 138 -142 270v439h-150l-137 137h1574zM568 905v392h-276v-482q0 -144 43 -170l55 -37q31 -20 51 -20q28 3 76 25q48 45 51 83v209z
M609 203l-113 -112l-113 112l113 113z" />
    <glyph glyph-name="glyph179" horiz-adv-x="1248" 
d="M0 1296l-137 138h1387l137 -138h-347v-1296l-166 168v713h-285q-190 0 -260 -86q-47 -57 -49 -179q-2 -105 75 -212l257 -359l-35 -39l-277 346q-73 91 -107 187q-42 118 -42 184q0 49 6 88q16 102 103 164q82 59 188 59h426v262h-874zM810 -133l-113 -112l-113 112
l113 113z" />
    <glyph glyph-name="glyph180" horiz-adv-x="1364" 
d="M997 1296h-219l-137 138h724l140 -138h-342v-1296l-166 169v353q-57 -65 -155 -102q-85 -33 -165 -33q-175 0 -325 147q-128 126 -192 281q118 0 251 70q154 81 154 190q0 256 -161 256q-66 0 -109 -38t-43 -103t45.5 -114.5t110.5 -49.5v-45q-118 0 -189 79
q-67 75 -67 195q0 172 194 172q126 0 239 -147q107 -139 105 -268q-2 -109 -125 -208q-110 -89 -225 -108q44 -86 131 -133q84 -45 184 -41q95 4 159 44q53 33 130 124q53 62 53 184v422zM620 196l-113 -112l-113 112l113 113z" />
    <glyph glyph-name="glyph181" horiz-adv-x="1193" 
d="M10 1301l-138 138h1325l139 -138h-445v-377h-358q-218 0 -264 -166q-13 -47 -13 -72q0 -15 6 -57q11 -77 71 -137t136 -62q74 -2 131 29q-20 28 -20 116q8 44 43 72q47 38 98 39q68 1 134 -52q61 -49 61 -122q0 -13 -2 -25q-5 -34 -10 -49q-8 -21 -31 -59
q-14 -23 -58 -55l178 -267l-76 -77l-194 301q-51 -11 -94 -11q-35 0 -68 4q-157 37 -278 191q-142 180 -133 346q6 107 72 183q72 81 176 81h331v226h-719zM613 114l-113 -112l-113 112l113 113z" />
    <glyph glyph-name="glyph182" horiz-adv-x="1338" 
d="M536 1238q0 41 -39 79q-32 31 -103 31q-63 0 -96 -30q-45 -41 -45 -103q12 -98 154 -95q63 2 96 33.5t33 84.5zM653 382q127 56 224 168q91 105 91 213v533h-192l-137 138h706l137 -138h-346v-1296l-168 169v230q-118 -98 -181 -129q-91 -45 -218 -45q-130 0 -213 95
q-80 92 -80 223q0 213 153 311q-114 49 -191 134q-90 99 -87 208q2 87 59 159q50 63 131 72q22 2 42 2q104 0 158 -61q51 -59 46 -162q-3 -69 -64.5 -109t-121.5 -40q-87 0 -125 10q7 -13 72 -79q75 -79 146 -87q30 11 69 18q6 1 111 1l138 -140q-20 0 -61 1t-61 1
q-191 0 -287 -100q-42 -44 -49 -102q-9 -78 45 -145q58 -71 127 -70q72 -7 127 17zM630 -2l-113 -112l-113 112l113 113z" />
    <glyph glyph-name="glyph184" horiz-adv-x="1143" 
d="M0 1296l-137 138h1279l139 -138h-339v-1296l-172 173v413q-82 -49 -244 -49q-159 16 -268 144q-108 125 -108 286v329h-150zM301 881q0 -86 47 -156q54 -80 135 -80q87 0 152 48q22 14 80 70q23 26 55 89v444h-469v-415zM570 254l-113 -112l-113 112l113 113z" />
    <glyph glyph-name="glyph186" horiz-adv-x="1280" 
d="M1417 1296h-337v-1296l-158 160l-2 336q0 106 2 111q-178 -217 -411 -212q-129 3 -232 90q-135 114 -129 287q7 188 169 277q88 48 163 48q125 0 162 -17q126 -57 211 -162l-39 -31q-112 71 -227 76q-64 3 -119 -15l241 -346q124 78 211 234v460h-922l-137 138h1417z
M672 570l-257 360q-76 -28 -129 -93q-57 -69 -57 -147q0 -89 66 -138q76 -56 163 -54q119 3 214 72zM590 214l-113 -112l-113 112l113 113z" />
    <glyph glyph-name="glyph187" horiz-adv-x="1289" 
d="M567 588q-7 -62 -40 -187q-8 -30 -16 -41q-12 -20 -35 -24q-61 0 -94 43l-184 237q-39 50 -39 80q2 6 4 23q18 33 96 33h152v235q-106 0 -166 17q-226 64 -226 270q0 111 82 160q33 20 66 20q79 0 131 -35q207 -139 251 -376q25 -135 25 -291h332v544h-193l-140 138h714
l139 -138h-340v-1296l-180 178v410h-339zM210 1065q51 -29 102 -29q64 0 99 23l-1 67q0 97 -49 152q-78 88 -149 88q-48 0 -77.5 -35t-29.5 -84q0 -123 105 -182zM586 133l-113 -112l-113 112l113 113z" />
    <glyph glyph-name="glyph188" horiz-adv-x="1362" 
d="M527 336q-8 -6 -61 -6q-23 0 -225 239l-61 68q-31 36 -31 71q0 68 87 68q53 0 148 -2v522h-384l-137 138h1499l137 -138h-345v-1296l-183 183v419h-426q0 -114 2 -202q1 -48 -20 -64zM971 1296h-426v-522h426v522zM510 128l-113 -112l-113 112l113 113z" />
    <glyph glyph-name="glyph191" horiz-adv-x="1530" 
d="M1157 169v721q-22 3 -44 3q-155 0 -240 -133q-54 -86 -115 -207l-134 129l82 92q-50 68 -70 84q-41 33 -104 33q-213 0 -213 -190q0 -25 4 -54q4 -32 35 -90q43 -80 60 -108q39 -62 77 -97l278 -277l-43 -42l-331 297q-249 215 -249 441q0 114 70 188.5t183 74.5
q108 0 203 -62q50 -33 137 -161q55 70 163 115q99 42 189 42q36 0 62 -8v336h-1157l-137 138h1667l140 -138h-345v-1296zM992 3l-113 -112l-113 112l113 113z" />
    <glyph glyph-name="glyph193" horiz-adv-x="1241" 
d="M0 1296l-136 138h1375l135 -138h-337v-1296l-178 178v359q-75 -50 -172 -88q-111 -43 -186 -39q-152 8 -263 147q-88 111 -88 262q17 78 58 125q159 150 352 143q192 -6 299 -184v393h-859zM838 858q-32 68 -198 68q-178 0 -316 -140q-67 -68 -67 -139q0 -94 153 -94
q192 0 349 162q79 81 79 143zM597 188l-113 -112l-113 112l113 113z" />
    <glyph glyph-name="glyph194" horiz-adv-x="1541" 
d="M0 1296l-137 138h352q-63 -68 -87 -138h-128zM625 891q-76 -62 -207 -62q-112 11 -181 103q-65 85 -65 201q0 124 70 217q76 102 196 104q161 2 287 -227q50 -92 55 -230q0 -11 -4 -77q-19 -281 -248 -467l268 -418l-44 -35l-293 424q-64 -31 -144 -14q-165 36 -165 151
q0 123 102 145q86 0 75 2q43 -6 87 -50q9 -9 29.5 -41t20.5 -40q161 75 161 314zM418 1378q-105 -2 -105 -174q0 -76 29 -151q53 -138 180 -138q82 17 82 152q0 116 -37 201q-49 112 -149 110zM764 1296q-41 80 -110 138h885l139 -138h-345v-1296l-164 168v1128h-405z
M567 162l-113 -112l-113 112l113 113z" />
    <glyph glyph-name="glyph195" horiz-adv-x="1117" 
d="M298 791q0 -82 63 -130q44 -34 132 -36q80 -2 203 118l-398 547v-499zM360 1296l387 -536v-129q-84 -94 -211 -94q-114 0 -213 67q-174 117 -174 262v430h-149l-137 138h1251l140 -138h-343v-1296l-164 165v1131h-387zM533 242l-113 -112l-113 112l113 113z" />
    <glyph glyph-name="glyph196" horiz-adv-x="1381" 
d="M1008 1296h-465q34 -41 45 -79l24 -86q13 -82 7 -130q-12 -94 -62 -164q68 -62 209 -62q157 0 242 89v432zM0 1296l-137 138h1516l137 -138h-343v-1296l-165 168v527q-94 -51 -217 -51q-171 0 -290 68q-58 -88 -152 -80q128 -252 451 -636l-41 -43q-223 221 -392 443
q-219 288 -219 423q0 57 35.5 97t91.5 40q78 0 137 -40q70 65 70 153q0 124 -59 177q-13 13 -25 27q-16 14 -51 24zM409 151l-113 -112l-113 112l113 113z" />
    <glyph glyph-name="glyph197" horiz-adv-x="1171" 
d="M0 1301l-137 138h1310l139 -138h-399v-357h-432q-90 0 -114 -6q-37 -9 -70 -31q-43 -28 -43 -59q0 -135 90 -211q165 100 304 100q119 0 216 -72q105 -79 105 -194q0 -205 -133 -299l-103 117q58 21 100.5 79.5t42.5 118.5q0 53 -41 94.5t-94 41.5q-141 0 -273 -95
q-144 -104 -144 -239q0 -158 192 -260q180 -95 313 -141l-26 -50q-151 49 -306 128q-209 107 -259 192q-58 99 -58 221q0 125 103 217q-132 119 -132 285q0 206 265 206h331v214h-747zM498 -193l-113 -112l-113 112l113 113z" />
    <glyph glyph-name="glyph198" horiz-adv-x="1024" 
d="M128 0v1320h768v-1320h-768zM256 128h512v1064h-512v-1064z" />
    <glyph glyph-name="glyph199" horiz-adv-x="1024" 
d="M128 0v1320h768v-1320h-768zM256 128h512v1064h-512v-1064z" />
    <glyph glyph-name="glyph200" horiz-adv-x="1275" 
d="M1274 840q-132 -14 -191 -46q-65 -36 -139 -141v-653l-166 168v291q-44 -48 -128 -82.5t-151 -34.5q-144 0 -246.5 99t-102.5 243q0 148 97 245t245 97q188 0 286 -160v-61q-88 78 -202 78q-128 0 -220 -83q-96 -85 -96 -212q0 -62 35 -102t96 -40q106 0 243 108
q144 114 144 218v524h-772l-139 138h1411l140 -138h-474v-385q76 71 278 67l52 -1v-137z" />
    <glyph glyph-name="glyph201" horiz-adv-x="1161" 
d="M1096 877q-4 22 -96 36q-71 11 -113 11q-52 0 -78 -13q-56 -28 -89 -94q-31 -61 -31 -127q0 -32 8 -47q43 -78 158 -78q145 0 210 109q43 72 43 141q0 39 -12 62zM467 1296q43 -139 43 -256q0 -103 -18 -202q-4 -25 -43 -152q-3 -9 -31 -65q-22 -44 -22 -68
q0 -65 90 -145q32 -52 129 -115q86 -56 151 -64q37 -6 73 -6q196 0 324 152v-180l-141 -64q-94 -33 -139 -33q-93 0 -229 62q-52 24 -131 90l-64 53q-157 132 -260 326q-7 13 -22 61q-25 79 -25 115q0 37 17 72q20 42 51 49q29 0 45 -2q46 -6 59 -6q38 8 59 79q17 58 17 109
q0 113 -80 190h-320l-137 138h1303l137 -138h-836zM1163 573q-9 -19 -51 -51q-45 -35 -90 -53q-85 -35 -133 -33q-131 4 -213 100q-80 91 -80 224q0 130 69 209q72 84 200 84q153 0 298 -119v-361z" />
    <glyph glyph-name="glyph202" horiz-adv-x="918" 
d="M1060 1296h-519v-806q2 -14 2 -36q0 -71 -49 -86q-10 -3 -15 -3q-19 0 -42 22l-41 40l-207 270q-32 42 -39 82v47q10 29 57 29h185v441h-392l-138 138h1061z" />
    <glyph glyph-name="glyph203" horiz-adv-x="1019" 
d="M694 1001l117 -149q-171 0 -290 -55q-157 -73 -157 -224q0 -154 185 -154q27 0 55 3q80 9 223 115l193 151v-201q-252 -215 -416 -215q-137 0 -240 118q-98 114 -98 253q0 177 129 291q-99 21 -168 94q-72 77 -72 176q0 43 17 92h-172l-137 138h1159l137 -138h-670
q-57 0 -97 -35.5t-40 -91.5q0 -49 37 -100t84 -68h221z" />
    <glyph glyph-name="glyph204" horiz-adv-x="1335" 
d="M1024 694l109 109l108 -109l-108 -108zM0 1296l-138 138h1476l140 -138h-524v-465h-417q-85 0 -123 -23q-49 -31 -49 -114q0 -31 42 -50q33 -15 69 -15q31 0 91.5 11t91.5 11q165 0 268 -91q107 -96 107 -259q0 -142 -96 -224q-90 -78 -234 -78q-184 0 -386 197
q-161 158 -267 363l41 41q56 -151 207 -275q159 -132 311 -132q90 0 181 52q104 59 104 142q0 50 -28 84.5t-76 34.5q-41 0 -128 -27.5t-133 -27.5q-74 0 -112 59l-176 272q-33 51 -33 111q0 123 223 123h356v280h-788zM746 -251l-157 153q198 1 177 2q77 -4 159 -43
q61 -33 201 -159q127 -114 219 -213l-45 -41q-58 69 -152 149q-104 89 -151 102q-105 53 -213 53q-20 0 -38 -3z" />
    <glyph glyph-name="glyph205" horiz-adv-x="1007" 
d="M0 1296l-137 138h1147l137 -138h-1147zM0 1053h789l161 -160l-98 2h-60q-205 0 -247 -35q-121 -100 -121 -178q0 -32 18 -78q29 -74 129 -86q114 0 258 100q108 75 178 191v-191q-120 -215 -401 -215q-104 13 -190 125q-67 88 -68 168q-1 127 37 199h-223z" />
    <glyph glyph-name="glyph206" horiz-adv-x="1449" 
d="M1043 717q-1 -72 44 -143q50 -80 118 -80q66 8 106 114q33 87 33 164q-18 166 -110 186q-67 0 -154 -133q-36 -55 -37 -108zM760 2q-182 0 -307 83q-145 96 -145 271q0 125 98 211q-117 0 -189 83q-69 79 -69 198q0 88 79 159q76 70 165 70h197l164 -162q-29 0 -88 2.5
t-89 2.5q-157 0 -219 -39q-92 -58 -92 -121q0 -135 141 -135q144 0 287 49l155 -153q-159 0 -254 -35q-149 -55 -149 -179q0 -209 272 -209q99 0 246 120q120 98 195 204q-285 131 -285 344q0 125 79 218q83 97 206 99v213h-1158l-137 138h1589l138 -138h-295v-219
q152 -145 152 -383q0 -377 -355 -587q-177 -105 -332 -105z" />
    <glyph glyph-name="glyph207" horiz-adv-x="1078" 
d="M0 1296l-137 138h1219l137 -138h-1219zM1079 848h-293q106 -121 106 -283q0 -104 -71 -185t-174 -81q-85 0 -218 107q-181 146 -282 552h61q61 -172 141 -292q119 -177 248 -177q43 0 82 40.5t39 84.5q0 99 -67.5 219.5t-151.5 176.5h580v-162z" />
    <glyph glyph-name="glyph208" horiz-adv-x="1161" 
d="M1163 644q-61 -38 -133 -46q-18 -2 -121 -2q2 -174 -66 -264q-54 -72 -222 -160l102 -156l-74 -106l-110 225q-30 -8 -123 -8q-108 0 -180 50q-82 58 -82 161q0 68 46 109t115 41q172 0 260 -173q240 72 240 265q0 60 -34 81q-25 15 -87 15q-32 0 -93 -22.5t-93 -22.5
q-105 0 -154 20q-70 29 -136.5 127t-70.5 174q-9 160 297 165q60 1 205 1v178h-649l-135 137h1303l140 -135l-509 -2v-295h-312q-202 0 -202 -157q0 -31 32 -63.5t62 -32.5q42 0 122 23.5t122 23.5q110 0 137 -5q91 -17 119 -86q124 10 174 43q39 26 50 37q25 24 60 79v-219
z" />
    <glyph glyph-name="glyph209" horiz-adv-x="1157" 
d="M-138 1434h1301l138 -138h-1301zM1159 713q-137 -33 -177 -33q-23 0 -46 3q5 -53 5 -94q0 -143 -72 -226q-76 -89 -217 -89q-136 0 -284 174l-218 278l29 26q261 -317 438 -317q86 0 153.5 66t67.5 152q0 154 -69 253q-78 113 -226 113q-69 0 -154 -98l-119 115
q111 111 241 111q57 0 85 -3q85 -9 185 -125q86 -100 122 -196q30 -8 46 -8q41 0 115 27q84 31 95 63v-192z" />
    <glyph glyph-name="glyph210" horiz-adv-x="1277" 
d="M775 1296h-775l-138 138h1419l138 -138h-468v-503h-240q-193 0 -235 -7q-147 -24 -205 -138q-44 -87 -36 -180q10 -112 93 -182q101 -86 213 -112q60 -14 94 -14q222 0 439 147l146 -147q-148 -110 -394 -152q-47 -8 -80 -8q-173 0 -291 57q-150 72 -219 175
q-40 59 -65 147q-23 81 -23 138q1 115 13 188q24 140 163 207q77 37 161 49q41 0 142 10h148v325zM686 -265l-157 153q198 1 177 2q77 -4 159 -43q61 -33 201 -159q127 -114 219 -213l-45 -41q-58 69 -152 149q-104 89 -151 102q-105 53 -213 53q-20 0 -38 -3z" />
    <glyph glyph-name="glyph211" horiz-adv-x="1346" 
d="M1074 465q0 141 -116 230q-107 82 -252 82q-143 0 -251 -83q-118 -91 -118 -229q0 -139 118 -229q109 -83 251 -83q145 0 252 82q116 89 116 230zM599 1296h-593l-138 138h1482l137 -138h-747v-424q26 -1 109 -41q299 -145 299 -395q0 -208 -145 -326
q-135 -110 -347 -110t-359 146t-147 358q0 206 215 313q47 8 133 41q101 66 101 131v307zM616 -265l-157 153q198 1 177 2q77 -4 159 -43q61 -33 201 -159q127 -114 219 -213l-45 -41q-58 69 -152 149q-104 89 -151 102q-105 53 -213 53q-20 0 -38 -3z" />
    <glyph glyph-name="glyph212" horiz-adv-x="1286" 
d="M881 1296h-881l-137 138h1421l139 -138h-393v-436l-468 2q-189 1 -189 -90q0 -54 30 -92q32 -41 85 -41q42 0 125 13.5t125 13.5q144 0 247 -122q99 -116 99 -263q0 -117 -117 -203q-107 -79 -229 -79q-227 0 -430 206q-137 139 -285 403l61 35q96 -182 233 -313
q173 -166 338 -166q109 0 197 71q95 75 95 181q0 44 -30 75t-73 31q-45 0 -128.5 -34.5t-127.5 -34.5q-114 0 -201 118q-27 35 -120 215q-37 71 -37 115q0 85 91 113q51 16 161 16h399v266zM796 -265l-157 153q198 1 177 2q77 -4 159 -43q61 -33 201 -159q127 -114 219 -213
l-45 -41q-58 69 -152 149q-104 89 -151 102q-105 53 -213 53q-20 0 -38 -3z" />
    <glyph glyph-name="glyph213" horiz-adv-x="1295" 
d="M686 178q133 0 216 49q101 59 101 183q0 64 -42 105.5t-107 41.5q-205 0 -205 -253q0 -53 37 -126zM780 1296h-780l-137 138h1434l140 -138h-485v-424q-28 0 -100 1q-66 1 -100 1q-486 0 -486 -284q0 -147 96 -268q103 -129 246 -129q-58 141 -58 286q0 94 52 169
q59 83 149 83q160 0 258 -154q86 -134 86 -303q0 -116 -105 -198q-97 -76 -216 -76q-234 0 -432 221q-193 216 -193 453q0 108 59 202q65 104 202 138q81 20 253 20q59 0 117 -8v270zM746 -265l-157 153q198 1 177 2q77 -4 159 -43q61 -33 201 -159q127 -114 219 -213
l-45 -41q-58 69 -152 149q-104 89 -151 102q-105 53 -213 53q-20 0 -38 -3z" />
    <glyph glyph-name="glyph214" horiz-adv-x="936" 
d="M1078 1296l-373 1v-671q0 -71 -61 -122q-57 -47 -129 -47q-42 0 -120 55q-245 173 -245 344l-1 440h-149l-138 138h1078zM568 1297h-276v-482q0 -143 43 -170q90 -57 106 -57q128 0 128 177z" />
    <glyph glyph-name="glyph215" horiz-adv-x="822" 
d="M5 1296l-138 138h1017l138 -138h-1017zM882 881h-332q-117 0 -192 -53q-85 -61 -85 -173q0 -33 5 -57q11 -51 57 -154l287 -399l-35 -43l-279 350q-114 143 -148 340q-3 17 -3 43q0 122 87.5 209.5t209.5 87.5h428v-151z" />
    <glyph glyph-name="glyph216" horiz-adv-x="966" 
d="M708 1296l-140 138h398l137 -138h-395zM967 522q-137 -135 -320 -135q-189 0 -327 119q-142 122 -158 309q77 0 168 31q99 34 145 84q90 99 90 145q0 256 -161 256q-66 0 -109 -38t-43 -103t45.5 -114.5t110.5 -49.5l2 -45q-115 0 -186.5 79t-71.5 195q0 172 194 172
q107 0 228 -155q116 -148 116 -260q0 -108 -124 -208q-111 -90 -226 -108q39 -74 113.5 -124t154.5 -50q81 0 203 68q128 71 156 141v-209z" />
    <glyph glyph-name="glyph217" horiz-adv-x="1181" 
d="M0 1301l-138 138h1325l139 -138h-445v-377h-358q-218 0 -264 -166q-13 -47 -13 -72q0 -15 6 -57q11 -77 71 -137t136 -62q74 -2 131 29q-20 28 -20 116q8 44 43 72q47 38 98 39q68 1 134 -52q61 -49 61 -122q0 -13 -2 -25q-5 -34 -10 -49q-8 -21 -31 -59q-14 -23 -58 -55
l178 -267l-76 -77l-194 301q-51 -11 -94 -11q-35 0 -68 4q-157 37 -278 191q-142 180 -133 346q6 107 72 183q72 81 176 81h331v226h-719zM796 -343l-157 153q198 1 177 2q77 -4 159 -43q61 -33 201 -159q127 -114 219 -213l-45 -41q-58 69 -152 149q-104 89 -151 102
q-105 53 -213 53q-20 0 -38 -3z" />
    <glyph glyph-name="glyph218" horiz-adv-x="998" 
d="M677 1296q-13 99 -87 138h408l137 -138h-458zM550 1249q0 53 -53 88q-32 21 -93 21q-62 0 -106 -40q-35 -32 -35 -93q11 -88 154 -85q57 1 86 23q47 35 47 86zM998 409q-224 -184 -429 -184q-130 0 -213 95q-80 92 -80 223q0 213 153 311q-111 47 -189 134
q-89 99 -89 208q0 82 45 148q54 79 145 83q115 5 182 -49q73 -59 64 -172q-5 -62 -66 -103q-55 -36 -120 -36q-28 0 -105 20q3 -49 76 -124q63 -67 112 -72q54 29 93 29h90l135 -140q-19 0 -56.5 1t-56.5 1q-200 0 -286 -110q-39 -50 -39 -92q0 -124 58 -169q46 -36 153 -36
q8 0 77 12q57 10 166 92q21 16 60 64q46 55 58 87q25 37 62 117v-338z" />
    <glyph glyph-name="glyph219" horiz-adv-x="861" 
d="M862 807h-420v-224q-6 -57 -35 -70q-44 4 -71 38l-118 148q-70 88 -70 149q0 75 81 114q8 2 633 2v-157zM0 1296l-138 138h999l138 -138h-999z" />
    <glyph glyph-name="glyph220" horiz-adv-x="751" 
d="M752 582q-90 -45 -228 -45q-156 16 -272 159q-102 125 -102 267v333h-150l-138 138h892l138 -138h-611v-415q0 -94 54 -162q58 -74 150 -74q66 0 152 64q80 58 115 122v-249z" />
    <glyph glyph-name="glyph221" horiz-adv-x="1246" 
d="M1156 876q-28 -9 -91 -44q-18 -18 -65 -57q-15 -15 -98 -92l1 -683l-151 155v431q-82 -49 -224 -49q-159 16 -268 144q-108 125 -108 286v329h-152l-138 138h1388l139 -138h-486l-1 -404l97 69q26 18 43 26q34 14 84 17l118 2v-118q-24 -2 -88 -12zM303 881
q0 -86 47 -156q54 -80 135 -80q71 0 155 62q81 59 112 127v462h-449v-415zM-197 1018z" />
    <glyph glyph-name="glyph222" horiz-adv-x="934" 
d="M-2 1296l-137 138h1077l138 -138h-1078zM936 786v-206q-194 -186 -412 -185q-140 1 -243 90q-134 116 -129 287q5 177 188 277q75 41 155 41q64 0 160 -29q118 -36 253 -203l-29 -31l-76 59q-62 47 -97 58q-59 19 -106 19q-27 0 -115 -19l230 -352q165 117 221 194z
M428 930q-89 -24 -176 -134q-16 -20 -22 -86q-7 -70 24 -113q46 -64 106 -84q75 -25 119 -25q83 0 197 82z" />
    <glyph glyph-name="glyph223" horiz-adv-x="893" 
d="M565 752h330v-170h-336q0 -44 -29 -148l-10 -36q-18 -66 -55 -72q-58 0 -92 45l-183 245q-41 55 -41 80q0 56 101 56h151v237q-115 0 -168 15q-225 64 -225 270q0 111 82 160q33 20 68 20q73 0 120 -33q146 -82 203 -202q84 -178 84 -467zM716 1296l-138 138h317
l138 -138h-317zM123 1135q53 -103 182 -103q53 0 96 27q13 47 13 67q0 84 -62 152q-78 86 -151 86q-107 0 -107 -117q0 -56 29 -112z" />
    <glyph glyph-name="glyph224" horiz-adv-x="962" 
d="M961 604h-426v-194q0 -60 -18 -72q-66 0 -88 27l-242 301q-37 46 -37 82q11 26 86 26h138v522h-374l-138 138h1099l140 -138h-566v-522h426v-170z" />
    <glyph glyph-name="glyph225" horiz-adv-x="893" 
d="M893 1434h-1031l138 -138h302q110 -69 110 -215q0 -49 -6 -69q-14 -84 -93 -135q-71 -46 -161 -46q0 -148 80 -264q123 -178 356 -178q177 0 307 149l-1 382q-2 -8 -18 -107q-9 -58 -28 -94q-122 -234 -313 -234q-16 0 -72 11q-153 45 -200 192q60 16 92 33q45 24 102 84
q103 109 103 250t-76 241h548z" />
    <glyph glyph-name="glyph226" horiz-adv-x="728" 
d="M0 1296l-137 138h865l138 -138h-866zM726 823v-190l-231 -4q-118 -2 -266.5 62.5t-227.5 152.5v61q183 -108 426 -114q107 -2 299 32z" />
    <glyph glyph-name="glyph227" horiz-adv-x="1044" 
d="M0 1296l-138 138h1182l138 -138h-1182zM1042 776q-143 -41 -242 -209q-31 -53 -51 -110l-156 118l86 113q-24 73 -92 100q-43 17 -74 17q-14 0 -63 -10q-135 -45 -135 -234q0 -41 33 -88q2 -8 20 -41q31 -57 59 -88q18 -20 62 -57q8 -10 47 -49q13 -13 41 -33
q18 -19 39 -35l20 -20l-39 -52q-19 8 -84 66l-67 59q-15 12 -60 51q-233 205 -233 431q0 46 16 90q55 151 217 151q105 0 199 -62t129 -159q130 136 250 176q68 23 78 23v-148z" />
    <glyph glyph-name="glyph228" horiz-adv-x="1443" 
 />
    <glyph glyph-name="glyph229" horiz-adv-x="925" 
d="M0 1296l-138 138h1066l137 -138h-1065zM925 786v-206q-200 -189 -413 -185q-162 3 -261.5 101.5t-99.5 260.5q0 137 97.5 235t234.5 98q110 0 197 -43q70 -35 176 -129l-29 -41q-133 81 -225 81q-340 0 -350 -260q-3 -81 63 -133q60 -47 144 -47q103 0 255 91
q142 85 211 177z" />
    <glyph glyph-name="glyph246" horiz-adv-x="1067" 
d="M0 1296l-138 138h363q-70 -65 -86 -138h-139zM787 1296q-48 86 -117 138h461l137 -138h-481zM627 891q-76 -62 -207 -62q-112 11 -181 103q-65 85 -65 201q0 124 70 217q76 102 196 104q161 2 287 -227q50 -92 55 -230q0 -11 -4 -77q-19 -281 -248 -467l268 -418l-44 -45
l-293 434q-29 -14 -144 -14q-165 39 -165 151q0 113 102 135q81 0 162 -88q30 -33 30 -41q181 84 181 324zM420 1378q-105 -2 -105 -174q0 -76 29 -151q53 -138 180 -138q82 17 82 152q0 116 -37 201q-49 112 -149 110z" />
    <glyph glyph-name="glyph247" horiz-adv-x="751" 
d="M0 1296l-138 138h889l138 -138h-527l387 -536v-129q-84 -94 -211 -94q-99 0 -213 77q-174 117 -174 252v430h-151zM300 791q0 -72 63 -120q57 -44 132 -46q80 -2 203 118l-398 547v-499z" />
    <glyph glyph-name="glyph248" horiz-adv-x="980" 
d="M533 1296q41 -85 41 -196q0 -92 -45 -213q98 -82 217 -82q103 0 232 104v-184q-94 -51 -207 -51q-156 0 -310 88q-36 -107 -122 -146q211 -360 443 -610l-43 -43q-177 175 -358 419q-233 314 -233 447q0 140 100 140q77 0 134 -43q67 52 67 149q0 111 -38 161
q-22 29 -87 61l-324 -1l-138 138h1118l138 -138h-585z" />
    <glyph glyph-name="glyph249" horiz-adv-x="1131" 
d="M406 473q-82 -92 -82 -221q0 -76 39 -152q78 -153 330 -245l248 -91v-51l-338 84q-177 44 -300 181q-130 145 -130 321q0 156 115 297q-132 119 -132 285q0 122 111 180q50 26 154 26h331v209h-752l-138 138h1273l139 -138h-356v-352h-432q-76 0 -114 -6
q-101 -29 -115 -90q0 -133 92 -211q17 11 137 48q74 23 605 12v-165q-320 5 -401 2q-238 -9 -284 -61z" />
    <glyph glyph-name="glyph250" horiz-adv-x="1195" 
d="M371 975l-105 84q-57 46 -73 94q-25 76 -25 115q0 80 65 129q59 45 142 45q40 0 106 -15q144 -33 217 -174q47 -92 44 -170q-5 -119 -115 -186q104 -68 221 -68q199 0 349 143v-143q-146 -98 -292 -100q-210 -2 -338 133q-128 0 -224 -81q-103 -85 -103 -210
q0 -43 12 -71q39 -130 186 -135q75 -3 138 30q0 106 90 148q34 16 71 16q62 0 103 -39.5t41 -101.5q0 -53 -33 -109q-49 -84 -143 -92l69 -190l-61 -27l-94 213q-209 0 -338 127t-129 336q22 211 219 299zM551 1346q-31 18 -82 18q-106 0 -153 -82q-21 -37 -21 -80
q0 -119 102 -168q45 -10 62 -10q97 0 151 88q23 38 23 84q0 103 -82 150zM692 1434h508l137 -138h-538q-28 64 -52 90q-8 8 -55 48z" />
    <glyph glyph-name="glyph251" horiz-adv-x="977" 
d="M1118 1296h-1115l-138 138h1115zM978 901h-494q46 -17 153 -100q121 -93 146 -148q19 -41 19 -94q0 -102 -80 -186t-182 -99l104 -251l-61 -63l-121 290q-39 -12 -90 -12q-88 0 -150 50q-67 54 -67 140q0 149 143 152q71 2 121 -49q37 -38 49 -87q58 0 101.5 46t43.5 104
q0 100 -59 137l-385 244v80h809v-154z" />
    <glyph glyph-name="glyph252" horiz-adv-x="1273" 
d="M1274 840q-132 -14 -191 -46q-65 -36 -139 -141v-653l-166 168v291q-44 -48 -128 -82.5t-151 -34.5q-144 0 -246.5 99t-102.5 243q0 148 97 245t245 97q188 0 286 -160v-61q-88 78 -202 78q-128 0 -220 -83q-96 -85 -96 -212q0 -62 35 -102t96 -40q106 0 243 108
q144 114 144 218v524h-772l-139 138h1411l140 -138h-474v-385q76 71 278 67l52 -1v-137zM472 115l-113 -112l-113 112l113 113z" />
    <glyph glyph-name="glyph253" horiz-adv-x="1163" 
d="M1096 877q-4 22 -96 36q-71 11 -113 11q-52 0 -78 -13q-56 -28 -89 -94q-31 -61 -31 -127q0 -32 8 -47q43 -78 158 -78q145 0 210 109q43 72 43 141q0 39 -12 62zM467 1296q43 -139 43 -256q0 -103 -18 -202q-4 -25 -43 -152q-3 -9 -31 -65q-22 -44 -22 -68
q0 -65 90 -145q32 -52 129 -115q86 -56 151 -64q37 -6 73 -6q196 0 324 152v-180l-141 -64q-94 -33 -139 -33q-93 0 -229 62q-52 24 -131 90l-64 53q-157 132 -260 326q-7 13 -22 61q-25 79 -25 115q0 37 17 72q20 42 51 49q29 0 45 -2q46 -6 59 -6q38 8 59 79q17 58 17 109
q0 113 -80 190h-320l-137 138h1303l137 -138h-836zM1163 573q-9 -19 -51 -51q-45 -35 -90 -53q-85 -35 -133 -33q-131 4 -213 100q-80 91 -80 224q0 130 69 209q72 84 200 84q153 0 298 -119v-361zM740 -47l-113 -112l-113 112l113 113z" />
    <glyph glyph-name="glyph254" horiz-adv-x="925" 
d="M1060 1296h-519v-806q2 -14 2 -36q0 -71 -49 -86q-10 -3 -15 -3q-19 0 -42 22l-41 40l-207 270q-32 42 -39 82v47q10 29 57 29h185v441h-392l-138 138h1061zM570 29l-113 -112l-113 112l113 113z" />
    <glyph glyph-name="glyph255" horiz-adv-x="1021" 
d="M694 1001l117 -149q-171 0 -290 -55q-157 -73 -157 -224q0 -154 185 -154q27 0 55 3q80 9 223 115l193 151v-201q-252 -215 -416 -215q-137 0 -240 118q-98 114 -98 253q0 177 129 291q-99 21 -168 94q-72 77 -72 176q0 43 17 92h-172l-137 138h1159l137 -138h-670
q-57 0 -97 -35.5t-40 -91.5q0 -49 37 -100t84 -68h221zM742 7l-113 -112l-113 112l113 113z" />
    <glyph glyph-name="glyph256" horiz-adv-x="1333" 
d="M1024 694l109 109l108 -109l-108 -108zM0 1296l-138 138h1476l140 -138h-524v-465h-417q-85 0 -123 -23q-49 -31 -49 -114q0 -31 42 -50q33 -15 69 -15q31 0 91.5 11t91.5 11q165 0 268 -91q107 -96 107 -259q0 -142 -96 -224q-90 -78 -234 -78q-184 0 -386 197
q-161 158 -267 363l41 41q56 -151 207 -275q159 -132 311 -132q90 0 181 52q104 59 104 142q0 50 -28 84.5t-76 34.5q-41 0 -128 -27.5t-133 -27.5q-74 0 -112 59l-176 272q-33 51 -33 111q0 123 223 123h356v280h-788zM786 -304l-113 -112l-113 112l113 113zM845 -231
l-157 153q198 1 177 2q77 -4 159 -43q61 -33 201 -159q127 -114 219 -213l-45 -41q-58 69 -152 149q-104 89 -151 102q-105 53 -213 53q-20 0 -38 -3z" />
    <glyph glyph-name="glyph257" horiz-adv-x="1008" 
d="M0 1296l-137 138h1147l137 -138h-1147zM0 1053h789l161 -160l-98 2h-60q-205 0 -247 -35q-121 -100 -121 -178q0 -32 18 -78q29 -74 129 -86q114 0 258 100q108 75 178 191v-191q-120 -215 -401 -215q-104 13 -190 125q-67 88 -68 168q-1 127 37 199h-223zM792 121
l-113 -112l-113 112l113 113z" />
    <glyph glyph-name="glyph242" horiz-adv-x="1447" 
d="M1043 717q-1 -72 44 -143q50 -80 118 -80q66 8 106 114q33 87 33 164q-18 166 -110 186q-67 0 -154 -133q-36 -55 -37 -108zM760 2q-182 0 -307 83q-145 96 -145 271q0 125 98 211q-117 0 -189 83q-69 79 -69 198q0 88 79 159q76 70 165 70h197l164 -162q-29 0 -88 2.5
t-89 2.5q-157 0 -219 -39q-92 -58 -92 -121q0 -135 141 -135q144 0 287 49l155 -153q-159 0 -254 -35q-149 -55 -149 -179q0 -209 272 -209q99 0 246 120q120 98 195 204q-285 131 -285 344q0 125 79 218q83 97 206 99v213h-1158l-137 138h1589l138 -138h-295v-219
q152 -145 152 -383q0 -377 -355 -587q-177 -105 -332 -105zM750 -233l-113 -112l-113 112l113 113z" />
    <glyph glyph-name="u090F" horiz-adv-x="1081" 
d="M0 1296l-137 138h1219l137 -138h-1219zM1079 848h-293q106 -121 106 -283q0 -104 -71 -185t-174 -81q-85 0 -218 107q-181 146 -282 552h61q61 -172 141 -292q119 -177 248 -177q43 0 82 40.5t39 84.5q0 99 -67.5 219.5t-151.5 176.5h580v-162zM608 19l-113 -112
l-113 112l113 113z" />
    <glyph glyph-name="u0910" horiz-adv-x="1163" 
d="M1163 644q-61 -38 -133 -46q-18 -2 -121 -2q2 -174 -66 -264q-54 -72 -222 -160l102 -156l-74 -106l-110 225q-30 -8 -123 -8q-108 0 -180 50q-82 58 -82 161q0 68 46 109t115 41q172 0 260 -173q240 72 240 265q0 60 -34 81q-25 15 -87 15q-32 0 -93 -22.5t-93 -22.5
q-105 0 -154 20q-70 29 -136.5 127t-70.5 174q-9 160 297 165q60 1 205 1v178h-649l-135 137h1303l140 -135l-509 -2v-295h-312q-202 0 -202 -157q0 -31 32 -63.5t62 -32.5q42 0 122 23.5t122 23.5q110 0 137 -5q91 -17 119 -86q124 10 174 43q39 26 50 37q25 24 60 79v-219
zM425 -95l-113 -112l-113 112l113 113z" />
    <glyph glyph-name="u0911" horiz-adv-x="1159" 
d="M-138 1434h1301l138 -138h-1301zM1159 713q-137 -33 -177 -33q-23 0 -46 3q5 -53 5 -94q0 -143 -72 -226q-76 -89 -217 -89q-136 0 -284 174l-218 278l29 26q261 -317 438 -317q86 0 153.5 66t67.5 152q0 154 -69 253q-78 113 -226 113q-69 0 -154 -98l-119 115
q111 111 241 111q57 0 85 -3q85 -9 185 -125q86 -100 122 -196q30 -8 46 -8q41 0 115 27q84 31 95 63v-192zM572 9l-113 -112l-113 112l113 113z" />
    <glyph glyph-name="u0912" horiz-adv-x="1278" 
d="M775 1296h-775l-138 138h1419l138 -138h-468v-503h-240q-193 0 -235 -7q-147 -24 -205 -138q-44 -87 -36 -180q10 -112 93 -182q101 -86 213 -112q60 -14 94 -14q222 0 439 147l146 -147q-148 -110 -394 -152q-47 -8 -80 -8q-173 0 -291 57q-150 72 -219 175
q-40 59 -65 147q-23 81 -23 138q1 115 13 188q24 140 163 207q77 37 161 49q41 0 142 10h148v325zM802 -349l-113 -112l-113 112l113 113zM927 -231l-157 153q198 1 177 2q77 -4 159 -43q61 -33 201 -159q127 -114 219 -213l-45 -41q-58 69 -152 149q-104 89 -151 102
q-105 53 -213 53q-20 0 -38 -3z" />
    <glyph glyph-name="u0913" horiz-adv-x="1351" 
d="M1074 465q0 141 -116 230q-107 82 -252 82q-143 0 -251 -83q-118 -91 -118 -229q0 -139 118 -229q109 -83 251 -83q145 0 252 82q116 89 116 230zM599 1296h-593l-138 138h1482l137 -138h-747v-424q26 -1 109 -41q299 -145 299 -395q0 -208 -145 -326
q-135 -110 -347 -110t-359 146t-147 358q0 206 215 313q47 8 133 41q101 66 101 131v307zM725 -248l-113 -112l-113 112l113 113zM877 -231l-157 153q198 1 177 2q77 -4 159 -43q61 -33 201 -159q127 -114 219 -213l-45 -41q-58 69 -152 149q-104 89 -151 102
q-105 53 -213 53q-20 0 -38 -3z" />
    <glyph glyph-name="u0914" horiz-adv-x="1282" 
d="M881 1296h-881l-137 138h1421l139 -138h-393v-436l-468 2q-189 1 -189 -90q0 -54 30 -92q32 -41 85 -41q42 0 125 13.5t125 13.5q144 0 247 -122q99 -116 99 -263q0 -117 -117 -203q-107 -79 -229 -79q-227 0 -430 206q-137 139 -285 403l61 35q96 -182 233 -313
q173 -166 338 -166q109 0 197 71q95 75 95 181q0 44 -30 75t-73 31q-45 0 -128.5 -34.5t-127.5 -34.5q-114 0 -201 118q-27 35 -120 215q-37 71 -37 115q0 85 91 113q51 16 161 16h399v266zM714 -309l-113 -112l-113 112l113 113zM816 -265l-157 153q198 1 177 2
q77 -4 159 -43q61 -33 201 -159q127 -114 219 -213l-45 -41q-58 69 -152 149q-104 89 -151 102q-105 53 -213 53q-20 0 -38 -3z" />
    <glyph glyph-name="u0915" horiz-adv-x="1292" 
d="M686 178q133 0 216 49q101 59 101 183q0 64 -42 105.5t-107 41.5q-205 0 -205 -253q0 -53 37 -126zM780 1296h-780l-137 138h1434l140 -138h-485v-424q-28 0 -100 1q-66 1 -100 1q-486 0 -486 -284q0 -147 96 -268q103 -129 246 -129q-58 141 -58 286q0 94 52 169
q59 83 149 83q160 0 258 -154q86 -134 86 -303q0 -116 -105 -198q-97 -76 -216 -76q-234 0 -432 221q-193 216 -193 453q0 108 59 202q65 104 202 138q81 20 253 20q59 0 117 -8v270zM780 -345l-113 -112l-113 112l113 113zM896 -305l-157 153q198 1 177 2q77 -4 159 -43
q61 -33 201 -159q127 -114 219 -213l-45 -41q-58 69 -152 149q-104 89 -151 102q-105 53 -213 53q-20 0 -38 -3z" />
    <glyph glyph-name="u0916" horiz-adv-x="939" 
d="M1078 1296l-373 1v-671q0 -71 -61 -122q-57 -47 -129 -47q-42 0 -120 55q-245 173 -245 344l-1 440h-149l-138 138h1078zM568 1297h-276v-482q0 -143 43 -170q90 -57 106 -57q128 0 128 177zM615 117l-113 -112l-113 112l113 113z" />
    <glyph glyph-name="u0917" horiz-adv-x="884" 
d="M5 1296l-138 138h1017l138 -138h-1017zM882 881h-332q-117 0 -192 -53q-85 -61 -85 -173q0 -33 5 -57q11 -51 57 -154l287 -399l-35 -43l-279 350q-114 143 -148 340q-3 17 -3 43q0 122 87.5 209.5t209.5 87.5h428v-151zM367 3l-113 -112l-113 112l113 113z" />
    <glyph glyph-name="u0918" horiz-adv-x="966" 
d="M708 1296l-140 138h398l137 -138h-395zM967 522q-137 -135 -320 -135q-189 0 -327 119q-142 122 -158 309q77 0 168 31q99 34 145 84q90 99 90 145q0 256 -161 256q-66 0 -109 -38t-43 -103t45.5 -114.5t110.5 -49.5l2 -45q-115 0 -186.5 79t-71.5 195q0 172 194 172
q107 0 228 -155q116 -148 116 -260q0 -108 -124 -208q-111 -90 -226 -108q39 -74 113.5 -124t154.5 -50q81 0 203 68q128 71 156 141v-209zM655 109l-113 -112l-113 112l113 113z" />
    <glyph glyph-name="u0919" horiz-adv-x="1182" 
d="M0 1301l-138 138h1325l139 -138h-445v-377h-358q-218 0 -264 -166q-13 -47 -13 -72q0 -15 6 -57q11 -77 71 -137t136 -62q74 -2 131 29q-20 28 -20 116q8 44 43 72q47 38 98 39q68 1 134 -52q61 -49 61 -122q0 -13 -2 -25q-5 -34 -10 -49q-8 -21 -31 -59q-14 -23 -58 -55
l178 -267l-76 -77l-194 301q-51 -11 -94 -11q-35 0 -68 4q-157 37 -278 191q-142 180 -133 346q6 107 72 183q72 81 176 81h331v226h-719zM594 6l-113 -112l-113 112l113 113zM911 -313l-157 153q198 1 177 2q77 -4 159 -43q61 -33 201 -159q127 -114 219 -213l-45 -41
q-58 69 -152 149q-104 89 -151 102q-105 53 -213 53q-20 0 -38 -3z" />
    <glyph glyph-name="u091A" horiz-adv-x="998" 
d="M677 1296q-13 99 -87 138h408l137 -138h-458zM550 1249q0 53 -53 88q-32 21 -93 21q-62 0 -106 -40q-35 -32 -35 -93q11 -88 154 -85q57 1 86 23q47 35 47 86zM998 409q-224 -184 -429 -184q-130 0 -213 95q-80 92 -80 223q0 213 153 311q-111 47 -189 134
q-89 99 -89 208q0 82 45 148q54 79 145 83q115 5 182 -49q73 -59 64 -172q-5 -62 -66 -103q-55 -36 -120 -36q-28 0 -105 20q3 -49 76 -124q63 -67 112 -72q54 29 93 29h90l135 -140q-19 0 -56.5 1t-56.5 1q-200 0 -286 -110q-39 -50 -39 -92q0 -124 58 -169q46 -36 153 -36
q8 0 77 12q57 10 166 92q21 16 60 64q46 55 58 87q25 37 62 117v-338zM611 6l-113 -112l-113 112l113 113z" />
    <glyph glyph-name="u091B" horiz-adv-x="861" 
d="M862 807h-420v-224q-6 -57 -35 -70q-44 4 -71 38l-118 148q-70 88 -70 149q0 75 81 114q8 2 633 2v-157zM0 1296l-138 138h999l138 -138h-999zM441 111l-113 -112l-113 112l113 113z" />
    <glyph glyph-name="u091C" horiz-adv-x="751" 
d="M752 582q-90 -45 -228 -45q-156 16 -272 159q-102 125 -102 267v333h-150l-138 138h892l138 -138h-611v-415q0 -94 54 -162q58 -74 150 -74q66 0 152 64q80 58 115 122v-249zM573 110l-113 -112l-113 112l113 113z" />
    <glyph glyph-name="u091D" horiz-adv-x="1246" 
d="M1156 876q-28 -9 -91 -44q-18 -18 -65 -57q-15 -15 -98 -92l1 -683l-151 155v431q-82 -49 -224 -49q-159 16 -268 144q-108 125 -108 286v329h-152l-138 138h1388l139 -138h-486l-1 -404l97 69q26 18 43 26q34 14 84 17l118 2v-118q-24 -2 -88 -12zM303 881
q0 -86 47 -156q54 -80 135 -80q71 0 155 62q81 59 112 127v462h-449v-415zM550 112l-113 -112l-113 112l113 113z" />
    <glyph glyph-name="u091E" horiz-adv-x="934" 
d="M-2 1296l-137 138h1077l138 -138h-1078zM936 786v-206q-194 -186 -412 -185q-140 1 -243 90q-134 116 -129 287q5 177 188 277q75 41 155 41q64 0 160 -29q118 -36 253 -203l-29 -31l-76 59q-62 47 -97 58q-59 19 -106 19q-27 0 -115 -19l230 -352q165 117 221 194z
M428 930q-89 -24 -176 -134q-16 -20 -22 -86q-7 -70 24 -113q46 -64 106 -84q75 -25 119 -25q83 0 197 82zM623 119l-113 -112l-113 112l113 113z" />
    <glyph glyph-name="u091F" horiz-adv-x="893" 
d="M565 752h330v-170h-336q0 -44 -29 -148l-10 -36q-18 -66 -55 -72q-58 0 -92 45l-183 245q-41 55 -41 80q0 56 101 56h151v237q-115 0 -168 15q-225 64 -225 270q0 111 82 160q33 20 68 20q73 0 120 -33q146 -82 203 -202q84 -178 84 -467zM716 1296l-138 138h317
l138 -138h-317zM123 1135q53 -103 182 -103q53 0 96 27q13 47 13 67q0 84 -62 152q-78 86 -151 86q-107 0 -107 -117q0 -56 29 -112zM608 8l-113 -112l-113 112l113 113z" />
    <glyph glyph-name="u0920" horiz-adv-x="971" 
d="M971 604h-426v-194q0 -60 -18 -72q-66 0 -88 27l-242 301q-37 46 -37 82q11 26 86 26h138v522h-374l-138 138h1099l140 -138h-566v-522h426v-170zM535 2l-113 -112l-113 112l113 113z" />
    <glyph glyph-name="u0921" horiz-adv-x="893" 
d="M893 1434h-1031l138 -138h302q110 -69 110 -215q0 -49 -6 -69q-14 -84 -93 -135q-71 -46 -161 -46q0 -148 80 -264q123 -178 356 -178q177 0 307 149l-1 382q-2 -8 -18 -107q-9 -58 -28 -94q-122 -234 -313 -234q-16 0 -72 11q-153 45 -200 192q60 16 92 33q45 24 102 84
q103 109 103 250t-76 241h548zM563 103l-113 -112l-113 112l113 113z" />
    <glyph glyph-name="u0922" horiz-adv-x="983" 
d="M435 1301h-435l-138 138h1125l139 -138h-503q39 -163 39 -248q-1 -207 -139 -386q-27 -35 -106 -110l68 -96q10 -14 18 -29q15 -14 57 -61q22 -25 90 -94q151 -146 374 -301l-40 -46q-196 125 -401 302q-36 31 -215 227q-215 235 -215 358q14 107 121 107h170
q65 77 66 163q1 96 -75 214zM642 -8l-113 -112l-113 112l113 113zM934 -259l-157 153q198 1 177 2q77 -4 159 -43q61 -33 201 -159q127 -114 219 -213l-45 -41q-58 69 -152 149q-104 89 -151 102q-105 53 -213 53q-20 0 -38 -3z" />
    <glyph glyph-name="u0923" horiz-adv-x="1044" 
d="M0 1296l-138 138h1182l138 -138h-1182zM1042 776q-143 -41 -242 -209q-31 -53 -51 -110l-156 118l86 113q-24 73 -92 100q-43 17 -74 17q-14 0 -63 -10q-135 -45 -135 -234q0 -41 33 -88q2 -8 20 -41q31 -57 59 -88q18 -20 62 -57q8 -10 47 -49q13 -13 41 -33
q18 -19 39 -35l20 -20l-39 -52q-19 8 -84 66l-67 59q-15 12 -60 51q-233 205 -233 431q0 46 16 90q55 151 217 151q105 0 199 -62t129 -159q130 136 250 176q68 23 78 23v-148zM368 -3l-113 -112l-113 112l113 113z" />
    <glyph glyph-name="u0924" horiz-adv-x="1443" 
 />
    <glyph glyph-name="u0925" horiz-adv-x="925" 
d="M0 1296l-138 138h1066l137 -138h-1065zM925 786v-206q-200 -189 -413 -185q-162 3 -261.5 101.5t-99.5 260.5q0 137 97.5 235t234.5 98q110 0 197 -43q70 -35 176 -129l-29 -41q-133 81 -225 81q-340 0 -350 -260q-3 -81 63 -133q60 -47 144 -47q103 0 255 91
q142 85 211 177zM553 114l-113 -112l-113 112l113 113z" />
    <glyph glyph-name="u0926" horiz-adv-x="1127" 
d="M0 1296l-138 138h363q-70 -65 -86 -138h-139zM787 1296q-48 86 -117 138h461l137 -138h-481zM627 891q-76 -62 -207 -62q-112 11 -181 103q-65 85 -65 201q0 124 70 217q76 102 196 104q161 2 287 -227q50 -92 55 -230q0 -11 -4 -77q-19 -281 -248 -467l268 -418l-44 -45
l-293 434q-29 -14 -144 -14q-165 39 -165 151q0 113 102 135q81 0 162 -88q30 -33 30 -41q181 84 181 324zM420 1378q-105 -2 -105 -174q0 -76 29 -151q53 -138 180 -138q82 17 82 152q0 116 -37 201q-49 112 -149 110zM571 108l-113 -112l-113 112l113 113z" />
    <glyph glyph-name="u0927" horiz-adv-x="751" 
d="M0 1296l-138 138h889l138 -138h-527l387 -536v-129q-84 -94 -211 -94q-99 0 -213 77q-174 117 -174 252v430h-151zM300 791q0 -72 63 -120q57 -44 132 -46q80 -2 203 118l-398 547v-499zM581 113l-113 -112l-113 112l113 113z" />
    <glyph glyph-name="u0928" horiz-adv-x="980" 
d="M533 1296q41 -85 41 -196q0 -92 -45 -213q98 -82 217 -82q103 0 232 104v-184q-94 -51 -207 -51q-156 0 -310 88q-36 -107 -122 -146q211 -360 443 -610l-43 -43q-177 175 -358 419q-233 314 -233 447q0 140 100 140q77 0 134 -43q67 52 67 149q0 111 -38 161
q-22 29 -87 61l-324 -1l-138 138h1118l138 -138h-585zM456 7l-113 -112l-113 112l113 113z" />
    <glyph glyph-name="u0929" horiz-adv-x="1135" 
d="M406 473q-82 -92 -82 -221q0 -76 39 -152q78 -153 330 -245l248 -91v-51l-338 84q-177 44 -300 181q-130 145 -130 321q0 156 115 297q-132 119 -132 285q0 122 111 180q50 26 154 26h331v209h-752l-138 138h1273l139 -138h-356v-352h-432q-76 0 -114 -6
q-101 -29 -115 -90q0 -133 92 -211q17 11 137 48q74 23 605 12v-165q-320 5 -401 2q-238 -9 -284 -61zM520 -367l-113 -112l-113 112l113 113z" />
    <glyph glyph-name="u092A" horiz-adv-x="1024" 
d="M128 0v1320h768v-1320h-768zM256 128h512v1064h-512v-1064z" />
    <glyph glyph-name="u092B" horiz-adv-x="1024" 
d="M128 0v1320h768v-1320h-768zM256 128h512v1064h-512v-1064z" />
    <glyph glyph-name="u092C" horiz-adv-x="1940" 
d="M576 325l-135 137l503 309q-106 111 -143 140q-62 49 -113 42q-33 -4 -233 -128l-156 -104l-147 145l228 126l151 84q64 33 91 38q12 2 22 2q77 0 174 -77q92 -73 159 -171v428h-977l-138 138h2079l137 -138h-935v-385q30 27 44 37q34 25 67 34q68 19 127 19
q153 0 253 -106.5t100 -261.5q0 -124 -87 -235t-208 -141l-73 142q142 66 190 104q96 76 96 182q0 88 -73 151q-53 45 -165 34q-54 -5 -129 -64q-78 -62 -142 -153v-653l-166 168v441z" />
    <glyph glyph-name="u092D" horiz-adv-x="1549" 
d="M1163 549q-26 -55 -130 -92q-63 -23 -114 -21q-131 4 -213 100q-80 91 -80 224q0 130 69 209q72 84 200 84q123 0 268 -119v-385zM1161 717v-177l-490 -490l-89 89zM467 1296q43 -139 43 -256q0 -167 -61 -354q-3 -8 -32 -65q-21 -41 -21 -68q0 -78 145 -199
q132 -110 255 -133q26 -5 57 -5q184 0 310 149v-180q-113 -77 -250 -77q-267 0 -493 218q-268 258 -268 479q0 32 18 73q21 48 50 48q17 0 52 -4t52 -4q36 0 59 79q17 59 17 109q0 113 -80 190h-320l-138 138h1303l138 -138h-836zM917 924q-93 0 -148 -73q-50 -66 -50 -161
q0 -125 166 -125q109 0 181 70.5t72 179.5q0 74 -74 97q-39 12 -147 12zM1163 1296h-109l-136 138h631l137 -138h-336v-1296l-187 187v1109z" />
    <glyph glyph-name="u092E" horiz-adv-x="1320" 
d="M393 427l-207 270q-32 42 -39 82v47q10 29 57 29h185v441h-389l-138 138h1457l140 -138h-340v-1296l-187 188v1108h-394v-806q2 -14 2 -36q0 -71 -49 -86q-10 -3 -15 -3q-19 0 -42 22zM933 677v-186l-490 -487l-92 91z" />
    <glyph glyph-name="u092F" horiz-adv-x="1377" 
d="M385 1296q-31 -41 -34 -110q-6 -123 111 -163q67 -23 218 -22l151 -149q-176 0 -298 -55q-163 -73 -163 -230q0 -95 76 -128q48 -21 158 -21q142 0 416 287v591h-635zM1020 485q-224 -213 -416 -213q-138 0 -241 116q-99 111 -99 251q0 186 131 295q-100 20 -168 93
q-72 76 -72 175q0 45 17 94h-172l-138 138h1522l140 -138h-341v-1296l-163 163v322zM1021 667v-186l-490 -487l-92 91z" />
    <glyph glyph-name="u0930" horiz-adv-x="1333" 
d="M1024 694l109 109l108 -109l-108 -108zM0 1296l-138 138h1476l140 -138h-524v-465h-417q-85 0 -123 -23q-49 -31 -49 -114q0 -31 42 -50q33 -15 69 -15q31 0 91.5 11t91.5 11q165 0 268 -91q107 -96 107 -259q0 -142 -96 -224q-90 -78 -234 -78q-184 0 -386 197
q-161 158 -267 363l41 41q56 -151 207 -275q159 -132 311 -132q90 0 181 52q104 59 104 142q0 50 -28 84.5t-76 34.5q-41 0 -128 -27.5t-133 -27.5q-74 0 -112 59l-176 272q-33 51 -33 111q0 123 223 123h356v280h-788zM350 -591l-82 80l447 449l412 -411l-76 -77l-329 327z
" />
    <glyph glyph-name="u0931" horiz-adv-x="1369" 
d="M0 1296l-138 138h1512l140 -138h-345v-1294l-162 164v1130h-1007zM0 1055h779l160 -160h-199q-160 0 -195 -29q-121 -100 -121 -180q0 -67 40 -114q42 -50 107 -50q115 0 249 94q123 86 187 195v-215q-138 -188 -357 -188q-22 0 -44 2q-90 8 -174 103.5t-84 186.5
q0 131 37 201h-233zM1007 677v-186l-490 -487l-92 91z" />
    <glyph glyph-name="u0932" horiz-adv-x="1644" 
d="M1043 717q-1 -72 44 -143q50 -80 118 -80q66 8 106 114q33 87 33 164q-18 166 -110 186q-67 0 -154 -133q-36 -55 -37 -108zM1158 1083v213h-1158l-137 138h1790l137 -138h-495v-219q152 -145 152 -383q0 -184 -99 -350q176 -149 176 -358q0 -95 -46 -186
q-47 -95 -124 -146l-126 125q155 143 155 377q0 56 -17 83q-7 11 -57 60q-75 -117 -242 -207t-307 -90q-182 0 -307 83q-145 96 -145 271q0 125 98 211q-117 0 -189 83q-69 79 -69 198q0 88 79 159q76 70 165 70h197l164 -162q-29 0 -88 2.5t-89 2.5q-157 0 -219 -39
q-92 -58 -92 -121q0 -135 141 -135q124 0 267 49l160 -160q-190 0 -335 -84q-53 -31 -53 -123q0 -209 272 -209q99 0 246 120q120 98 195 204q-101 47 -187 141q-98 107 -98 203q0 125 79 218q83 97 206 99zM450 -601l-82 80l447 449l412 -411l-76 -77l-329 327z" />
    <glyph glyph-name="u0933" horiz-adv-x="1447" 
d="M0 1296l-138 138h1586l140 -138h-343v-1294l-166 167v679h-295q108 -119 108 -283q0 -106 -69 -184q-71 -82 -176 -82q-309 0 -500 659h61q0 -18 19 -57q10 -18 27 -56q55 -134 94 -192q61 -91 155 -141q43 -23 94 -23q43 0 82 40.5t39 84.5q0 99 -68 221
q-67 119 -151 175h580v286h-1079zM1079 582v-186l-490 -487l-92 91z" />
    <glyph glyph-name="u0934" horiz-adv-x="1546" 
d="M1163 644q-61 -38 -133 -46q-18 -2 -121 -2q2 -174 -66 -264q-54 -72 -222 -160l102 -156l-74 -106l-110 225q-30 -8 -123 -8q-108 0 -180 50q-82 58 -82 161q0 68 46 109t115 41q172 0 260 -173q240 72 240 265q0 60 -34 81q-25 15 -87 15q-32 0 -93 -22.5t-93 -22.5
q-105 0 -154 20q-70 29 -136.5 127t-70.5 174q-9 160 297 165q60 1 205 1v178h-649l-135 137h1303l140 -135l-509 -2v-295h-312q-202 0 -202 -157q0 -31 32 -63.5t62 -32.5q42 0 122 23.5t122 23.5q110 0 137 -5q91 -17 119 -86q124 10 174 43q39 26 50 37q25 24 60 79v-219
zM1244 458l-457 -427l-100 94l474 437zM1163 1296h-109l-136 138h631l137 -138h-336v-1296l-187 187v1109z" />
    <glyph glyph-name="u0935" horiz-adv-x="1475" 
d="M1275 1296v-1294l-152 150l-1 631q-16 -25 -36 -33q-27 -11 -30 -13q-28 -25 -96 -25q-11 0 -23 1q5 -53 5 -124q0 -124 -69 -216q-77 -101 -197 -101q-134 0 -298 165q-79 80 -227 279l39 36q127 -153 187 -207q124 -110 241 -110q104 0 166 80q56 72 56 206
q0 87 -72 190q-79 114 -192 114q-107 0 -206 -114l-99 95q144 144 264 144q127 0 231 -105q58 -58 78 -85q38 -47 60 -107q29 -8 52 -8q4 0 35 -3q21 -1 35 2q19 4 36 18q53 47 53 79v355h-1115l-137 138h1612l137 -138h-337zM1125 582v-186l-490 -487l-92 91z" />
    <glyph glyph-name="u0936" horiz-adv-x="1273" 
d="M775 1296h-775l-138 138h1419l138 -138h-468v-503h-240q-193 0 -235 -7q-147 -24 -205 -138q-44 -87 -36 -180q10 -112 93 -182q101 -86 213 -112q60 -14 94 -14q222 0 439 147l146 -147q-148 -110 -394 -152q-47 -8 -80 -8q-173 0 -291 57q-150 72 -219 175
q-40 59 -65 147q-23 81 -23 138q1 115 13 188q24 140 163 207q77 37 161 49q41 0 142 10h148v325zM340 -581l-82 80l447 449l412 -411l-76 -77l-329 327z" />
    <glyph glyph-name="u0937" horiz-adv-x="1349" 
d="M1074 465q0 141 -116 230q-107 82 -252 82q-143 0 -251 -83q-118 -91 -118 -229q0 -139 118 -229q109 -83 251 -83q145 0 252 82q116 89 116 230zM599 1296h-593l-138 138h1482l137 -138h-747v-424q26 -1 109 -41q299 -145 299 -395q0 -208 -145 -326
q-135 -110 -347 -110t-359 146t-147 358q0 206 215 313q47 8 133 41q101 66 101 131v307zM268 -581l-82 80l447 449l412 -411l-76 -77l-329 327z" />
    <glyph glyph-name="u0938" horiz-adv-x="1284" 
d="M881 1296h-881l-137 138h1421l139 -138h-393v-436l-468 2q-189 1 -189 -90q0 -54 30 -92q32 -41 85 -41q42 0 125 13.5t125 13.5q144 0 247 -122q99 -116 99 -263q0 -117 -117 -203q-107 -79 -229 -79q-227 0 -430 206q-137 139 -285 403l61 35q96 -182 233 -313
q173 -166 338 -166q109 0 197 71q95 75 95 181q0 44 -30 75t-73 31q-45 0 -128.5 -34.5t-127.5 -34.5q-114 0 -201 118q-27 35 -120 215q-37 71 -37 115q0 85 91 113q51 16 161 16h399v266zM358 -605l-82 80l447 449l412 -411l-76 -77l-329 327z" />
    <glyph glyph-name="u0939" horiz-adv-x="1292" 
d="M686 178q133 0 216 49q101 59 101 183q0 64 -42 105.5t-107 41.5q-205 0 -205 -253q0 -53 37 -126zM780 1296h-780l-137 138h1434l140 -138h-485v-424q-28 0 -100 1q-66 1 -100 1q-486 0 -486 -284q0 -147 96 -268q103 -129 246 -129q-58 141 -58 286q0 94 52 169
q59 83 149 83q160 0 258 -154q86 -134 86 -303q0 -116 -105 -198q-97 -76 -216 -76q-234 0 -432 221q-193 216 -193 453q0 108 59 202q65 104 202 138q81 20 253 20q59 0 117 -8v270zM377 -581l-82 80l447 449l412 -411l-76 -77l-329 327z" />
    <glyph glyph-name="u093C" horiz-adv-x="1438" 
d="M1574 1297h-342v-1297l-177 178v1119h-349v-564q0 -129 1 -105q-2 -46 -24 -81q-48 -78 -156 -88q-55 0 -120 43q-85 56 -115 86q-142 138 -142 270v439h-150l-137 137h1574zM568 905v392h-276v-482q0 -144 43 -170l55 -37q31 -20 51 -20q28 3 76 25q48 45 51 83v209z
M1055 676v-186l-490 -487l-92 91z" />
    <glyph glyph-name="u093D" horiz-adv-x="1400" 
d="M0 1296l-138 138h1154l138 -137zM1014 633l-407 -288l-135 137l503 309q-174 182 -256 182q-42 0 -233 -118l-196 -118l-137 139l258 146q181 102 242 112q12 2 22 2q86 0 193 -92q81 -71 146 -166v-245zM1012 1296h-109l-136 138h631l137 -138h-336v-1296l-187 187v1109
z" />
    <glyph glyph-name="u093E" horiz-adv-x="1360" 
d="M997 1296h-219l-137 138h724l140 -138h-342v-1296l-166 169v353q-57 -65 -155 -102q-85 -33 -165 -33q-175 0 -325 147q-128 126 -192 281q118 0 251 70q154 81 154 190q0 256 -161 256q-66 0 -109 -38t-43 -103t45.5 -114.5t110.5 -49.5v-45q-118 0 -189 79
q-67 75 -67 195q0 172 194 172q126 0 239 -147q107 -139 105 -268q-2 -109 -125 -208q-110 -89 -225 -108q44 -86 131 -133q84 -45 184 -41q95 4 159 44q53 33 130 124q53 62 53 184v422zM997 669v-186l-490 -487l-92 91z" />
    <glyph glyph-name="u093F" horiz-adv-x="1194" 
d="M0 1296l-139 138h1336l138 -138h-443v-372h-358q-218 0 -264 -166q-13 -47 -13 -72q0 -15 6 -57q11 -77 71 -137t136 -62q74 -2 131 29q-20 28 -20 116q8 43 43 71.5t78 29.5q95 1 153 -45q62 -51 60 -144q0 -25 -50 -106q-24 -38 -49 -57l178 -267l-86 -57l-184 281
q-20 -4 -326 -364l-103 83l267 274q-157 37 -278 191q-142 180 -133 346q6 107 72 183q72 81 176 81h331v221h-730z" />
    <glyph glyph-name="u0940" horiz-adv-x="1346" 
d="M539 1238q0 41 -39 79q-32 31 -103 31q-63 0 -96 -30q-45 -41 -45 -103q12 -98 154 -95q63 2 96 33.5t33 84.5zM656 382q127 56 224 168q91 105 91 213v533h-192l-137 138h706l137 -138h-346v-1296l-168 169v230q-118 -98 -181 -129q-91 -45 -218 -45q-130 0 -213 95
q-80 92 -80 223q0 213 153 311q-114 49 -191 134q-90 99 -87 208q2 87 59 159q50 63 131 72q22 2 42 2q104 0 158 -61q51 -59 46 -162q-3 -69 -64.5 -109t-121.5 -40q-87 0 -125 10q7 -13 72 -79q75 -79 146 -87q30 11 69 18q6 1 111 1l138 -140q-20 0 -61 1t-61 1
q-191 0 -287 -100q-42 -44 -49 -102q-9 -78 45 -145q58 -71 127 -70q72 -7 127 17zM975 582v-186l-490 -487l-92 91z" />
    <glyph glyph-name="u0941" horiz-adv-x="1227" 
d="M221 689q-70 88 -70 149q0 105 81 116h633v342h-865l-137 138h1365l137 -138h-340v-1296l-160 158v639h-421v-224q-6 -57 -34 -70q-44 4 -71 38zM865 677v-186l-490 -487l-92 91z" />
    <glyph glyph-name="u0942" horiz-adv-x="1138" 
d="M0 1296l-137 138h1279l139 -138h-339v-1296l-172 173v413q-82 -49 -244 -49q-159 16 -268 144q-108 125 -108 286v329h-150zM301 881q0 -86 47 -156q54 -80 135 -80q87 0 152 48q22 14 80 70q23 26 55 89v444h-469v-415zM770 671v-186l-490 -487l-92 91z" />
    <glyph glyph-name="u0943" horiz-adv-x="1763" 
d="M303 881q0 -86 47 -156q54 -80 135 -80q71 0 155 62q81 59 112 127v462h-449v-415zM903 0l-151 154v432q-82 -49 -224 -49t-266 144q-110 127 -110 248v367h-147l-138 138h1895l138 -138h-993v-399q104 92 215 92q186 0 312.5 -129t126.5 -315q0 -164 -140 -367l-152 153
q24 19 80 76q85 110 85 246q0 86 -68 136q-60 45 -149 45q-157 0 -315 -146zM751 667v-186l-490 -487l-92 91z" />
    <glyph glyph-name="u0944" horiz-adv-x="1278" 
d="M1417 1296h-337v-1296l-158 160l-2 336q0 106 2 111q-178 -217 -411 -212q-129 3 -232 90q-135 114 -129 287q7 188 169 277q88 48 163 48q125 0 162 -17q126 -57 211 -162l-39 -31q-112 71 -227 76q-64 3 -119 -15l241 -346q124 78 211 234v460h-922l-137 138h1417z
M672 570l-257 360q-76 -28 -129 -93q-57 -69 -57 -147q0 -89 66 -138q76 -56 163 -54q119 3 214 72zM921 670v-186l-490 -487l-92 91z" />
    <glyph glyph-name="u0945" horiz-adv-x="1287" 
d="M567 588q-7 -62 -40 -187q-8 -30 -16 -41q-12 -20 -35 -24q-61 0 -94 43l-184 237q-39 50 -39 80q2 6 4 23q18 33 96 33h152v235q-106 0 -166 17q-226 64 -226 270q0 111 82 160q33 20 66 20q79 0 131 -35q207 -139 251 -376q25 -135 25 -291h332v544h-193l-140 138h714
l139 -138h-340v-1296l-180 178v410h-339zM210 1065q51 -29 102 -29q64 0 99 23l-1 67q0 97 -49 152q-78 88 -149 88q-48 0 -77.5 -35t-29.5 -84q0 -123 105 -182zM995 482l-457 -427l-100 94l474 437z" />
    <glyph glyph-name="u0946" horiz-adv-x="1360" 
d="M527 336q-8 -6 -61 -6q-23 0 -225 239l-61 68q-31 36 -31 71q0 68 87 68q53 0 148 -2v522h-384l-137 138h1499l137 -138h-345v-1296l-183 183v419h-426q0 -114 2 -202q1 -48 -20 -64zM971 1296h-426v-522h426v522zM1055 494l-457 -427l-100 94l474 437z" />
    <glyph glyph-name="u0947" horiz-adv-x="1258" 
d="M0 1296l-137 138h1397l139 -138h-341v-1296l-163 165v363q-121 -139 -310 -139q-233 0 -356 178q-80 116 -80 264q90 0 161 46q79 51 93 135q6 20 6 69q0 146 -110 215h-299zM454 805q-57 -60 -102 -84q-32 -17 -92 -33q47 -147 200 -192q56 -11 72 -11q190 0 313 234
q46 88 46 201v376h-410q76 -100 76 -241t-103 -250zM894 668v-186l-490 -487l-92 91z" />
    <glyph glyph-name="u0948" horiz-adv-x="1024" 
d="M128 0v1320h768v-1320h-768zM256 128h512v1064h-512v-1064z" />
    <glyph glyph-name="u0949" horiz-adv-x="1531" 
d="M1157 169v721q-22 3 -44 3q-155 0 -240 -133q-54 -86 -115 -207l-134 129l82 92q-50 68 -70 84q-41 33 -104 33q-213 0 -213 -190q0 -25 4 -54q4 -32 35 -90q43 -80 60 -108q39 -62 77 -97l278 -277l-43 -42l-331 297q-249 215 -249 441q0 114 70 188.5t183 74.5
q108 0 203 -62q50 -33 137 -161q55 70 163 115q99 42 189 42q36 0 62 -8v336h-1157l-137 138h1667l140 -138h-345v-1296zM1157 887v-186l-490 -487l-92 91z" />
    <glyph glyph-name="u094A" horiz-adv-x="1443" 
 />
    <glyph glyph-name="u094B" horiz-adv-x="1239" 
d="M0 1296l-136 138h1375l135 -138h-337v-1296l-178 178v359q-75 -50 -172 -88q-111 -43 -186 -39q-152 8 -263 147q-88 111 -88 262q17 78 58 125q159 150 352 143q192 -6 299 -184v393h-859zM838 858q-32 68 -198 68q-178 0 -316 -140q-67 -68 -67 -139q0 -94 153 -94
q192 0 349 162q79 81 79 143zM860 671v-186l-490 -487l-92 91z" />
    <glyph glyph-name="u094C" horiz-adv-x="1553" 
d="M1169 557l-594 -258l-123 124l594 263l-449 197l-372 -318l-130 131l326 252q-97 17 -168 84q-100 94 -100 215q0 115 143 172q15 6 70 6q182 0 231 -47q19 -13 68 -65q82 -88 90 -152q0 -82 -8 -121q-23 -61 -72 -96l494 -233v-154zM762 1434h406l137 -138h-457
q-17 80 -86 138zM329 1184q0 -70 45.5 -118t114.5 -48q16 0 65.5 45.5t53.5 62.5q2 4 4 19q14 43 14 61q0 27 -22 56q-43 57 -150 57q-102 -16 -125 -135zM1167 1296h-109l-136 138h631l137 -138h-336v-1296l-187 187v1109z" />
    <glyph glyph-name="u094D" horiz-adv-x="1110" 
d="M298 791q0 -82 63 -130q44 -34 132 -36q80 -2 203 118l-398 547v-499zM360 1296l387 -536v-129q-84 -94 -211 -94q-114 0 -213 67q-174 117 -174 262v430h-149l-137 138h1251l140 -138h-343v-1296l-164 165v1131h-387zM748 669v-186l-490 -487l-92 91z" />
    <glyph glyph-name="u0950" horiz-adv-x="1565" 
d="M1273 590l-457 -427l-100 94l474 437zM1198 1296h-653q34 -41 45 -79l24 -86q13 -82 7 -130q-12 -94 -62 -164q34 -31 120 -56.5t157 -25.5q76 0 199 52q119 51 163 97v392zM0 1296l-136 138h1708l138 -138h-347v-1296l-165 168v527q-45 -25 -161 -48q-112 -23 -176 -23
q-84 0 -190.5 26.5t-167.5 61.5q-58 -88 -152 -80q128 -252 451 -636l-41 -43q-223 221 -392 443q-219 288 -219 423q0 57 35.5 97t91.5 40q78 0 137 -40q70 65 70 153q0 124 -59 177q-13 13 -25 27q-16 14 -51 24z" />
    <glyph glyph-name="u0951" horiz-adv-x="1189" 
d="M0 1296l-138 138h1333l138 -138h-419v-352h-432q-76 0 -114 -6q-101 -29 -115 -90q0 -133 92 -211q83 49 137 68q98 34 178 32q135 -3 222.5 -87.5t101.5 -220.5q0 -89 -5 -107l-38 -134l-129 59q13 34 54 113q13 43 13 76q0 37 -22 72l-23 36h-1q-16 0 -265 -374l-97 75
q-16 16 277 356q-114 0 -135 -5q-130 -31 -209 -120q-84 -94 -84 -224q0 -76 39 -152q78 -153 330 -245l248 -91v-51l-338 84q-177 44 -300 181q-130 145 -130 321q0 156 115 297q-132 119 -132 285q0 122 111 180q50 26 154 26h331v209h-748z" />
    <glyph glyph-name="u0952" horiz-adv-x="1579" 
d="M371 975l-105 84q-57 46 -73 94q-25 76 -25 115q0 80 65 129q59 45 142 45q40 0 106 -15q144 -33 217 -174q47 -92 44 -170q-5 -119 -115 -186q104 -68 221 -68q199 0 349 143v-143q-146 -98 -292 -100q-210 -2 -338 133q-128 0 -224 -81q-103 -85 -103 -210
q0 -43 12 -71q39 -130 186 -135q75 -3 138 30q0 106 90 148q34 16 71 16q62 0 103 -39.5t41 -101.5q0 -53 -33 -109q-49 -84 -143 -92l69 -190l-61 -27l-94 213q-209 0 -338 127t-129 336q22 211 219 299zM551 1346q-31 18 -82 18q-106 0 -153 -82q-21 -37 -21 -80
q0 -119 102 -168q45 -10 62 -10q97 0 151 88q23 38 23 84q0 103 -82 150zM692 1434h508l137 -138h-538q-28 64 -52 90q-8 8 -55 48zM1197 1296h-109l-136 138h631l137 -138h-336v-1296l-187 187v1109zM1280 489l-457 -427l-100 94l474 437z" />
    <glyph glyph-name="u0953" horiz-adv-x="1366" 
d="M1118 1296h-1115l-138 138h1115zM978 901h-494q46 -17 153 -100q121 -93 146 -148q19 -41 19 -94q0 -102 -80 -186t-182 -99l104 -251l-61 -63l-121 290q-39 -12 -90 -12q-88 0 -150 50q-67 54 -67 140q0 149 143 152q71 2 121 -49q37 -38 49 -87q58 0 101.5 46t43.5 104
q0 100 -59 137l-385 244v80h809v-154zM978 1296h-109l-136 138h631l137 -138h-336v-1296l-187 187v1109zM1110 539l-457 -427l-100 94l474 437z" />
    <glyph glyph-name="u0954" horiz-adv-x="1937" 
d="M696 0l-113 -112l-113 112l113 113zM576 325l-135 137l503 309q-106 111 -143 140q-62 49 -113 42q-33 -4 -233 -128l-156 -104l-147 145l228 126l151 84q64 33 91 38q12 2 22 2q77 0 174 -77q92 -73 159 -171v428h-977l-138 138h2079l137 -138h-935v-385q30 27 44 37
q34 25 67 34q68 19 127 19q153 0 253 -106.5t100 -261.5q0 -124 -87 -235t-208 -141l-73 142q142 66 190 104q96 76 96 182q0 88 -73 151q-53 45 -165 34q-54 -5 -129 -64q-78 -62 -142 -153v-653l-166 168v441z" />
    <glyph glyph-name="u0958" horiz-adv-x="1582" 
d="M1162 1297h-109l-136 138h631l137 -138h-336v-1296l-187 187v1109zM1163 550q-26 -55 -130 -92q-63 -23 -114 -21q-131 4 -213 100q-80 91 -80 224q0 130 69 209q72 84 200 84q123 0 268 -119v-385zM1161 718v-177l-490 -490l-89 89zM467 1297q43 -139 43 -256
q0 -167 -61 -354q-3 -8 -32 -65q-21 -41 -21 -68q0 -78 145 -199q132 -110 255 -133q26 -5 57 -5q184 0 310 149v-180q-113 -77 -250 -77q-267 0 -493 218q-268 258 -268 479q0 32 18 73q21 48 50 48q17 0 52 -4t52 -4q36 0 59 79q17 59 17 109q0 113 -80 190h-320l-138 138
h1303l138 -138h-836zM917 925q-93 0 -148 -73q-50 -66 -50 -161q0 -125 166 -125q109 0 181 70.5t72 179.5q0 74 -74 97q-39 12 -147 12zM829 -114l-113 -112l-113 112l113 113z" />
    <glyph glyph-name="u0959" horiz-adv-x="1321" 
d="M393 427l-207 270q-32 42 -39 82v47q10 29 57 29h185v441h-389l-138 138h1457l140 -138h-340v-1296l-187 188v1108h-394v-806q2 -14 2 -36q0 -71 -49 -86q-10 -3 -15 -3q-19 0 -42 22zM932 667v-186l-490 -487l-92 91zM840 -3l-113 -112l-113 112l113 113z" />
    <glyph glyph-name="u095A" horiz-adv-x="1378" 
d="M385 1296q-31 -41 -34 -110q-6 -123 111 -163q67 -23 218 -22l151 -149q-176 0 -298 -55q-163 -73 -163 -230q0 -95 76 -128q48 -21 158 -21q142 0 416 287v591h-635zM1020 485q-224 -213 -416 -213q-138 0 -241 116q-99 111 -99 251q0 186 131 295q-100 20 -168 93
q-72 76 -72 175q0 45 17 94h-172l-138 138h1522l140 -138h-341v-1296l-163 163v322zM1020 667v-186l-490 -487l-92 91zM961 7l-113 -112l-113 112l113 113z" />
    <glyph glyph-name="u095B" horiz-adv-x="1333" 
d="M1024 694l109 109l108 -109l-108 -108zM0 1296l-138 138h1476l140 -138h-524v-465h-417q-85 0 -123 -23q-49 -31 -49 -114q0 -31 42 -50q33 -15 69 -15q31 0 91.5 11t91.5 11q165 0 268 -91q107 -96 107 -259q0 -142 -96 -224q-90 -78 -234 -78q-184 0 -386 197
q-161 158 -267 363l41 41q56 -151 207 -275q159 -132 311 -132q90 0 181 52q104 59 104 142q0 50 -28 84.5t-76 34.5q-41 0 -128 -27.5t-133 -27.5q-74 0 -112 59l-176 272q-33 51 -33 111q0 123 223 123h356v280h-788zM370 -601l-82 80l447 449l412 -411l-76 -77l-329 327z
M527 -118l-113 -112l-113 112l113 113z" />
    <glyph glyph-name="u095C" horiz-adv-x="1374" 
d="M0 1296l-138 138h1512l140 -138h-345v-1294l-162 164v1130h-1007zM0 1055h779l160 -160h-199q-160 0 -195 -29q-121 -100 -121 -180q0 -67 40 -114q42 -50 107 -50q115 0 249 94q123 86 187 195v-215q-138 -188 -357 -188q-22 0 -44 2q-90 8 -174 103.5t-84 186.5
q0 131 37 201h-233zM1009 667v-186l-490 -487l-92 91zM1005 2l-113 -112l-113 112l113 113z" />
    <glyph glyph-name="u095D" horiz-adv-x="1647" 
d="M1043 717q-1 -72 44 -143q50 -80 118 -80q66 8 106 114q33 87 33 164q-18 166 -110 186q-67 0 -154 -133q-36 -55 -37 -108zM1158 1083v213h-1158l-137 138h1790l137 -138h-495v-219q152 -145 152 -383q0 -184 -99 -350q176 -149 176 -358q0 -95 -46 -186
q-47 -95 -124 -146l-126 125q155 143 155 377q0 56 -17 83q-7 11 -57 60q-75 -117 -242 -207t-307 -90q-182 0 -307 83q-145 96 -145 271q0 125 98 211q-117 0 -189 83q-69 79 -69 198q0 88 79 159q76 70 165 70h197l164 -162q-29 0 -88 2.5t-89 2.5q-157 0 -219 -39
q-92 -58 -92 -121q0 -135 141 -135q124 0 267 49l160 -160q-190 0 -335 -84q-53 -31 -53 -123q0 -209 272 -209q99 0 246 120q120 98 195 204q-101 47 -187 141q-98 107 -98 203q0 125 79 218q83 97 206 99zM375 -561l-82 80l447 449l412 -411l-76 -77l-329 327zM504 -145
l-113 -112l-113 112l113 113z" />
    <glyph glyph-name="u095E" horiz-adv-x="1447" 
d="M0 1296l-138 138h1586l140 -138h-343v-1294l-166 167v679h-295q108 -119 108 -283q0 -106 -69 -184q-71 -82 -176 -82q-309 0 -500 659h61q0 -18 19 -57q10 -18 27 -56q55 -134 94 -192q61 -91 155 -141q43 -23 94 -23q43 0 82 40.5t39 84.5q0 99 -68 221
q-67 119 -151 175h580v286h-1079zM1081 583v-186l-490 -487l-92 91zM1026 -3l-113 -112l-113 112l113 113z" />
    <glyph glyph-name="u095F" horiz-adv-x="1545" 
d="M1161 1296h-109l-136 138h631l137 -138h-336v-1296l-187 187v1109zM1163 645q-61 -38 -133 -46q-18 -2 -121 -2q2 -174 -66 -264q-54 -72 -222 -160l102 -156l-74 -106l-110 225q-30 -8 -123 -8q-108 0 -180 50q-82 58 -82 161q0 68 46 109t115 41q172 0 260 -173
q240 72 240 265q0 60 -34 81q-25 15 -87 15q-32 0 -93 -22.5t-93 -22.5q-105 0 -154 20q-70 29 -136.5 127t-70.5 174q-9 160 297 165q60 1 205 1v178h-649l-135 137h1303l140 -135l-509 -2v-295h-312q-202 0 -202 -157q0 -31 32 -63.5t62 -32.5q42 0 122 23.5t122 23.5
q110 0 137 -5q91 -17 119 -86q124 10 174 43q39 26 50 37q25 24 60 79v-219zM1244 459l-457 -427l-100 94l474 437zM471 -46l-113 -112l-113 112l113 113z" />
    <glyph glyph-name="u0960" horiz-adv-x="1470" 
d="M1275 1296v-1294l-152 150l-1 631q-16 -25 -36 -33q-27 -11 -30 -13q-28 -25 -96 -25q-11 0 -23 1q5 -53 5 -124q0 -124 -69 -216q-77 -101 -197 -101q-134 0 -298 165q-79 80 -227 279l39 36q127 -153 187 -207q124 -110 241 -110q104 0 166 80q56 72 56 206
q0 87 -72 190q-79 114 -192 114q-107 0 -206 -114l-99 95q144 144 264 144q127 0 231 -105q58 -58 78 -85q38 -47 60 -107q29 -8 52 -8q4 0 35 -3q21 -1 35 2q19 4 36 18q53 47 53 79v355h-1115l-137 138h1612l137 -138h-337zM1121 587v-186l-490 -487l-92 91zM1094 2
l-113 -112l-113 112l113 113z" />
    <glyph glyph-name="u0961" horiz-adv-x="1273" 
d="M775 1296h-775l-138 138h1419l138 -138h-468v-503h-240q-193 0 -235 -7q-147 -24 -205 -138q-44 -87 -36 -180q10 -112 93 -182q101 -86 213 -112q60 -14 94 -14q222 0 439 147l146 -147q-148 -110 -394 -152q-47 -8 -80 -8q-173 0 -291 57q-150 72 -219 175
q-40 59 -65 147q-23 81 -23 138q1 115 13 188q24 140 163 207q77 37 161 49q41 0 142 10h148v325zM340 -581l-82 80l447 449l412 -411l-76 -77l-329 327zM499 -103l-113 -112l-113 112l113 113z" />
    <glyph glyph-name="u0962" horiz-adv-x="1346" 
d="M1074 465q0 141 -116 230q-107 82 -252 82q-143 0 -251 -83q-118 -91 -118 -229q0 -139 118 -229q109 -83 251 -83q145 0 252 82q116 89 116 230zM599 1296h-593l-138 138h1482l137 -138h-747v-424q26 -1 109 -41q299 -145 299 -395q0 -208 -145 -326
q-135 -110 -347 -110t-359 146t-147 358q0 206 215 313q47 8 133 41q101 66 101 131v307zM297 -581l-82 80l447 449l412 -411l-76 -77l-329 327zM432 -109l-113 -112l-113 112l113 113z" />
    <glyph glyph-name="u0963" horiz-adv-x="1282" 
d="M881 1296h-881l-137 138h1421l139 -138h-393v-436l-468 2q-189 1 -189 -90q0 -54 30 -92q32 -41 85 -41q42 0 125 13.5t125 13.5q144 0 247 -122q99 -116 99 -263q0 -117 -117 -203q-107 -79 -229 -79q-227 0 -430 206q-137 139 -285 403l61 35q96 -182 233 -313
q173 -166 338 -166q109 0 197 71q95 75 95 181q0 44 -30 75t-73 31q-45 0 -128.5 -34.5t-127.5 -34.5q-114 0 -201 118q-27 35 -120 215q-37 71 -37 115q0 85 91 113q51 16 161 16h399v266zM488 -605l-82 80l447 449l412 -411l-76 -77l-329 327zM607 -118l-113 -112
l-113 112l113 113z" />
    <glyph glyph-name="u0964" horiz-adv-x="1292" 
d="M686 178q133 0 216 49q101 59 101 183q0 64 -42 105.5t-107 41.5q-205 0 -205 -253q0 -53 37 -126zM780 1296h-780l-137 138h1434l140 -138h-485v-424q-28 0 -100 1q-66 1 -100 1q-486 0 -486 -284q0 -147 96 -268q103 -129 246 -129q-58 141 -58 286q0 94 52 169
q59 83 149 83q160 0 258 -154q86 -134 86 -303q0 -116 -105 -198q-97 -76 -216 -76q-234 0 -432 221q-193 216 -193 453q0 108 59 202q65 104 202 138q81 20 253 20q59 0 117 -8v270zM388 -581l-82 80l447 449l412 -411l-76 -77l-329 327zM532 -81l-113 -112l-113 112
l113 113z" />
    <glyph glyph-name="u0965" horiz-adv-x="1440" 
d="M1574 1297h-342v-1297l-177 178v1119h-349v-564q0 -129 1 -105q-2 -46 -24 -81q-48 -78 -156 -88q-55 0 -120 43q-85 56 -115 86q-142 138 -142 270v439h-150l-137 137h1574zM568 905v392h-276v-482q0 -144 43 -170l55 -37q31 -20 51 -20q28 3 76 25q48 45 51 83v209z
M1054 667v-186l-490 -487l-92 91zM894 -2l-113 -112l-113 112l113 113z" />
    <glyph glyph-name="u0966" horiz-adv-x="1449" 
d="M1062 1296h-109l-136 138h631l137 -138h-336v-1296l-187 187v1109zM50 1296l-138 138h1154l138 -137zM1064 633l-407 -288l-135 137l503 309q-174 182 -256 182q-42 0 -233 -118l-196 -118l-137 139l258 146q181 102 242 112q12 2 22 2q86 0 193 -92q81 -71 146 -166
v-245zM587 2l-113 -112l-113 112l113 113z" />
    <glyph glyph-name="u0967" horiz-adv-x="1361" 
d="M997 1296h-219l-137 138h724l140 -138h-342v-1296l-166 169v353q-57 -65 -155 -102q-85 -33 -165 -33q-175 0 -325 147q-128 126 -192 281q118 0 251 70q154 81 154 190q0 256 -161 256q-66 0 -109 -38t-43 -103t45.5 -114.5t110.5 -49.5v-45q-118 0 -189 79
q-67 75 -67 195q0 172 194 172q126 0 239 -147q107 -139 105 -268q-2 -109 -125 -208q-110 -89 -225 -108q44 -86 131 -133q84 -45 184 -41q95 4 159 44q53 33 130 124q53 62 53 184v422zM998 674v-186l-490 -487l-92 91zM857 5l-113 -112l-113 112l113 113z" />
    <glyph glyph-name="u0968" horiz-adv-x="1191" 
d="M771 5l-113 -112l-113 112l113 113zM0 1296l-139 138h1336l138 -138h-443v-372h-358q-218 0 -264 -166q-13 -47 -13 -72q0 -15 6 -57q11 -77 71 -137t136 -62q74 -2 131 29q-20 28 -20 116q8 43 43 71.5t78 29.5q95 1 153 -45q62 -51 60 -144q0 -25 -50 -106
q-24 -38 -49 -57l178 -267l-86 -57l-184 281q-20 -4 -326 -364l-103 83l267 274q-157 37 -278 191q-142 180 -133 346q6 107 72 183q72 81 176 81h331v221h-730z" />
    <glyph glyph-name="u0969" horiz-adv-x="1343" 
d="M536 1238q0 41 -39 79q-32 31 -103 31q-63 0 -96 -30q-45 -41 -45 -103q12 -98 154 -95q63 2 96 33.5t33 84.5zM653 382q127 56 224 168q91 105 91 213v533h-192l-137 138h706l137 -138h-346v-1296l-168 169v230q-118 -98 -181 -129q-91 -45 -218 -45q-130 0 -213 95
q-80 92 -80 223q0 213 153 311q-114 49 -191 134q-90 99 -87 208q2 87 59 159q50 63 131 72q22 2 42 2q104 0 158 -61q51 -59 46 -162q-3 -69 -64.5 -109t-121.5 -40q-87 0 -125 10q7 -13 72 -79q75 -79 146 -87q30 11 69 18q6 1 111 1l138 -140q-20 0 -61 1t-61 1
q-191 0 -287 -100q-42 -44 -49 -102q-9 -78 45 -145q58 -71 127 -70q72 -7 127 17zM966 587v-186l-490 -487l-92 91zM933 -7l-113 -112l-113 112l113 113z" />
    <glyph glyph-name="u096A" horiz-adv-x="1227" 
d="M221 689q-70 88 -70 149q0 105 81 116h633v342h-865l-137 138h1365l137 -138h-340v-1296l-160 158v639h-421v-224q-6 -57 -34 -70q-44 4 -71 38zM865 668v-186l-490 -487l-92 91zM769 -8l-113 -112l-113 112l113 113z" />
    <glyph glyph-name="u096B" horiz-adv-x="1142" 
d="M0 1296l-137 138h1279l139 -138h-339v-1296l-172 173v413q-82 -49 -244 -49q-159 16 -268 144q-108 125 -108 286v329h-150zM301 881q0 -86 47 -156q54 -80 135 -80q87 0 152 48q22 14 80 70q23 26 55 89v444h-469v-415zM769 671v-186l-490 -487l-92 91zM687 2l-113 -112
l-113 112l113 113z" />
    <glyph glyph-name="u096C" horiz-adv-x="1759" 
d="M303 881q0 -86 47 -156q54 -80 135 -80q71 0 155 62q81 59 112 127v462h-449v-415zM903 0l-151 154v432q-82 -49 -224 -49t-266 144q-110 127 -110 248v367h-147l-138 138h1895l138 -138h-993v-399q104 92 215 92q186 0 312.5 -129t126.5 -315q0 -164 -140 -367l-152 153
q24 19 80 76q85 110 85 246q0 86 -68 136q-60 45 -149 45q-157 0 -315 -146zM751 668v-186l-490 -487l-92 91zM635 7l-113 -112l-113 112l113 113z" />
    <glyph glyph-name="u096D" horiz-adv-x="1278" 
d="M1417 1296h-337v-1296l-158 160l-2 336q0 106 2 111q-178 -217 -411 -212q-129 3 -232 90q-135 114 -129 287q7 188 169 277q88 48 163 48q125 0 162 -17q126 -57 211 -162l-39 -31q-112 71 -227 76q-64 3 -119 -15l241 -346q124 78 211 234v460h-922l-137 138h1417z
M672 570l-257 360q-76 -28 -129 -93q-57 -69 -57 -147q0 -89 66 -138q76 -56 163 -54q119 3 214 72zM921 667v-186l-490 -487l-92 91zM852 2l-113 -112l-113 112l113 113z" />
    <glyph glyph-name="u096E" horiz-adv-x="1282" 
d="M567 588q-7 -62 -40 -187q-8 -30 -16 -41q-12 -20 -35 -24q-61 0 -94 43l-184 237q-39 50 -39 80q2 6 4 23q18 33 96 33h152v235q-106 0 -166 17q-226 64 -226 270q0 111 82 160q33 20 66 20q79 0 131 -35q207 -139 251 -376q25 -135 25 -291h332v544h-193l-140 138h714
l139 -138h-340v-1296l-180 178v410h-339zM210 1065q51 -29 102 -29q64 0 99 23l-1 67q0 97 -49 152q-78 88 -149 88q-48 0 -77.5 -35t-29.5 -84q0 -123 105 -182zM990 482l-457 -427l-100 94l474 437zM426 112l-113 -112l-113 112l113 113z" />
    <glyph glyph-name="u096F" horiz-adv-x="1358" 
d="M527 336q-8 -6 -61 -6q-23 0 -225 239l-61 68q-31 36 -31 71q0 68 87 68q53 0 148 -2v522h-384l-137 138h1499l137 -138h-345v-1296l-183 183v419h-426q0 -114 2 -202q1 -48 -20 -64zM971 1296h-426v-522h426v522zM1053 494l-457 -427l-100 94l474 437zM307 111
l-113 -112l-113 112l113 113z" />
    <glyph glyph-name="u0970" horiz-adv-x="1259" 
d="M0 1296l-137 138h1397l139 -138h-341v-1296l-163 165v363q-121 -139 -310 -139q-233 0 -356 178q-80 116 -80 264q90 0 161 46q79 51 93 135q6 20 6 69q0 146 -110 215h-299zM454 805q-57 -60 -102 -84q-32 -17 -92 -33q47 -147 200 -192q56 -11 72 -11q190 0 313 234
q46 88 46 201v376h-410q76 -100 76 -241t-103 -250zM894 676v-186l-490 -487l-92 91zM817 2l-113 -112l-113 112l113 113z" />
    <glyph glyph-name="glyph334" horiz-adv-x="1024" 
d="M128 0v1320h768v-1320h-768zM256 128h512v1064h-512v-1064z" />
    <glyph glyph-name="glyph335" horiz-adv-x="1525" 
d="M1157 169v721q-22 3 -44 3q-155 0 -240 -133q-54 -86 -115 -207l-134 129l82 92q-50 68 -70 84q-41 33 -104 33q-213 0 -213 -190q0 -25 4 -54q4 -32 35 -90q43 -80 60 -108q39 -62 77 -97l278 -277l-43 -42l-331 297q-249 215 -249 441q0 114 70 188.5t183 74.5
q108 0 203 -62q50 -33 137 -161q55 70 163 115q99 42 189 42q36 0 62 -8v336h-1157l-137 138h1667l140 -138h-345v-1296zM1107 1l-113 -112l-113 112l113 113zM1157 875v-186l-490 -487l-92 91z" />
    <glyph glyph-name="glyph336" horiz-adv-x="1443" 
 />
    <glyph glyph-name="glyph337" horiz-adv-x="1242" 
d="M0 1296l-136 138h1375l135 -138h-337v-1296l-178 178v359q-75 -50 -172 -88q-111 -43 -186 -39q-152 8 -263 147q-88 111 -88 262q17 78 58 125q159 150 352 143q192 -6 299 -184v393h-859zM838 858q-32 68 -198 68q-178 0 -316 -140q-67 -68 -67 -139q0 -94 153 -94
q192 0 349 162q79 81 79 143zM863 671v-186l-490 -487l-92 91zM796 12l-113 -112l-113 112l113 113z" />
    <glyph glyph-name="glyph338" horiz-adv-x="1544" 
d="M1169 557l-594 -258l-123 124l594 263l-449 197l-372 -318l-130 131l326 252q-97 17 -168 84q-100 94 -100 215q0 115 143 172q15 6 70 6q182 0 231 -47q19 -13 68 -65q82 -88 90 -152q0 -82 -8 -121q-23 -61 -72 -96l494 -233v-154zM762 1434h406l137 -138h-457
q-17 80 -86 138zM329 1184q0 -70 45.5 -118t114.5 -48q16 0 65.5 45.5t53.5 62.5q2 4 4 19q14 43 14 61q0 27 -22 56q-43 57 -150 57q-102 -16 -125 -135zM1167 1296h-109l-136 138h631l137 -138h-336v-1296l-187 187v1109zM627 2l-113 -112l-113 112l113 113z" />
    <glyph glyph-name="glyph339" horiz-adv-x="1111" 
d="M298 791q0 -82 63 -130q44 -34 132 -36q80 -2 203 118l-398 547v-499zM360 1296l387 -536v-129q-84 -94 -211 -94q-114 0 -213 67q-174 117 -174 262v430h-149l-137 138h1251l140 -138h-343v-1296l-164 165v1131h-387zM746 670v-186l-490 -487l-92 91zM627 -3l-113 -112
l-113 112l113 113z" />
    <glyph glyph-name="glyph340" horiz-adv-x="1426" 
d="M447 12l-113 -112l-113 112l113 113zM1273 590l-457 -427l-100 94l474 437zM1198 1296h-653q34 -41 45 -79l24 -86q13 -82 7 -130q-12 -94 -62 -164q34 -31 120 -56.5t157 -25.5q76 0 199 52q119 51 163 97v392zM0 1296l-136 138h1708l138 -138h-347v-1296l-165 168v527
q-45 -25 -161 -48q-112 -23 -176 -23q-84 0 -190.5 26.5t-167.5 61.5q-58 -88 -152 -80q128 -252 451 -636l-41 -43q-223 221 -392 443q-219 288 -219 423q0 57 35.5 97t91.5 40q78 0 137 -40q70 65 70 153q0 124 -59 177q-13 13 -25 27q-16 14 -51 24z" />
    <glyph glyph-name="glyph341" horiz-adv-x="1190" 
d="M0 1296l-138 138h1333l138 -138h-419v-352h-432q-76 0 -114 -6q-101 -29 -115 -90q0 -133 92 -211q83 49 137 68q98 34 178 32q135 -3 222.5 -87.5t101.5 -220.5q0 -89 -5 -107l-38 -134l-129 59q13 34 54 113q13 43 13 76q0 37 -22 72l-23 36h-1q-16 0 -265 -374l-97 75
q-16 16 277 356q-114 0 -135 -5q-130 -31 -209 -120q-84 -94 -84 -224q0 -76 39 -152q78 -153 330 -245l248 -91v-51l-338 84q-177 44 -300 181q-130 145 -130 321q0 156 115 297q-132 119 -132 285q0 122 111 180q50 26 154 26h331v209h-748zM377 -238l-113 -112l-113 112
l113 113z" />
    <glyph glyph-name="glyph342" horiz-adv-x="1024" 
d="M128 0v1320h768v-1320h-768zM256 128h512v1064h-512v-1064z" />
    <glyph glyph-name="glyph343" horiz-adv-x="1024" 
d="M128 0v1320h768v-1320h-768zM256 128h512v1064h-512v-1064z" />
    <glyph glyph-name="glyph344" horiz-adv-x="1376" 
d="M1376 860q-55 -5 -126 -59q-74 -57 -113 -128v-673l-166 168v431l-401 -274l-125 127l493 309q-119 125 -143 145q-63 54 -113 47q-33 -4 -233 -128l-156 -104l-147 145l228 126l151 84q64 33 91 38q12 2 22 2q77 0 174 -77q92 -73 159 -171v428h-971l-138 138h1512
l140 -138h-377v-405q28 26 111 81q49 26 127 29z" />
    <glyph glyph-name="glyph345" horiz-adv-x="1166" 
d="M1163 549q-26 -55 -130 -92q-63 -23 -114 -21q-131 4 -213 100q-80 91 -80 224q0 130 69 209q72 84 200 84q123 0 268 -119v-385zM1161 717v-177l-490 -490l-89 89zM467 1296q43 -139 43 -256q0 -167 -61 -354q-3 -8 -32 -65q-21 -41 -21 -68q0 -78 145 -199
q132 -110 255 -133q26 -5 57 -5q184 0 310 149v-180q-113 -77 -250 -77q-267 0 -493 218q-268 258 -268 479q0 32 18 73q21 48 50 48q17 0 52 -4t52 -4q36 0 59 79q17 59 17 109q0 113 -80 190h-320l-138 138h1303l138 -138h-836zM917 924q-93 0 -148 -73q-50 -66 -50 -161
q0 -125 166 -125q109 0 181 70.5t72 179.5q0 74 -74 97q-39 12 -147 12z" />
    <glyph glyph-name="glyph346" horiz-adv-x="917" 
d="M1060 1296h-519v-806q2 -14 2 -36q0 -71 -49 -86q-10 -3 -15 -3q-19 0 -42 22l-41 40l-207 270q-32 42 -39 82v47q10 29 57 29h185v441h-392l-138 138h1061zM919 667v-186l-490 -487l-92 91z" />
    <glyph glyph-name="glyph347" horiz-adv-x="1021" 
d="M694 1001l117 -149q-171 0 -290 -55q-157 -73 -157 -224q0 -154 185 -154q27 0 55 3q80 9 223 115l193 151v-201q-252 -215 -416 -215q-137 0 -240 118q-98 114 -98 253q0 177 129 291q-99 21 -168 94q-72 77 -72 176q0 43 17 92h-172l-137 138h1159l137 -138h-670
q-57 0 -97 -35.5t-40 -91.5q0 -49 37 -100t84 -68h221zM1021 671v-186l-490 -487l-92 91z" />
    <glyph glyph-name="glyph348" horiz-adv-x="1237" 
d="M936 966l98 87l98 -87l-98 -88zM1 1296l-138 138h1373l137 -138h-499v-220h-376q-76 0 -108 -17q-47 -25 -47 -93q21 -53 92 -53q29 0 86.5 9t86.5 9q142 0 234 -68q103 -77 103 -214q0 -119 -92 -185q-81 -59 -204 -59q-164 0 -343 154q-151 130 -245 298l37 33
q53 -127 190 -226q142 -103 276 -103q76 0 159 41q97 48 97 116q0 104 -75 104q-29 0 -117 -26.5t-136 -26.5q-66 0 -101 48l-159 220q-29 40 -29 90q0 98 201 98h320v71h-723zM312 -201l-82 80l447 449l412 -411l-76 -77l-329 327zM1044 137l-157 153q198 1 177 2
q77 -4 159 -43q61 -33 201 -159q127 -114 219 -213l-45 -41q-58 69 -152 149q-104 89 -151 102q-105 53 -213 53q-20 0 -38 -3z" />
    <glyph glyph-name="glyph349" horiz-adv-x="1008" 
d="M0 1296l-137 138h1147l137 -138h-1147zM0 1053h789l161 -160l-98 2h-60q-205 0 -247 -35q-121 -100 -121 -178q0 -32 18 -78q29 -74 129 -86q114 0 258 100q108 75 178 191v-191q-120 -215 -401 -215q-104 13 -190 125q-67 88 -68 168q-1 127 37 199h-223zM1009 668v-186
l-490 -487l-92 91z" />
    <glyph glyph-name="glyph350" horiz-adv-x="1447" 
d="M1043 717q-1 -72 44 -143q50 -80 118 -80q66 8 106 114q33 87 33 164q-18 166 -110 186q-67 0 -154 -133q-36 -55 -37 -108zM760 2q-182 0 -307 83q-145 96 -145 271q0 125 98 211q-117 0 -189 83q-69 79 -69 198q0 88 79 159q76 70 165 70h197l164 -162q-29 0 -88 2.5
t-89 2.5q-157 0 -219 -39q-92 -58 -92 -121q0 -135 141 -135q144 0 287 49l155 -153q-159 0 -254 -35q-149 -55 -149 -179q0 -209 272 -209q99 0 246 120q120 98 195 204q-285 131 -285 344q0 125 79 218q83 97 206 99v213h-1158l-137 138h1589l138 -138h-295v-219
q152 -145 152 -383q0 -377 -355 -587q-177 -105 -332 -105zM460 -581l-82 80l447 449l412 -411l-76 -77l-329 327z" />
    <glyph glyph-name="glyph351" horiz-adv-x="1081" 
d="M0 1296l-137 138h1219l137 -138h-1219zM1079 848h-293q106 -121 106 -283q0 -104 -71 -185t-174 -81q-85 0 -218 107q-181 146 -282 552h61q61 -172 141 -292q119 -177 248 -177q43 0 82 40.5t39 84.5q0 99 -67.5 219.5t-151.5 176.5h580v-162zM1081 582v-186l-490 -487
l-92 91z" />
    <glyph glyph-name="glyph352" horiz-adv-x="1163" 
d="M1163 644q-61 -38 -133 -46q-18 -2 -121 -2q2 -174 -66 -264q-54 -72 -222 -160l102 -156l-74 -106l-110 225q-30 -8 -123 -8q-108 0 -180 50q-82 58 -82 161q0 68 46 109t115 41q172 0 260 -173q240 72 240 265q0 60 -34 81q-25 15 -87 15q-32 0 -93 -22.5t-93 -22.5
q-105 0 -154 20q-70 29 -136.5 127t-70.5 174q-9 160 297 165q60 1 205 1v178h-649l-135 137h1303l140 -135l-509 -2v-295h-312q-202 0 -202 -157q0 -31 32 -63.5t62 -32.5q42 0 122 23.5t122 23.5q110 0 137 -5q91 -17 119 -86q124 10 174 43q39 26 50 37q25 24 60 79v-219
zM1244 458l-457 -427l-100 94l474 437z" />
    <glyph glyph-name="glyph353" horiz-adv-x="1159" 
d="M-138 1434h1301l138 -138h-1301zM1159 713q-137 -33 -177 -33q-23 0 -46 3q5 -53 5 -94q0 -143 -72 -226q-76 -89 -217 -89q-136 0 -284 174l-218 278l29 26q261 -317 438 -317q86 0 153.5 66t67.5 152q0 154 -69 253q-78 113 -226 113q-69 0 -154 -98l-119 115
q111 111 241 111q57 0 85 -3q85 -9 185 -125q86 -100 122 -196q30 -8 46 -8q41 0 115 27q84 31 95 63v-192zM1160 583v-186l-490 -487l-92 91z" />
    <glyph glyph-name="glyph354" horiz-adv-x="1232" 
d="M663 1296h-663l-138 138h1374l138 -138h-552v-328h-24q-22 1 -37 1h-69q-188 0 -283 -39q-108 -44 -127 -59q-55 -44 -55 -141q0 -45 45 -98q40 -47 85 -68q106 -50 181 -50q179 0 374 119l116 -119q-193 -129 -391 -129q-172 0 -313 109q-173 134 -173 285
q0 341 409 341h103v176zM288 -177l-82 80l447 449l412 -411l-76 -77l-329 327zM1039 148l-157 153q198 1 177 2q77 -4 159 -43q61 -33 201 -159q127 -114 219 -213l-45 -41q-58 69 -152 149q-104 89 -151 102q-105 53 -213 53q-20 0 -38 -3z" />
    <glyph glyph-name="glyph355" horiz-adv-x="1249" 
d="M981 772q0 120 -109 194q-97 66 -222 66q-126 0 -223 -66q-109 -74 -109 -194t109 -194q97 -66 223 -66q125 0 222 66q109 74 109 194zM551 1296h-553l-137 138h1391l137 -137l-708 -1v-185q23 0 98 -34q269 -121 269 -329q0 -178 -137 -276q-122 -87 -306 -87
q-185 0 -317 116q-138 121 -138 303q0 137 105 209q26 18 194 86q107 44 105 109zM312 -177l-82 80l447 449l412 -411l-76 -77l-329 327zM1080 154l-157 153q198 1 177 2q77 -4 159 -43q61 -33 201 -159q127 -114 219 -213l-45 -41q-58 69 -152 149q-104 89 -151 102
q-105 53 -213 53q-20 0 -38 -3z" />
    <glyph glyph-name="glyph356" horiz-adv-x="1115" 
d="M749 1296h-749l-138 138h1256l138 -138h-386v-215l-380 1q-153 0 -153 -73q0 -108 93 -108q34 0 101.5 10.5t101.5 10.5q113 0 198 -96q82 -92 82 -207q0 -100 -91 -171q-85 -66 -188 -66q-307 0 -580 494l49 28q77 -147 189 -254q141 -135 274 -135q87 0 159 57
q77 62 77 147q0 36 -23.5 61.5t-59.5 25.5q-34 0 -104 -28.5t-103 -28.5q-93 0 -164 95q-27 37 -97 176q-30 60 -30 93q0 105 204 105h324v78zM312 -241l-82 80l447 449l412 -411l-76 -77l-329 327zM1049 124l-157 153q198 1 177 2q77 -4 159 -43q61 -33 201 -159
q127 -114 219 -213l-45 -41q-58 69 -152 149q-104 89 -151 102q-105 53 -213 53q-20 0 -38 -3z" />
    <glyph glyph-name="glyph357" horiz-adv-x="1219" 
d="M727 1296h-727l-138 138h1360l137 -138h-475v-190q-30 0 -90 2t-90 2q-450 0 -450 -240q0 -84 56 -179q57 -98 131 -132q46 -21 127 -21q-52 118 -52 240q0 83 50 144q53 66 134 66q146 0 235 -120q81 -109 81 -261q0 -103 -104 -170q-92 -59 -200 -59q-201 0 -383 181
t-182 381q0 183 157 253q107 48 315 48q55 0 107 -7zM630 526q301 0 301 194q0 56 -41 91q-39 32 -96 32q-188 0 -188 -211q0 -46 24 -106zM268 -231l-82 80l447 449l412 -411l-76 -77l-329 327zM1017 119l-157 153q198 1 177 2q77 -4 159 -43q61 -33 201 -159
q127 -114 219 -213l-45 -41q-58 69 -152 149q-104 89 -151 102q-105 53 -213 53q-20 0 -38 -3z" />
    <glyph glyph-name="glyph358" horiz-adv-x="937" 
d="M1078 1296l-373 1v-671q0 -71 -61 -122q-57 -47 -129 -47q-42 0 -120 55q-245 173 -245 344l-1 440h-149l-138 138h1078zM568 1297h-276v-482q0 -143 43 -170q90 -57 106 -57q128 0 128 177zM941 671v-186l-490 -487l-92 91z" />
    <glyph glyph-name="glyph359" horiz-adv-x="1012" 
d="M0 1296l-138 138h1154l138 -137zM1014 633l-407 -288l-135 137l503 309q-174 182 -256 182q-42 0 -233 -118l-196 -118l-137 139l258 146q181 102 242 112q12 2 22 2q86 0 193 -92q81 -71 146 -166v-245z" />
    <glyph glyph-name="glyph360" horiz-adv-x="966" 
d="M708 1296l-140 138h398l137 -138h-395zM967 522q-137 -135 -320 -135q-189 0 -327 119q-142 122 -158 309q77 0 168 31q99 34 145 84q90 99 90 145q0 256 -161 256q-66 0 -109 -38t-43 -103t45.5 -114.5t110.5 -49.5l2 -45q-115 0 -186.5 79t-71.5 195q0 172 194 172
q107 0 228 -155q116 -148 116 -260q0 -108 -124 -208q-111 -90 -226 -108q39 -74 113.5 -124t154.5 -50q81 0 203 68q128 71 156 141v-209zM968 667v-186l-490 -487l-92 91z" />
    <glyph glyph-name="glyph361" horiz-adv-x="1192" 
d="M0 1296l-139 138h1336l138 -138h-443v-372h-358q-218 0 -264 -166q-13 -47 -13 -72q0 -15 6 -57q11 -77 71 -137t136 -62q74 -2 131 29q-20 28 -20 116q8 43 43 71.5t78 29.5q95 1 153 -45q62 -51 60 -144q0 -25 -50 -106q-24 -38 -49 -57l178 -267l-86 -57l-184 281
q-20 -4 -326 -364l-103 83l267 274q-157 37 -278 191q-142 180 -133 346q6 107 72 183q72 81 176 81h331v221h-730zM783 -243l-157 153q198 1 177 2q77 -4 159 -43q61 -33 201 -159q127 -114 219 -213l-45 -41q-58 69 -152 149q-104 89 -151 102q-105 53 -213 53
q-20 0 -38 -3z" />
    <glyph glyph-name="glyph362" horiz-adv-x="998" 
d="M677 1296q-13 99 -87 138h408l137 -138h-458zM550 1249q0 53 -53 88q-32 21 -93 21q-62 0 -106 -40q-35 -32 -35 -93q11 -88 154 -85q57 1 86 23q47 35 47 86zM998 409q-224 -184 -429 -184q-130 0 -213 95q-80 92 -80 223q0 213 153 311q-111 47 -189 134
q-89 99 -89 208q0 82 45 148q54 79 145 83q115 5 182 -49q73 -59 64 -172q-5 -62 -66 -103q-55 -36 -120 -36q-28 0 -105 20q3 -49 76 -124q63 -67 112 -72q54 29 93 29h90l135 -140q-19 0 -56.5 1t-56.5 1q-200 0 -286 -110q-39 -50 -39 -92q0 -124 58 -169q46 -36 153 -36
q8 0 77 12q57 10 166 92q21 16 60 64q46 55 58 87q25 37 62 117v-338zM1000 581v-186l-490 -487l-92 91z" />
    <glyph glyph-name="glyph363" horiz-adv-x="861" 
d="M862 807h-420v-224q-6 -57 -35 -70q-44 4 -71 38l-118 148q-70 88 -70 149q0 75 81 114q8 2 633 2v-157zM0 1296l-138 138h999l138 -138h-999zM859 663v-186l-490 -487l-92 91z" />
    <glyph glyph-name="glyph364" horiz-adv-x="751" 
d="M752 582q-90 -45 -228 -45q-156 16 -272 159q-102 125 -102 267v333h-150l-138 138h892l138 -138h-611v-415q0 -94 54 -162q58 -74 150 -74q66 0 152 64q80 58 115 122v-249zM752 672v-186l-490 -487l-92 91z" />
    <glyph glyph-name="glyph365" horiz-adv-x="1246" 
d="M1156 876q-28 -9 -91 -44q-18 -18 -65 -57q-15 -15 -98 -92l1 -683l-151 155v431q-82 -49 -224 -49q-159 16 -268 144q-108 125 -108 286v329h-152l-138 138h1388l139 -138h-486l-1 -404l97 69q26 18 43 26q34 14 84 17l118 2v-118q-24 -2 -88 -12zM303 881
q0 -86 47 -156q54 -80 135 -80q71 0 155 62q81 59 112 127v462h-449v-415zM753 678v-186l-490 -487l-92 91z" />
    <glyph glyph-name="glyph366" horiz-adv-x="934" 
d="M-2 1296l-137 138h1077l138 -138h-1078zM936 786v-206q-194 -186 -412 -185q-140 1 -243 90q-134 116 -129 287q5 177 188 277q75 41 155 41q64 0 160 -29q118 -36 253 -203l-29 -31l-76 59q-62 47 -97 58q-59 19 -106 19q-27 0 -115 -19l230 -352q165 117 221 194z
M428 930q-89 -24 -176 -134q-16 -20 -22 -86q-7 -70 24 -113q46 -64 106 -84q75 -25 119 -25q83 0 197 82zM936 668v-186l-490 -487l-92 91z" />
    <glyph glyph-name="glyph367" horiz-adv-x="893" 
d="M565 752h330v-170h-336q0 -44 -29 -148l-10 -36q-18 -66 -55 -72q-58 0 -92 45l-183 245q-41 55 -41 80q0 56 101 56h151v237q-115 0 -168 15q-225 64 -225 270q0 111 82 160q33 20 68 20q73 0 120 -33q146 -82 203 -202q84 -178 84 -467zM716 1296l-138 138h317
l138 -138h-317zM123 1135q53 -103 182 -103q53 0 96 27q13 47 13 67q0 84 -62 152q-78 86 -151 86q-107 0 -107 -117q0 -56 29 -112zM977 479l-457 -427l-100 94l474 437z" />
    <glyph glyph-name="glyph368" horiz-adv-x="962" 
d="M961 604h-426v-194q0 -60 -18 -72q-66 0 -88 27l-242 301q-37 46 -37 82q11 26 86 26h138v522h-374l-138 138h1099l140 -138h-566v-522h426v-170zM1044 496l-457 -427l-100 94l474 437z" />
    <glyph glyph-name="glyph369" horiz-adv-x="893" 
d="M893 1434h-1031l138 -138h302q110 -69 110 -215q0 -49 -6 -69q-14 -84 -93 -135q-71 -46 -161 -46q0 -148 80 -264q123 -178 356 -178q177 0 307 149l-1 382q-2 -8 -18 -107q-9 -58 -28 -94q-122 -234 -313 -234q-16 0 -72 11q-153 45 -200 192q60 16 92 33q45 24 102 84
q103 109 103 250t-76 241h548zM891 673v-186l-490 -487l-92 91z" />
    <glyph glyph-name="glyph370" horiz-adv-x="1024" 
d="M128 0v1320h768v-1320h-768zM256 128h512v1064h-512v-1064z" />
    <glyph glyph-name="glyph371" horiz-adv-x="1044" 
d="M0 1296l-138 138h1182l138 -138h-1182zM1042 776q-143 -41 -242 -209q-31 -53 -51 -110l-156 118l86 113q-24 73 -92 100q-43 17 -74 17q-14 0 -63 -10q-135 -45 -135 -234q0 -41 33 -88q2 -8 20 -41q31 -57 59 -88q18 -20 62 -57q8 -10 47 -49q13 -13 41 -33
q18 -19 39 -35l20 -20l-39 -52q-19 8 -84 66l-67 59q-15 12 -60 51q-233 205 -233 431q0 46 16 90q55 151 217 151q105 0 199 -62t129 -159q130 136 250 176q68 23 78 23v-148zM1126 595l-457 -427l-100 94l474 437z" />
    <glyph glyph-name="glyph372" horiz-adv-x="1441" 
 />
    <glyph glyph-name="glyph373" horiz-adv-x="925" 
d="M0 1296l-138 138h1066l137 -138h-1065zM925 786v-206q-200 -189 -413 -185q-162 3 -261.5 101.5t-99.5 260.5q0 137 97.5 235t234.5 98q110 0 197 -43q70 -35 176 -129l-29 -41q-133 81 -225 81q-340 0 -350 -260q-3 -81 63 -133q60 -47 144 -47q103 0 255 91
q142 85 211 177zM927 678v-186l-490 -487l-92 91z" />
    <glyph glyph-name="glyph374" horiz-adv-x="1168" 
d="M1169 557l-594 -258l-123 124l594 263l-449 197l-372 -318l-130 131l326 252q-97 17 -168 84q-100 94 -100 215q0 115 143 172q15 6 70 6q182 0 231 -47q19 -13 68 -65q82 -88 90 -152q0 -82 -8 -121q-23 -61 -72 -96l494 -233v-154zM762 1434h406l137 -138h-457
q-17 80 -86 138zM329 1184q0 -70 45.5 -118t114.5 -48q16 0 65.5 45.5t53.5 62.5q2 4 4 19q14 43 14 61q0 27 -22 56q-43 57 -150 57q-102 -16 -125 -135z" />
    <glyph glyph-name="glyph375" horiz-adv-x="751" 
d="M0 1296l-138 138h889l138 -138h-527l387 -536v-129q-84 -94 -211 -94q-99 0 -213 77q-174 117 -174 252v430h-151zM300 791q0 -72 63 -120q57 -44 132 -46q80 -2 203 118l-398 547v-499zM751 677v-186l-490 -487l-92 91z" />
    <glyph glyph-name="glyph376" horiz-adv-x="1127" 
d="M1216 627l-457 -427l-100 94l474 437zM533 1296q41 -85 41 -196q0 -92 -45 -213q98 -82 217 -82q269 0 380 99v-179q-82 -51 -355 -51q-156 0 -310 88q-36 -107 -122 -146q211 -360 443 -610l-43 -43q-177 175 -358 419q-233 314 -233 447q0 140 100 140q77 0 134 -43
q67 52 67 149q0 111 -38 161q-21 28 -87 60h-324l-138 138h1264l140 -138h-733z" />
    <glyph glyph-name="glyph377" horiz-adv-x="1191" 
d="M0 1296l-138 138h1333l138 -138h-419v-352h-432q-76 0 -114 -6q-101 -29 -115 -90q0 -133 92 -211q83 49 137 68q98 34 178 32q135 -3 222.5 -87.5t101.5 -220.5q0 -89 -5 -107l-38 -134l-129 59q13 34 54 113q13 43 13 76q0 37 -22 72l-23 36h-1q-16 0 -265 -374l-97 75
q-16 16 277 356q-114 0 -135 -5q-130 -31 -209 -120q-84 -94 -84 -224q0 -76 39 -152q78 -153 330 -245l248 -91v-51l-338 84q-177 44 -300 181q-130 145 -130 321q0 156 115 297q-132 119 -132 285q0 122 111 180q50 26 154 26h331v209h-748zM767 -547l-157 153
q198 1 177 2q77 -4 159 -43q61 -33 201 -159q127 -114 219 -213l-45 -41q-58 69 -152 149q-104 89 -151 102q-105 53 -213 53q-20 0 -38 -3z" />
    <glyph glyph-name="glyph378" horiz-adv-x="1195" 
d="M371 975l-105 84q-57 46 -73 94q-25 76 -25 115q0 80 65 129q59 45 142 45q40 0 106 -15q144 -33 217 -174q47 -92 44 -170q-5 -119 -115 -186q104 -68 221 -68q199 0 349 143v-143q-146 -98 -292 -100q-210 -2 -338 133q-128 0 -224 -81q-103 -85 -103 -210
q0 -43 12 -71q39 -130 186 -135q75 -3 138 30q0 106 90 148q34 16 71 16q62 0 103 -39.5t41 -101.5q0 -53 -33 -109q-49 -84 -143 -92l69 -190l-61 -27l-94 213q-209 0 -338 127t-129 336q22 211 219 299zM551 1346q-31 18 -82 18q-106 0 -153 -82q-21 -37 -21 -80
q0 -119 102 -168q45 -10 62 -10q97 0 151 88q23 38 23 84q0 103 -82 150zM692 1434h508l137 -138h-538q-28 64 -52 90q-8 8 -55 48zM1280 490l-457 -427l-100 94l474 437z" />
    <glyph glyph-name="glyph379" horiz-adv-x="980" 
d="M1118 1296h-1115l-138 138h1115zM978 901h-494q46 -17 153 -100q121 -93 146 -148q19 -41 19 -94q0 -102 -80 -186t-182 -99l104 -251l-61 -63l-121 290q-39 -12 -90 -12q-88 0 -150 50q-67 54 -67 140q0 149 143 152q71 2 121 -49q37 -38 49 -87q58 0 101.5 46t43.5 104
q0 100 -59 137l-385 244v80h809v-154zM1061 514l-457 -427l-100 94l474 437z" />
    <glyph glyph-name="glyph380" horiz-adv-x="1374" 
d="M655 2l-113 -112l-113 112l113 113zM1376 860q-55 -5 -126 -59q-74 -57 -113 -128v-673l-166 168v431l-401 -274l-125 127l493 309q-119 125 -143 145q-63 54 -113 47q-33 -4 -233 -128l-156 -104l-147 145l228 126l151 84q64 33 91 38q12 2 22 2q77 0 174 -77
q92 -73 159 -171v428h-971l-138 138h1512l140 -138h-377v-405q28 26 111 81q49 26 127 29z" />
    <glyph glyph-name="glyph381" horiz-adv-x="1163" 
d="M1163 549q-26 -55 -130 -92q-63 -23 -114 -21q-131 4 -213 100q-80 91 -80 224q0 130 69 209q72 84 200 84q123 0 268 -119v-385zM1161 717v-177l-490 -490l-89 89zM467 1296q43 -139 43 -256q0 -167 -61 -354q-3 -8 -32 -65q-21 -41 -21 -68q0 -78 145 -199
q132 -110 255 -133q26 -5 57 -5q184 0 310 149v-180q-113 -77 -250 -77q-267 0 -493 218q-268 258 -268 479q0 32 18 73q21 48 50 48q17 0 52 -4t52 -4q36 0 59 79q17 59 17 109q0 113 -80 190h-320l-138 138h1303l138 -138h-836zM917 924q-93 0 -148 -73q-50 -66 -50 -161
q0 -125 166 -125q109 0 181 70.5t72 179.5q0 74 -74 97q-39 12 -147 12zM854 -110l-113 -112l-113 112l113 113z" />
    <glyph glyph-name="glyph382" horiz-adv-x="921" 
d="M1060 1296h-519v-806q2 -14 2 -36q0 -71 -49 -86q-10 -3 -15 -3q-19 0 -42 22l-41 40l-207 270q-32 42 -39 82v47q10 29 57 29h185v441h-392l-138 138h1061zM922 669v-186l-490 -487l-92 91zM810 -3l-113 -112l-113 112l113 113z" />
    <glyph glyph-name="glyph383" horiz-adv-x="1021" 
d="M694 1001l117 -149q-171 0 -290 -55q-157 -73 -157 -224q0 -154 185 -154q27 0 55 3q80 9 223 115l193 151v-201q-252 -215 -416 -215q-137 0 -240 118q-98 114 -98 253q0 177 129 291q-99 21 -168 94q-72 77 -72 176q0 43 17 92h-172l-137 138h1159l137 -138h-670
q-57 0 -97 -35.5t-40 -91.5q0 -49 37 -100t84 -68h221zM1021 671v-186l-490 -487l-92 91zM891 2l-113 -112l-113 112l113 113z" />
    <glyph glyph-name="glyph384" horiz-adv-x="1232" 
d="M936 966l98 87l98 -87l-98 -88zM1 1296l-138 138h1373l137 -138h-499v-220h-376q-76 0 -108 -17q-47 -25 -47 -93q21 -53 92 -53q29 0 86.5 9t86.5 9q142 0 234 -68q103 -77 103 -214q0 -119 -92 -185q-81 -59 -204 -59q-164 0 -343 154q-151 130 -245 298l37 33
q53 -127 190 -226q142 -103 276 -103q76 0 159 41q97 48 97 116q0 104 -75 104q-29 0 -117 -26.5t-136 -26.5q-66 0 -101 48l-159 220q-29 40 -29 90q0 98 201 98h320v71h-723zM312 -241l-82 80l447 449l412 -411l-76 -77l-329 327zM1038 148l-157 153q198 1 177 2
q77 -4 159 -43q61 -33 201 -159q127 -114 219 -213l-45 -41q-58 69 -152 149q-104 89 -151 102q-105 53 -213 53q-20 0 -38 -3zM437 252l-113 -112l-113 112l113 113z" />
    <glyph glyph-name="glyph385" horiz-adv-x="1008" 
d="M0 1296l-137 138h1147l137 -138h-1147zM0 1053h789l161 -160l-98 2h-60q-205 0 -247 -35q-121 -100 -121 -178q0 -32 18 -78q29 -74 129 -86q114 0 258 100q108 75 178 191v-191q-120 -215 -401 -215q-104 13 -190 125q-67 88 -68 168q-1 127 37 199h-223zM1007 675v-186
l-490 -487l-92 91zM917 7l-113 -112l-113 112l113 113z" />
    <glyph glyph-name="glyph386" horiz-adv-x="1452" 
d="M1043 717q-1 -72 44 -143q50 -80 118 -80q66 8 106 114q33 87 33 164q-18 166 -110 186q-67 0 -154 -133q-36 -55 -37 -108zM760 2q-182 0 -307 83q-145 96 -145 271q0 125 98 211q-117 0 -189 83q-69 79 -69 198q0 88 79 159q76 70 165 70h197l164 -162q-29 0 -88 2.5
t-89 2.5q-157 0 -219 -39q-92 -58 -92 -121q0 -135 141 -135q144 0 287 49l155 -153q-159 0 -254 -35q-149 -55 -149 -179q0 -209 272 -209q99 0 246 120q120 98 195 204q-285 131 -285 344q0 125 79 218q83 97 206 99v213h-1158l-137 138h1589l138 -138h-295v-219
q152 -145 152 -383q0 -377 -355 -587q-177 -105 -332 -105zM440 -581l-82 80l447 449l412 -411l-76 -77l-329 327zM477 -168l-113 -112l-113 112l113 113z" />
    <glyph glyph-name="glyph387" horiz-adv-x="1081" 
d="M0 1296l-137 138h1219l137 -138h-1219zM1079 848h-293q106 -121 106 -283q0 -104 -71 -185t-174 -81q-85 0 -218 107q-181 146 -282 552h61q61 -172 141 -292q119 -177 248 -177q43 0 82 40.5t39 84.5q0 99 -67.5 219.5t-151.5 176.5h580v-162zM1081 637v-186l-490 -487
l-92 91zM976 4l-113 -112l-113 112l113 113z" />
    <glyph glyph-name="glyph388" horiz-adv-x="1163" 
d="M1163 644q-61 -38 -133 -46q-18 -2 -121 -2q2 -174 -66 -264q-54 -72 -222 -160l102 -156l-74 -106l-110 225q-30 -8 -123 -8q-108 0 -180 50q-82 58 -82 161q0 68 46 109t115 41q172 0 260 -173q240 72 240 265q0 60 -34 81q-25 15 -87 15q-32 0 -93 -22.5t-93 -22.5
q-105 0 -154 20q-70 29 -136.5 127t-70.5 174q-9 160 297 165q60 1 205 1v178h-649l-135 137h1303l140 -135l-509 -2v-295h-312q-202 0 -202 -157q0 -31 32 -63.5t62 -32.5q42 0 122 23.5t122 23.5q110 0 137 -5q91 -17 119 -86q124 10 174 43q39 26 50 37q25 24 60 79v-219
zM1244 458l-457 -427l-100 94l474 437zM440 -86l-113 -112l-113 112l113 113z" />
    <glyph glyph-name="glyph389" horiz-adv-x="1159" 
d="M-138 1434h1301l138 -138h-1301zM1159 713q-137 -33 -177 -33q-23 0 -46 3q5 -53 5 -94q0 -143 -72 -226q-76 -89 -217 -89q-136 0 -284 174l-218 278l29 26q261 -317 438 -317q86 0 153.5 66t67.5 152q0 154 -69 253q-78 113 -226 113q-69 0 -154 -98l-119 115
q111 111 241 111q57 0 85 -3q85 -9 185 -125q86 -100 122 -196q30 -8 46 -8q41 0 115 27q84 31 95 63v-192zM1160 583v-186l-490 -487l-92 91zM1091 12l-113 -112l-113 112l113 113z" />
    <glyph glyph-name="glyph390" horiz-adv-x="1237" 
d="M663 1296h-663l-138 138h1374l138 -138h-552v-328h-24q-22 1 -37 1h-69q-188 0 -283 -39q-108 -44 -127 -59q-55 -44 -55 -141q0 -45 45 -98q40 -47 85 -68q106 -50 181 -50q179 0 374 119l116 -119q-193 -129 -391 -129q-172 0 -313 109q-173 134 -173 285
q0 341 409 341h103v176zM288 -177l-82 80l447 449l412 -411l-76 -77l-329 327zM1044 148l-157 153q198 1 177 2q77 -4 159 -43q61 -33 201 -159q127 -114 219 -213l-45 -41q-58 69 -152 149q-104 89 -151 102q-105 53 -213 53q-20 0 -38 -3zM397 272l-113 -112l-113 112
l113 113z" />
    <glyph glyph-name="glyph391" horiz-adv-x="1250" 
d="M981 772q0 120 -109 194q-97 66 -222 66q-126 0 -223 -66q-109 -74 -109 -194t109 -194q97 -66 223 -66q125 0 222 66q109 74 109 194zM551 1296h-553l-137 138h1391l137 -137l-708 -1v-185q23 0 98 -34q269 -121 269 -329q0 -178 -137 -276q-122 -87 -306 -87
q-185 0 -317 116q-138 121 -138 303q0 137 105 209q26 18 194 86q107 44 105 109zM312 -177l-82 80l447 449l412 -411l-76 -77l-329 327zM1045 171l-157 153q198 1 177 2q77 -4 159 -43q61 -33 201 -159q127 -114 219 -213l-45 -41q-58 69 -152 149q-104 89 -151 102
q-105 53 -213 53q-20 0 -38 -3zM397 252l-113 -112l-113 112l113 113z" />
    <glyph glyph-name="glyph392" horiz-adv-x="1112" 
d="M749 1296h-749l-138 138h1256l138 -138h-386v-215l-380 1q-153 0 -153 -73q0 -108 93 -108q34 0 101.5 10.5t101.5 10.5q113 0 198 -96q82 -92 82 -207q0 -100 -91 -171q-85 -66 -188 -66q-307 0 -580 494l49 28q77 -147 189 -254q141 -135 274 -135q87 0 159 57
q77 62 77 147q0 36 -23.5 61.5t-59.5 25.5q-34 0 -104 -28.5t-103 -28.5q-93 0 -164 95q-27 37 -97 176q-30 60 -30 93q0 105 204 105h324v78zM312 -241l-82 80l447 449l412 -411l-76 -77l-329 327zM1031 143l-157 153q198 1 177 2q77 -4 159 -43q61 -33 201 -159
q127 -114 219 -213l-45 -41q-58 69 -152 149q-104 89 -151 102q-105 53 -213 53q-20 0 -38 -3zM397 282l-113 -112l-113 112l113 113z" />
    <glyph glyph-name="glyph393" horiz-adv-x="1218" 
d="M727 1296h-727l-138 138h1360l137 -138h-475v-190q-30 0 -90 2t-90 2q-450 0 -450 -240q0 -84 56 -179q57 -98 131 -132q46 -21 127 -21q-52 118 -52 240q0 83 50 144q53 66 134 66q146 0 235 -120q81 -109 81 -261q0 -103 -104 -170q-92 -59 -200 -59q-201 0 -383 181
t-182 381q0 183 157 253q107 48 315 48q55 0 107 -7zM630 526q301 0 301 194q0 56 -41 91q-39 32 -96 32q-188 0 -188 -211q0 -46 24 -106zM268 -231l-82 80l447 449l412 -411l-76 -77l-329 327zM1028 119l-157 153q198 1 177 2q77 -4 159 -43q61 -33 201 -159
q127 -114 219 -213l-45 -41q-58 69 -152 149q-104 89 -151 102q-105 53 -213 53q-20 0 -38 -3zM397 302l-113 -112l-113 112l113 113z" />
    <glyph glyph-name="glyph394" horiz-adv-x="934" 
d="M1078 1296l-373 1v-671q0 -71 -61 -122q-57 -47 -129 -47q-42 0 -120 55q-245 173 -245 344l-1 440h-149l-138 138h1078zM568 1297h-276v-482q0 -143 43 -170q90 -57 106 -57q128 0 128 177zM936 677v-186l-490 -487l-92 91zM827 -1l-113 -112l-113 112l113 113z" />
    <glyph glyph-name="glyph395" horiz-adv-x="1012" 
d="M0 1296l-138 138h1154l138 -137zM1014 633l-407 -288l-135 137l503 309q-174 182 -256 182q-42 0 -233 -118l-196 -118l-137 139l258 146q181 102 242 112q12 2 22 2q86 0 193 -92q81 -71 146 -166v-245zM697 2l-113 -112l-113 112l113 113z" />
    <glyph glyph-name="glyph396" horiz-adv-x="968" 
d="M708 1296l-140 138h398l137 -138h-395zM967 522q-137 -135 -320 -135q-189 0 -327 119q-142 122 -158 309q77 0 168 31q99 34 145 84q90 99 90 145q0 256 -161 256q-66 0 -109 -38t-43 -103t45.5 -114.5t110.5 -49.5l2 -45q-115 0 -186.5 79t-71.5 195q0 172 194 172
q107 0 228 -155q116 -148 116 -260q0 -108 -124 -208q-111 -90 -226 -108q39 -74 113.5 -124t154.5 -50q81 0 203 68q128 71 156 141v-209zM965 668v-186l-490 -487l-92 91zM846 2l-113 -112l-113 112l113 113z" />
    <glyph glyph-name="glyph397" horiz-adv-x="1191" 
d="M0 1296l-139 138h1336l138 -138h-443v-372h-358q-218 0 -264 -166q-13 -47 -13 -72q0 -15 6 -57q11 -77 71 -137t136 -62q74 -2 131 29q-20 28 -20 116q8 43 43 71.5t78 29.5q95 1 153 -45q62 -51 60 -144q0 -25 -50 -106q-24 -38 -49 -57l178 -267l-86 -57l-184 281
q-20 -4 -326 -364l-103 83l267 274q-157 37 -278 191q-142 180 -133 346q6 107 72 183q72 81 176 81h331v221h-730zM860 -295l-157 153q198 1 177 2q77 -4 159 -43q61 -33 201 -159q127 -114 219 -213l-45 -41q-58 69 -152 149q-104 89 -151 102q-105 53 -213 53
q-20 0 -38 -3zM708 7l-113 -112l-113 112l113 113z" />
    <glyph glyph-name="glyph398" horiz-adv-x="998" 
d="M677 1296q-13 99 -87 138h408l137 -138h-458zM550 1249q0 53 -53 88q-32 21 -93 21q-62 0 -106 -40q-35 -32 -35 -93q11 -88 154 -85q57 1 86 23q47 35 47 86zM998 409q-224 -184 -429 -184q-130 0 -213 95q-80 92 -80 223q0 213 153 311q-111 47 -189 134
q-89 99 -89 208q0 82 45 148q54 79 145 83q115 5 182 -49q73 -59 64 -172q-5 -62 -66 -103q-55 -36 -120 -36q-28 0 -105 20q3 -49 76 -124q63 -67 112 -72q54 29 93 29h90l135 -140q-19 0 -56.5 1t-56.5 1q-200 0 -286 -110q-39 -50 -39 -92q0 -124 58 -169q46 -36 153 -36
q8 0 77 12q57 10 166 92q21 16 60 64q46 55 58 87q25 37 62 117v-338zM1000 587v-186l-490 -487l-92 91zM930 2l-113 -112l-113 112l113 113z" />
    <glyph glyph-name="glyph399" horiz-adv-x="861" 
d="M862 807h-420v-224q-6 -57 -35 -70q-44 4 -71 38l-118 148q-70 88 -70 149q0 75 81 114q8 2 633 2v-157zM0 1296l-138 138h999l138 -138h-999zM752 7l-113 -112l-113 112l113 113zM859 677v-186l-490 -487l-92 91z" />
    <glyph glyph-name="glyph400" horiz-adv-x="751" 
d="M752 582q-90 -45 -228 -45q-156 16 -272 159q-102 125 -102 267v333h-150l-138 138h892l138 -138h-611v-415q0 -94 54 -162q58 -74 150 -74q66 0 152 64q80 58 115 122v-249zM751 672v-186l-490 -487l-92 91zM637 7l-113 -112l-113 112l113 113z" />
    <glyph glyph-name="glyph401" horiz-adv-x="1246" 
d="M1156 876q-28 -9 -91 -44q-18 -18 -65 -57q-15 -15 -98 -92l1 -683l-151 155v431q-82 -49 -224 -49q-159 16 -268 144q-108 125 -108 286v329h-152l-138 138h1388l139 -138h-486l-1 -404l97 69q26 18 43 26q34 14 84 17l118 2v-118q-24 -2 -88 -12zM303 881
q0 -86 47 -156q54 -80 135 -80q71 0 155 62q81 59 112 127v462h-449v-415zM753 667v-186l-490 -487l-92 91zM676 8l-113 -112l-113 112l113 113z" />
    <glyph glyph-name="glyph402" horiz-adv-x="934" 
d="M-2 1296l-137 138h1077l138 -138h-1078zM936 786v-206q-194 -186 -412 -185q-140 1 -243 90q-134 116 -129 287q5 177 188 277q75 41 155 41q64 0 160 -29q118 -36 253 -203l-29 -31l-76 59q-62 47 -97 58q-59 19 -106 19q-27 0 -115 -19l230 -352q165 117 221 194z
M428 930q-89 -24 -176 -134q-16 -20 -22 -86q-7 -70 24 -113q46 -64 106 -84q75 -25 119 -25q83 0 197 82zM936 668v-186l-490 -487l-92 91zM786 1l-113 -112l-113 112l113 113z" />
    <glyph glyph-name="glyph403" horiz-adv-x="893" 
d="M565 752h330v-170h-336q0 -44 -29 -148l-10 -36q-18 -66 -55 -72q-58 0 -92 45l-183 245q-41 55 -41 80q0 56 101 56h151v237q-115 0 -168 15q-225 64 -225 270q0 111 82 160q33 20 68 20q73 0 120 -33q146 -82 203 -202q84 -178 84 -467zM716 1296l-138 138h317
l138 -138h-317zM123 1135q53 -103 182 -103q53 0 96 27q13 47 13 67q0 84 -62 152q-78 86 -151 86q-107 0 -107 -117q0 -56 29 -112zM974 480l-457 -427l-100 94l474 437zM830 5l-113 -112l-113 112l113 113z" />
    <glyph glyph-name="glyph404" horiz-adv-x="962" 
d="M961 604h-426v-194q0 -60 -18 -72q-66 0 -88 27l-242 301q-37 46 -37 82q11 26 86 26h138v522h-374l-138 138h1099l140 -138h-566v-522h426v-170zM1047 491l-457 -427l-100 94l474 437zM923 1l-113 -112l-113 112l113 113z" />
    <glyph glyph-name="glyph405" horiz-adv-x="893" 
d="M893 1434h-1031l138 -138h302q110 -69 110 -215q0 -49 -6 -69q-14 -84 -93 -135q-71 -46 -161 -46q0 -148 80 -264q123 -178 356 -178q177 0 307 149l-1 382q-2 -8 -18 -107q-9 -58 -28 -94q-122 -234 -313 -234q-16 0 -72 11q-153 45 -200 192q60 16 92 33q45 24 102 84
q103 109 103 250t-76 241h548zM891 677v-186l-490 -487l-92 91zM771 -2l-113 -112l-113 112l113 113z" />
    <glyph glyph-name="glyph406" horiz-adv-x="1024" 
d="M128 0v1320h768v-1320h-768zM256 128h512v1064h-512v-1064z" />
    <glyph glyph-name="glyph407" horiz-adv-x="1044" 
d="M0 1296l-138 138h1182l138 -138h-1182zM1042 776q-143 -41 -242 -209q-31 -53 -51 -110l-156 118l86 113q-24 73 -92 100q-43 17 -74 17q-14 0 -63 -10q-135 -45 -135 -234q0 -41 33 -88q2 -8 20 -41q31 -57 59 -88q18 -20 62 -57q8 -10 47 -49q13 -13 41 -33
q18 -19 39 -35l20 -20l-39 -52q-19 8 -84 66l-67 59q-15 12 -60 51q-233 205 -233 431q0 46 16 90q55 151 217 151q105 0 199 -62t129 -159q130 136 250 176q68 23 78 23v-148zM1125 575l-457 -427l-100 94l474 437zM438 10l-113 -112l-113 112l113 113z" />
    <glyph glyph-name="glyph408" horiz-adv-x="1443" 
 />
    <glyph glyph-name="glyph409" horiz-adv-x="925" 
d="M0 1296l-138 138h1066l137 -138h-1065zM925 786v-206q-200 -189 -413 -185q-162 3 -261.5 101.5t-99.5 260.5q0 137 97.5 235t234.5 98q110 0 197 -43q70 -35 176 -129l-29 -41q-133 81 -225 81q-340 0 -350 -260q-3 -81 63 -133q60 -47 144 -47q103 0 255 91
q142 85 211 177zM924 669v-186l-490 -487l-92 91zM809 5l-113 -112l-113 112l113 113z" />
    <glyph glyph-name="glyph410" horiz-adv-x="1168" 
d="M1169 557l-594 -258l-123 124l594 263l-449 197l-372 -318l-130 131l326 252q-97 17 -168 84q-100 94 -100 215q0 115 143 172q15 6 70 6q182 0 231 -47q19 -13 68 -65q82 -88 90 -152q0 -82 -8 -121q-23 -61 -72 -96l494 -233v-154zM762 1434h406l137 -138h-457
q-17 80 -86 138zM329 1184q0 -70 45.5 -118t114.5 -48q16 0 65.5 45.5t53.5 62.5q2 4 4 19q14 43 14 61q0 27 -22 56q-43 57 -150 57q-102 -16 -125 -135zM694 -4l-113 -112l-113 112l113 113z" />
    <glyph glyph-name="glyph411" horiz-adv-x="751" 
d="M0 1296l-138 138h889l138 -138h-527l387 -536v-129q-84 -94 -211 -94q-99 0 -213 77q-174 117 -174 252v430h-151zM300 791q0 -72 63 -120q57 -44 132 -46q80 -2 203 118l-398 547v-499zM751 677v-186l-490 -487l-92 91zM632 2l-113 -112l-113 112l113 113z" />
    <glyph glyph-name="glyph412" horiz-adv-x="1127" 
d="M462 7l-113 -112l-113 112l113 113zM1216 627l-457 -427l-100 94l474 437zM533 1296q41 -85 41 -196q0 -92 -45 -213q98 -82 217 -82q269 0 380 99v-179q-82 -51 -355 -51q-156 0 -310 88q-36 -107 -122 -146q211 -360 443 -610l-43 -43q-177 175 -358 419
q-233 314 -233 447q0 140 100 140q77 0 134 -43q67 52 67 149q0 111 -38 161q-21 28 -87 60h-324l-138 138h1264l140 -138h-733z" />
    <glyph glyph-name="glyph413" horiz-adv-x="1195" 
d="M0 1296l-138 138h1333l138 -138h-419v-352h-432q-76 0 -114 -6q-101 -29 -115 -90q0 -133 92 -211q83 49 137 68q98 34 178 32q135 -3 222.5 -87.5t101.5 -220.5q0 -89 -5 -107l-38 -134l-129 59q13 34 54 113q13 43 13 76q0 37 -22 72l-23 36h-1q-16 0 -265 -374l-97 75
q-16 16 277 356q-114 0 -135 -5q-130 -31 -209 -120q-84 -94 -84 -224q0 -76 39 -152q78 -153 330 -245l248 -91v-51l-338 84q-177 44 -300 181q-130 145 -130 321q0 156 115 297q-132 119 -132 285q0 122 111 180q50 26 154 26h331v209h-748zM844 -493l-157 153
q198 1 177 2q77 -4 159 -43q61 -33 201 -159q127 -114 219 -213l-45 -41q-58 69 -152 149q-104 89 -151 102q-105 53 -213 53q-20 0 -38 -3zM343 -220l-113 -112l-113 112l113 113z" />
    <glyph glyph-name="glyph414" horiz-adv-x="1195" 
d="M371 975l-105 84q-57 46 -73 94q-25 76 -25 115q0 80 65 129q59 45 142 45q40 0 106 -15q144 -33 217 -174q47 -92 44 -170q-5 -119 -115 -186q104 -68 221 -68q199 0 349 143v-143q-146 -98 -292 -100q-210 -2 -338 133q-128 0 -224 -81q-103 -85 -103 -210
q0 -43 12 -71q39 -130 186 -135q75 -3 138 30q0 106 90 148q34 16 71 16q62 0 103 -39.5t41 -101.5q0 -53 -33 -109q-49 -84 -143 -92l69 -190l-61 -27l-94 213q-209 0 -338 127t-129 336q22 211 219 299zM551 1346q-31 18 -82 18q-106 0 -153 -82q-21 -37 -21 -80
q0 -119 102 -168q45 -10 62 -10q97 0 151 88q23 38 23 84q0 103 -82 150zM692 1434h508l137 -138h-538q-28 64 -52 90q-8 8 -55 48zM1277 494l-457 -427l-100 94l474 437zM530 17l-113 -112l-113 112l113 113z" />
    <glyph glyph-name="glyph415" horiz-adv-x="980" 
d="M1118 1296h-1115l-138 138h1115zM978 901h-494q46 -17 153 -100q121 -93 146 -148q19 -41 19 -94q0 -102 -80 -186t-182 -99l104 -251l-61 -63l-121 290q-39 -12 -90 -12q-88 0 -150 50q-67 54 -67 140q0 149 143 152q71 2 121 -49q37 -38 49 -87q58 0 101.5 46t43.5 104
q0 100 -59 137l-385 244v80h809v-154zM1061 488l-457 -427l-100 94l474 437zM428 4l-113 -112l-113 112l113 113z" />
    <glyph glyph-name="glyph416" horiz-adv-x="2087" 
d="M1172 812v-810l-166 167v656h-328q-124 0 -196 -62q-78 -66 -78 -188q0 -165 120 -315l226 -260h-66q-174 124 -296 277q-154 193 -154 358q0 101 86 190h-153l-164 166h1003v305h-1006l-138 138h2231l137 -138h-1058v-324q64 3 142 2q82 -1 203 -10q160 -36 247 -127
q118 -124 118 -284q0 -131 -93 -296q-45 -79 -164 -254l-147 143q75 56 199 168q123 138 123 265q0 105 -83 177q-80 69 -261 78q-83 4 -284 -22z" />
    <glyph glyph-name="glyph417" horiz-adv-x="1708" 
d="M1323 1296h-109l-136 138h631l137 -138h-336v-1296l-187 187v1109zM1266 877q-4 22 -96 36q-71 11 -113 11q-52 0 -78 -13q-56 -28 -89 -94q-31 -61 -31 -127q0 -32 8 -47q43 -78 158 -78q145 0 210 109q43 72 43 141q0 39 -12 62zM1323 543q-12 -26 -131 -74
q-85 -35 -133 -33q-131 4 -213 100q-80 91 -80 224q0 130 69 209q72 84 200 84q143 0 288 -119v-391zM1362 423l-398 -169l49 -91q8 -21 5 -35q-1 -7 -5 -12q-25 -10 -48 1l-104 49l-42 25q-23 13 -34 36q-20 41 14 84q164 61 521 217zM892 74l-33 -83q-150 91 -316 249
q-341 324 -341 565q0 32 18 73q21 48 50 48q17 0 52 -4t52 -4q36 0 59 79q17 59 17 109q0 113 -80 190h-320l-140 138h1416l140 -138h-949q43 -139 43 -256q0 -187 -51 -344q-12 -38 -83 -133q0 -82 154 -233q201 -198 286 -241z" />
    <glyph glyph-name="glyph418" horiz-adv-x="2082" 
d="M1079 942l109 109l109 -109l-109 -108zM1315 535q-61 4 -90 4q-101 0 -101 -72q0 -37 101 -155.5t128 -118.5q19 0 40 6q14 16 16 96l-2 107h344v-262l133 -140v1296h342l-138 138h-2226l138 -138h798v-300h-366q-223 0 -223 -105q0 -68 80 -192q26 -40 129 -179
q44 -59 112 -59q65 0 153.5 27.5t127.5 27.5q51 0 79 -40q25 -36 25 -89q0 -234 -285 -234q-148 0 -314 160q-121 117 -224 287l-41 -41q104 -204 267 -363q202 -197 386 -197q144 0 234 78q96 82 96 224q0 128 -53 200q111 134 221 134q48 0 80 -25q34 -28 33 -75z
M1199 736q-85 0 -165 -44q-87 -48 -116 -121q-16 7 -25 16q-6 1 -54 17q-41 14 -92 14q-35 0 -104.5 -5.5t-104.5 -5.5q-48 0 -99 19q-67 25 -74 68q-3 18 -3 33q0 114 175 114h407v455h807v-762l-344 -1q-15 203 -208 203z" />
    <glyph glyph-name="glyph419" horiz-adv-x="1455" 
d="M-142 1434h1216l141 -138h-1215zM1073 825h-378q-128 0 -201.5 -74t-73.5 -202q0 -91 83 -210q40 -57 274 -339h-76q-264 236 -332 321q-118 148 -118 315q0 100 86 189h-181l-165 166h1082v-166zM1071 1296h-109l-136 138h631l137 -138h-336v-1296l-187 187v1109z" />
    <glyph glyph-name="glyph420" horiz-adv-x="1409" 
d="M10 1296l-138 138h1151l140 -138h-1153zM1093 762l-437 -297l92 -141q13 -20 13 -36q0 -13 -9 -23q-21 -14 -40 -14q-16 0 -30 10l-177 60q-68 50 -68 106q0 49 61 90l525 353zM1023 881h-417q-150 0 -258 -86q-59 -47 -59 -177q0 -95 57 -174l287 -399l-35 -43l-216 238
q-112 126 -164 231q-64 130 -56 268q7 124 93 208.5t210 84.5h558v-151zM1021 1296h-109l-136 138h631l137 -138h-336v-1296l-187 187v1109z" />
    <glyph glyph-name="glyph421" horiz-adv-x="1115" 
d="M151 796q0 111 68 192q71 87 180 87h331v221h-730l-138 138h1257l139 -138h-366v-372h-358q-121 0 -195 -57q-82 -63 -82 -181q0 -98 64 -179q69 -87 164 -87q70 0 116 19q-20 28 -20 136q0 39 42 71q39 30 79 30q213 0 213 -189q0 -28 -37 -86.5t-62 -76.5l178 -267
l-86 -57l-184 281q-65 -14 -99 -14q-45 0 -85 13q0 -76 2 -208.5t2 -186.5q0 -48 -37 -52q-44 12 -116.5 115t-72.5 151q0 17 63 19q-80 -2 76 -2v199q-132 85 -213 204q-93 135 -93 277z" />
    <glyph glyph-name="glyph422" horiz-adv-x="1513" 
d="M1059 242l-57 57q-70 0 -135 -23q-213 -76 -213 -176q0 -98 78 -98q54 0 143 50q16 12 61 42q85 51 123 148zM0 1296l-138 138h1654l138 -138h-484v-422h-332q-116 0 -191 -62q-79 -67 -79 -181q0 -221 223 -221q63 0 108 79q-16 29 -16 64q0 123 168 123q80 0 125 -49.5
t45 -130.5q0 -53 -31.5 -100.5t-81.5 -63.5l271 -273l-66 -57l-137 139q-46 -71 -131 -143q-100 -84 -168 -84q-322 0 -322 250q-37 -8 -80 -8q-129 0 -223 79q-100 84 -100 211q0 77 50.5 127.5t127.5 51.5l94 -136q-52 0 -86.5 -35t-34.5 -87q0 -51 30 -93q33 -45 83 -45
q70 0 129 43t88 109q-160 168 -160 379q0 164 132 225q91 42 274 42h65q14 0 36 -1h24v270h-1004z" />
    <glyph glyph-name="glyph423" horiz-adv-x="1175" 
d="M801 618l-207 -32q-125 -25 -187 -74q-82 -65 -82 -185q0 -112 96 -175q82 -54 200 -54q28 0 57 6l23 16q-5 27 -5 28q0 78 36 129q41 56 117 56q60 0 95 -50q32 -44 32 -106q0 -61 -40 -117.5t-97 -76.5l126 -275l-57 -29l-136 288q-52 -11 -97 -11q-180 0 -298 104
q-122 109 -122 287q0 176 172 259q-126 25 -201 111.5t-75 213.5q0 141 149 195q99 36 290 36h58q42 -1 52 -1v135h-698l-138 138h1314l138 -138h-467v-297h-385q-246 0 -246 -131q0 -64 91 -111q79 -40 150 -40q65 0 160 19l158 31z" />
    <glyph glyph-name="glyph424" horiz-adv-x="1516" 
d="M383 418q34 32 34 78q0 37 -21 65q-23 32 -58 27q-55 -8 -87 -56q-29 -43 -29 -101q0 -41 16 -73q74 -7 145 60zM0 1296l-138 138h1654l138 -138h-484v-422h-332q-116 0 -191 -62q-79 -67 -79 -181q0 -221 223 -221q63 0 108 79q-16 29 -16 64q0 123 168 123
q80 0 125 -49.5t45 -130.5q0 -53 -31.5 -100.5t-81.5 -63.5l271 -273l-66 -57l-157 159l-99 -156q-89 -106 -180 -111q-129 -7 -224 69q-98 79 -98 201q-37 -8 -80 -8q-129 0 -223 79q-100 84 -100 211q0 77 53 144q56 72 131 72q151 0 151 -155q0 -186 -214 -193
q78 -85 143 -85q70 0 129 43t88 109q-160 168 -160 379q0 164 132 225q91 42 273 42h65q14 0 37 -1h24v270h-1004zM1069 242l-57 57q-348 0 -348 -199q0 -104 147 -102q162 2 258 244z" />
    <glyph glyph-name="glyph425" horiz-adv-x="1197" 
d="M131 168q-21 -13 -21 -33q0 -12 12 -22q72 -52 163 -99q4 -2 26 3q8 7 8 18q0 10 -32 90l206 76l224 78l280 -277l62 57l-271 273q50 16 81.5 63.5t31.5 100.5q0 81 -45 131q-56 61 -125 61q-149 0 -168 -135q-7 -48 24 -104q-50 -39 -116 -39q-223 0 -223 221
q0 114 79 181q75 62 191 62h332v422h485l-138 138h-1335l138 -138h684v-270h-27q-24 1 -38 1h-66q-190 0 -276 -45q-125 -66 -125 -247q0 -319 369 -432z" />
    </font>
</defs>
</svg>
